WemixPretendard.glyphspackage
{
color = 11;
glyphname = logoWemix;
layers = (
{
layerId = "CD0E3B44-F66A-4791-B84C-A1128DC61275";
shapes = (
{
closed = 1;
nodes = (
(1225,184,o),
(1249,211,o),
(1258,262,cs),
(1490,1798,ls),
(1496,1843,o),
(1463,1888,o),
(1415,1894,cs),
(1370,1901,o),
(1324,1867,o),
(1318,1822,cs),
(1173,839,l),
(1077,1493,ls),
(1071,1545,o),
(1035,1575,o),
(992,1575,cs),
(944,1578,o),
(908,1548,o),
(899,1496,cs),
(760,857,l),
(652,1201,ls),
(643,1237,o),
(609,1264,o),
(573,1270,cs),
(522,1276,o),
(492,1249,o),
(471,1216,cs),
(302,947,l),
(199,947,l),
(196,971,o),
(196,999,o),
(196,1026,cs),
(196,1716,o),
(757,2278,o),
(1448,2278,cs),
(2006,2278,o),
(2480,1913,o),
(2640,1409,c),
(2845,1409,l),
(2676,2024,o),
(2115,2474,o),
(1448,2474,cs),
(649,2474,o),
(0,1825,o),
(0,1026,cs),
(0,938,o),
(9,854,o),
(21,772,c),
(344,772,ls),
(386,772,o),
(410,784,o),
(425,811,cs),
(540,999,l),
(682,549,ls),
(697,504,o),
(730,483,o),
(775,480,cs),
(824,480,o),
(860,510,o),
(869,555,cs),
(974,1050,l),
(1089,262,ls),
(1095,211,o),
(1122,184,o),
(1173,184,cs)
);
},
{
closed = 1;
nodes = (
(2247,-422,o),
(2896,226,o),
(2896,1026,cs),
(2896,1113,o),
(2887,1198,o),
(2875,1279,c),
(2552,1279,ls),
(2510,1279,o),
(2486,1267,o),
(2471,1240,cs),
(2356,1053,l),
(2211,1502,ls),
(2199,1548,o),
(2163,1569,o),
(2121,1572,cs),
(2072,1572,o),
(2033,1542,o),
(2027,1496,c),
(1922,1002,l),
(1807,1789,ls),
(1801,1840,o),
(1774,1867,o),
(1723,1867,cs),
(1671,1867,o),
(1644,1840,o),
(1638,1789,cs),
(1406,253,ls),
(1400,208,o),
(1433,163,o),
(1478,157,cs),
(1526,151,o),
(1572,184,o),
(1578,229,cs),
(1723,1213,l),
(1816,558,ls),
(1825,507,o),
(1861,477,o),
(1904,477,cs),
(1952,474,o),
(1985,504,o),
(1997,555,cs),
(2136,1195,l),
(2244,851,ls),
(2253,815,o),
(2287,787,o),
(2323,781,cs),
(2374,775,o),
(2401,802,o),
(2422,836,cs),
(2594,1104,l),
(2697,1104,l),
(2700,1080,o),
(2700,1053,o),
(2700,1026,cs),
(2700,335,o),
(2139,-226,o),
(1448,-226,cs),
(890,-226,o),
(416,139,o),
(256,643,c),
(51,643,l),
(220,27,o),
(781,-422,o),
(1448,-422,cs)
);
}
);
width = 2896;
},
{
layerId = "B1F27B51-9973-4381-9301-4FE46FE1CA59";
shapes = (
{
closed = 1;
nodes = (
(1225,184,o),
(1249,211,o),
(1258,262,cs),
(1490,1798,ls),
(1496,1843,o),
(1463,1888,o),
(1415,1894,cs),
(1370,1901,o),
(1324,1867,o),
(1318,1822,cs),
(1173,839,l),
(1077,1493,ls),
(1071,1545,o),
(1035,1575,o),
(992,1575,cs),
(944,1578,o),
(908,1548,o),
(899,1496,cs),
(760,857,l),
(652,1201,ls),
(643,1237,o),
(609,1264,o),
(573,1270,cs),
(522,1276,o),
(492,1249,o),
(471,1216,cs),
(302,947,l),
(199,947,l),
(196,971,o),
(196,999,o),
(196,1026,cs),
(196,1716,o),
(757,2278,o),
(1448,2278,cs),
(2006,2278,o),
(2480,1913,o),
(2640,1409,c),
(2845,1409,l),
(2676,2024,o),
(2115,2474,o),
(1448,2474,cs),
(649,2474,o),
(0,1825,o),
(0,1026,cs),
(0,938,o),
(9,854,o),
(21,772,c),
(344,772,ls),
(386,772,o),
(410,784,o),
(425,811,cs),
(540,999,l),
(682,549,ls),
(697,504,o),
(730,483,o),
(775,480,cs),
(824,480,o),
(860,510,o),
(869,555,cs),
(974,1050,l),
(1089,262,ls),
(1095,211,o),
(1122,184,o),
(1173,184,cs)
);
},
{
closed = 1;
nodes = (
(2247,-422,o),
(2896,226,o),
(2896,1026,cs),
(2896,1113,o),
(2887,1198,o),
(2875,1279,c),
(2552,1279,ls),
(2510,1279,o),
(2486,1267,o),
(2471,1240,cs),
(2356,1053,l),
(2211,1502,ls),
(2199,1548,o),
(2163,1569,o),
(2121,1572,cs),
(2072,1572,o),
(2033,1542,o),
(2027,1496,c),
(1922,1002,l),
(1807,1789,ls),
(1801,1840,o),
(1774,1867,o),
(1723,1867,cs),
(1671,1867,o),
(1644,1840,o),
(1638,1789,cs),
(1406,253,ls),
(1400,208,o),
(1433,163,o),
(1478,157,cs),
(1526,151,o),
(1572,184,o),
(1578,229,cs),
(1723,1213,l),
(1816,558,ls),
(1825,507,o),
(1861,477,o),
(1904,477,cs),
(1952,474,o),
(1985,504,o),
(1997,555,cs),
(2136,1195,l),
(2244,851,ls),
(2253,815,o),
(2287,787,o),
(2323,781,cs),
(2374,775,o),
(2401,802,o),
(2422,836,cs),
(2594,1104,l),
(2697,1104,l),
(2700,1080,o),
(2700,1053,o),
(2700,1026,cs),
(2700,335,o),
(2139,-226,o),
(1448,-226,cs),
(890,-226,o),
(416,139,o),
(256,643,c),
(51,643,l),
(220,27,o),
(781,-422,o),
(1448,-422,cs)
);
}
);
width = 2896;
},
{
layerId = "5C20EF92-B63D-42A8-8878-93C2863E0093";
shapes = (
{
closed = 1;
nodes = (
(1225,184,o),
(1249,211,o),
(1258,262,cs),
(1490,1798,ls),
(1496,1843,o),
(1463,1888,o),
(1415,1894,cs),
(1370,1901,o),
(1324,1867,o),
(1318,1822,cs),
(1173,839,l),
(1077,1493,ls),
(1071,1545,o),
(1035,1575,o),
(992,1575,cs),
(944,1578,o),
(908,1548,o),
(899,1496,cs),
(760,857,l),
(652,1201,ls),
(643,1237,o),
(609,1264,o),
(573,1270,cs),
(522,1276,o),
(492,1249,o),
(471,1216,cs),
(302,947,l),
(199,947,l),
(196,971,o),
(196,999,o),
(196,1026,cs),
(196,1716,o),
(757,2278,o),
(1448,2278,cs),
(2006,2278,o),
(2480,1913,o),
(2640,1409,c),
(2845,1409,l),
(2676,2024,o),
(2115,2474,o),
(1448,2474,cs),
(649,2474,o),
(0,1825,o),
(0,1026,cs),
(0,938,o),
(9,854,o),
(21,772,c),
(344,772,ls),
(386,772,o),
(410,784,o),
(425,811,cs),
(540,999,l),
(682,549,ls),
(697,504,o),
(730,483,o),
(775,480,cs),
(824,480,o),
(860,510,o),
(869,555,cs),
(974,1050,l),
(1089,262,ls),
(1095,211,o),
(1122,184,o),
(1173,184,cs)
);
},
{
closed = 1;
nodes = (
(2247,-422,o),
(2896,226,o),
(2896,1026,cs),
(2896,1113,o),
(2887,1198,o),
(2875,1279,c),
(2552,1279,ls),
(2510,1279,o),
(2486,1267,o),
(2471,1240,cs),
(2356,1053,l),
(2211,1502,ls),
(2199,1548,o),
(2163,1569,o),
(2121,1572,cs),
(2072,1572,o),
(2033,1542,o),
(2027,1496,c),
(1922,1002,l),
(1807,1789,ls),
(1801,1840,o),
(1774,1867,o),
(1723,1867,cs),
(1671,1867,o),
(1644,1840,o),
(1638,1789,cs),
(1406,253,ls),
(1400,208,o),
(1433,163,o),
(1478,157,cs),
(1526,151,o),
(1572,184,o),
(1578,229,cs),
(1723,1213,l),
(1816,558,ls),
(1825,507,o),
(1861,477,o),
(1904,477,cs),
(1952,474,o),
(1985,504,o),
(1997,555,cs),
(2136,1195,l),
(2244,851,ls),
(2253,815,o),
(2287,787,o),
(2323,781,cs),
(2374,775,o),
(2401,802,o),
(2422,836,cs),
(2594,1104,l),
(2697,1104,l),
(2700,1080,o),
(2700,1053,o),
(2700,1026,cs),
(2700,335,o),
(2139,-226,o),
(1448,-226,cs),
(890,-226,o),
(416,139,o),
(256,643,c),
(51,643,l),
(220,27,o),
(781,-422,o),
(1448,-422,cs)
);
}
);
width = 2896;
}
);
metricWidth = symbolBase;
unicode = 1024000;
}
{
color = 11;
glyphname = logoWemixexplorer;
layers = (
{
layerId = "CD0E3B44-F66A-4791-B84C-A1128DC61275";
shapes = (
{
closed = 1;
nodes = (
(2573,205,o),
(2625,278,o),
(2667,356,c),
(2172,323,o),
(1575,422,o),
(799,661,c),
(796,661,l),
(576,727,o),
(314,784,o),
(75,805,c),
(87,730,o),
(106,655,o),
(130,582,c),
(356,558,o),
(603,489,o),
(815,428,cs),
(1297,293,o),
(1919,118,o),
(2516,136,c)
);
},
{
closed = 1;
nodes = (
(1502,-365,o),
(1557,-362,o),
(1608,-356,c),
(305,235,l),
(555,-127,o),
(974,-365,o),
(1448,-365,cs)
);
},
{
closed = 1;
nodes = (
(2036,-238,o),
(2136,-187,o),
(2226,-127,c),
(1653,-12,o),
(996,296,o),
(489,443,cs),
(377,474,o),
(265,501,o),
(151,525,c),
(184,437,o),
(229,353,o),
(278,275,c),
(374,250,o),
(471,223,o),
(561,193,cs),
(938,69,o),
(1421,-139,o),
(1934,-278,c)
);
},
{
closed = 1;
nodes = (
(2818,778,o),
(2830,857,o),
(2836,935,c),
(1955,733,o),
(1255,893,o),
(513,1026,cs),
(365,1053,o),
(214,1071,o),
(60,1083,c),
(54,1029,o),
(63,911,o),
(66,863,c),
(226,851,o),
(383,830,o),
(537,799,cs),
(1207,670,o),
(1952,528,o),
(2802,706,c)
);
},
{
closed = 1;
nodes = (
(1035,1071,o),
(1469,1071,o),
(1901,1113,cs),
(2335,1155,o),
(2676,1222,o),
(2821,1255,c),
(2809,1327,o),
(2790,1397,o),
(2769,1463,c),
(2555,1418,o),
(2293,1376,o),
(2030,1345,cs),
(1557,1291,o),
(1077,1285,o),
(600,1324,cs),
(434,1336,o),
(268,1345,o),
(100,1354,cs),
(97,1354,l),
(81,1282,o),
(69,1213,o),
(63,1140,c),
(69,1137,o),
(75,1137,o),
(81,1137,cs),
(256,1128,o),
(431,1119,o),
(603,1104,cs)
);
},
{
closed = 1;
nodes = (
(193,1412,ls),
(1044,1412,o),
(1873,1511,o),
(2667,1698,c),
(2628,1765,o),
(2585,1831,o),
(2537,1891,c),
(1783,1720,o),
(1002,1629,o),
(196,1629,c),
(163,1560,o),
(133,1487,o),
(112,1412,c)
);
},
{
closed = 1;
nodes = (
(950,1765,o),
(1662,1897,o),
(2353,2082,c),
(2281,2142,o),
(2202,2199,o),
(2118,2244,c),
(1554,2103,o),
(974,1997,o),
(386,1925,c),
(326,1849,o),
(272,1771,o),
(226,1686,c)
);
},
{
closed = 1;
nodes = (
(1843,2359,l),
(1716,2395,o),
(1584,2416,o),
(1448,2416,cs),
(1053,2416,o),
(694,2250,o),
(440,1985,c)
);
}
);
width = 2896;
},
{
layerId = "B1F27B51-9973-4381-9301-4FE46FE1CA59";
shapes = (
{
closed = 1;
nodes = (
(2573,205,o),
(2625,278,o),
(2667,356,c),
(2172,323,o),
(1575,422,o),
(799,661,c),
(796,661,l),
(576,727,o),
(314,784,o),
(75,805,c),
(87,730,o),
(106,655,o),
(130,582,c),
(356,558,o),
(603,489,o),
(815,428,cs),
(1297,293,o),
(1919,118,o),
(2516,136,c)
);
},
{
closed = 1;
nodes = (
(1502,-365,o),
(1557,-362,o),
(1608,-356,c),
(305,235,l),
(555,-127,o),
(974,-365,o),
(1448,-365,cs)
);
},
{
closed = 1;
nodes = (
(2036,-238,o),
(2136,-187,o),
(2226,-127,c),
(1653,-12,o),
(996,296,o),
(489,443,cs),
(377,474,o),
(265,501,o),
(151,525,c),
(184,437,o),
(229,353,o),
(278,275,c),
(374,250,o),
(471,223,o),
(561,193,cs),
(938,69,o),
(1421,-139,o),
(1934,-278,c)
);
},
{
closed = 1;
nodes = (
(2818,778,o),
(2830,857,o),
(2836,935,c),
(1955,733,o),
(1255,893,o),
(513,1026,cs),
(365,1053,o),
(214,1071,o),
(60,1083,c),
(54,1029,o),
(63,911,o),
(66,863,c),
(226,851,o),
(383,830,o),
(537,799,cs),
(1207,670,o),
(1952,528,o),
(2802,706,c)
);
},
{
closed = 1;
nodes = (
(1035,1071,o),
(1469,1071,o),
(1901,1113,cs),
(2335,1155,o),
(2676,1222,o),
(2821,1255,c),
(2809,1327,o),
(2790,1397,o),
(2769,1463,c),
(2555,1418,o),
(2293,1376,o),
(2030,1345,cs),
(1557,1291,o),
(1077,1285,o),
(600,1324,cs),
(434,1336,o),
(268,1345,o),
(100,1354,cs),
(97,1354,l),
(81,1282,o),
(69,1213,o),
(63,1140,c),
(69,1137,o),
(75,1137,o),
(81,1137,cs),
(256,1128,o),
(431,1119,o),
(603,1104,cs)
);
},
{
closed = 1;
nodes = (
(193,1412,ls),
(1044,1412,o),
(1873,1511,o),
(2667,1698,c),
(2628,1765,o),
(2585,1831,o),
(2537,1891,c),
(1783,1720,o),
(1002,1629,o),
(196,1629,c),
(163,1560,o),
(133,1487,o),
(112,1412,c)
);
},
{
closed = 1;
nodes = (
(950,1765,o),
(1662,1897,o),
(2353,2082,c),
(2281,2142,o),
(2202,2199,o),
(2118,2244,c),
(1554,2103,o),
(974,1997,o),
(386,1925,c),
(326,1849,o),
(272,1771,o),
(226,1686,c)
);
},
{
closed = 1;
nodes = (
(1843,2359,l),
(1716,2395,o),
(1584,2416,o),
(1448,2416,cs),
(1053,2416,o),
(694,2250,o),
(440,1985,c)
);
}
);
width = 2896;
},
{
layerId = "5C20EF92-B63D-42A8-8878-93C2863E0093";
shapes = (
{
closed = 1;
nodes = (
(2573,205,o),
(2625,278,o),
(2667,356,c),
(2172,323,o),
(1575,422,o),
(799,661,c),
(796,661,l),
(576,727,o),
(314,784,o),
(75,805,c),
(87,730,o),
(106,655,o),
(130,582,c),
(356,558,o),
(603,489,o),
(815,428,cs),
(1297,293,o),
(1919,118,o),
(2516,136,c)
);
},
{
closed = 1;
nodes = (
(1502,-365,o),
(1557,-362,o),
(1608,-356,c),
(305,235,l),
(555,-127,o),
(974,-365,o),
(1448,-365,cs)
);
},
{
closed = 1;
nodes = (
(2036,-238,o),
(2136,-187,o),
(2226,-127,c),
(1653,-12,o),
(996,296,o),
(489,443,cs),
(377,474,o),
(265,501,o),
(151,525,c),
(184,437,o),
(229,353,o),
(278,275,c),
(374,250,o),
(471,223,o),
(561,193,cs),
(938,69,o),
(1421,-139,o),
(1934,-278,c)
);
},
{
closed = 1;
nodes = (
(2818,778,o),
(2830,857,o),
(2836,935,c),
(1955,733,o),
(1255,893,o),
(513,1026,cs),
(365,1053,o),
(214,1071,o),
(60,1083,c),
(54,1029,o),
(63,911,o),
(66,863,c),
(226,851,o),
(383,830,o),
(537,799,cs),
(1207,670,o),
(1952,528,o),
(2802,706,c)
);
},
{
closed = 1;
nodes = (
(1035,1071,o),
(1469,1071,o),
(1901,1113,cs),
(2335,1155,o),
(2676,1222,o),
(2821,1255,c),
(2809,1327,o),
(2790,1397,o),
(2769,1463,c),
(2555,1418,o),
(2293,1376,o),
(2030,1345,cs),
(1557,1291,o),
(1077,1285,o),
(600,1324,cs),
(434,1336,o),
(268,1345,o),
(100,1354,cs),
(97,1354,l),
(81,1282,o),
(69,1213,o),
(63,1140,c),
(69,1137,o),
(75,1137,o),
(81,1137,cs),
(256,1128,o),
(431,1119,o),
(603,1104,cs)
);
},
{
closed = 1;
nodes = (
(193,1412,ls),
(1044,1412,o),
(1873,1511,o),
(2667,1698,c),
(2628,1765,o),
(2585,1831,o),
(2537,1891,c),
(1783,1720,o),
(1002,1629,o),
(196,1629,c),
(163,1560,o),
(133,1487,o),
(112,1412,c)
);
},
{
closed = 1;
nodes = (
(950,1765,o),
(1662,1897,o),
(2353,2082,c),
(2281,2142,o),
(2202,2199,o),
(2118,2244,c),
(1554,2103,o),
(974,1997,o),
(386,1925,c),
(326,1849,o),
(272,1771,o),
(226,1686,c)
);
},
{
closed = 1;
nodes = (
(1843,2359,l),
(1716,2395,o),
(1584,2416,o),
(1448,2416,cs),
(1053,2416,o),
(694,2250,o),
(440,1985,c)
);
}
);
width = 2896;
}
);
metricWidth = symbolBase;
unicode = 1024005;
}
{
color = 11;
glyphname = logoWemixwallet;
layers = (
{
layerId = "CD0E3B44-F66A-4791-B84C-A1128DC61275";
shapes = (
{
closed = 1;
nodes = (
(1940,-344,o),
(2368,-94,o),
(2615,284,c),
(2528,160,o),
(2383,78,o),
(2217,78,cs),
(2115,78,o),
(2018,109,o),
(1940,166,cs),
(1674,359,o),
(1656,787,o),
(1638,1149,cs),
(1632,1264,o),
(1629,1373,o),
(1614,1463,cs),
(1566,1825,o),
(1258,2103,o),
(884,2103,cs),
(649,2103,o),
(401,2003,o),
(244,1735,cs),
(124,1532,o),
(63,1297,o),
(63,1047,cs),
(63,278,o),
(685,-344,o),
(1454,-344,cs)
);
},
{
closed = 1;
nodes = (
(1885,1454,o),
(2012,1584,o),
(2136,1659,c),
(2142,1720,o),
(2148,1783,o),
(2139,1846,cs),
(2094,2247,o),
(1707,2395,o),
(1376,2371,cs),
(1164,2356,o),
(962,2293,o),
(884,2247,c),
(1324,2247,o),
(1698,1919,o),
(1756,1484,cs),
(1762,1433,o),
(1771,1379,o),
(1774,1321,c)
);
},
{
closed = 1;
nodes = (
(2618,712,o),
(2724,772,o),
(2769,869,cs),
(2839,1005,o),
(2854,1186,o),
(2796,1406,cs),
(2679,1843,o),
(2356,2193,o),
(1940,2350,c),
(2100,2281,o),
(2226,2136,o),
(2266,1943,cs),
(2278,1867,o),
(2281,1795,o),
(2278,1720,cs),
(2263,1409,o),
(2133,1116,o),
(2263,869,cs),
(2317,766,o),
(2416,712,o),
(2516,712,cs)
);
}
);
width = 2896;
},
{
layerId = "B1F27B51-9973-4381-9301-4FE46FE1CA59";
shapes = (
{
closed = 1;
nodes = (
(1940,-344,o),
(2368,-94,o),
(2615,284,c),
(2528,160,o),
(2383,78,o),
(2217,78,cs),
(2115,78,o),
(2018,109,o),
(1940,166,cs),
(1674,359,o),
(1656,787,o),
(1638,1149,cs),
(1632,1264,o),
(1629,1373,o),
(1614,1463,cs),
(1566,1825,o),
(1258,2103,o),
(884,2103,cs),
(649,2103,o),
(401,2003,o),
(244,1735,cs),
(124,1532,o),
(63,1297,o),
(63,1047,cs),
(63,278,o),
(685,-344,o),
(1454,-344,cs)
);
},
{
closed = 1;
nodes = (
(1885,1454,o),
(2012,1584,o),
(2136,1659,c),
(2142,1720,o),
(2148,1783,o),
(2139,1846,cs),
(2094,2247,o),
(1707,2395,o),
(1376,2371,cs),
(1164,2356,o),
(962,2293,o),
(884,2247,c),
(1324,2247,o),
(1698,1919,o),
(1756,1484,cs),
(1762,1433,o),
(1771,1379,o),
(1774,1321,c)
);
},
{
closed = 1;
nodes = (
(2618,712,o),
(2724,772,o),
(2769,869,cs),
(2839,1005,o),
(2854,1186,o),
(2796,1406,cs),
(2679,1843,o),
(2356,2193,o),
(1940,2350,c),
(2100,2281,o),
(2226,2136,o),
(2266,1943,cs),
(2278,1867,o),
(2281,1795,o),
(2278,1720,cs),
(2263,1409,o),
(2133,1116,o),
(2263,869,cs),
(2317,766,o),
(2416,712,o),
(2516,712,cs)
);
}
);
width = 2896;
},
{
layerId = "5C20EF92-B63D-42A8-8878-93C2863E0093";
shapes = (
{
closed = 1;
nodes = (
(1940,-344,o),
(2368,-94,o),
(2615,284,c),
(2528,160,o),
(2383,78,o),
(2217,78,cs),
(2115,78,o),
(2018,109,o),
(1940,166,cs),
(1674,359,o),
(1656,787,o),
(1638,1149,cs),
(1632,1264,o),
(1629,1373,o),
(1614,1463,cs),
(1566,1825,o),
(1258,2103,o),
(884,2103,cs),
(649,2103,o),
(401,2003,o),
(244,1735,cs),
(124,1532,o),
(63,1297,o),
(63,1047,cs),
(63,278,o),
(685,-344,o),
(1454,-344,cs)
);
},
{
closed = 1;
nodes = (
(1885,1454,o),
(2012,1584,o),
(2136,1659,c),
(2142,1720,o),
(2148,1783,o),
(2139,1846,cs),
(2094,2247,o),
(1707,2395,o),
(1376,2371,cs),
(1164,2356,o),
(962,2293,o),
(884,2247,c),
(1324,2247,o),
(1698,1919,o),
(1756,1484,cs),
(1762,1433,o),
(1771,1379,o),
(1774,1321,c)
);
},
{
closed = 1;
nodes = (
(2618,712,o),
(2724,772,o),
(2769,869,cs),
(2839,1005,o),
(2854,1186,o),
(2796,1406,cs),
(2679,1843,o),
(2356,2193,o),
(1940,2350,c),
(2100,2281,o),
(2226,2136,o),
(2266,1943,cs),
(2278,1867,o),
(2281,1795,o),
(2278,1720,cs),
(2263,1409,o),
(2133,1116,o),
(2263,869,cs),
(2317,766,o),
(2416,712,o),
(2516,712,cs)
);
}
);
width = 2896;
}
);
metricWidth = symbolBase;
unicode = 1024008;
}
{
color = 11;
glyphname = logoBtcFill;
layers = (
{
layerId = "CD0E3B44-F66A-4791-B84C-A1128DC61275";
shapes = (
{
closed = 1;
nodes = (
(1873,-573,o),
(2658,-100,o),
(2854,676,cs),
(3047,1451,o),
(2573,2238,o),
(1798,2431,cs),
(1023,2625,o),
(238,2151,o),
(42,1376,cs),
(-151,600,o),
(323,-187,o),
(1098,-380,cs)
);
},
{
closed = 1;
nodes = (
(1394,612,o),
(1677,543,o),
(1723,724,cs),
(1771,908,o),
(1496,968,o),
(1361,999,cs),
(1321,1008,l),
(1234,661,l),
(1264,652,ls)
);
},
{
closed = 1;
nodes = (
(1246,175,l),
(1309,434,l),
(1183,468,l),
(1116,208,l),
(959,247,l),
(1026,510,l),
(902,543,o),
(830,561,o),
(706,591,c),
(784,772,l),
(899,745,ls),
(944,733,o),
(965,763,o),
(971,781,cs),
(1149,1496,ls),
(1158,1529,o),
(1140,1575,o),
(1077,1590,cs),
(959,1617,l),
(1002,1789,l),
(1324,1707,l),
(1388,1970,l),
(1548,1931,l),
(1484,1674,l),
(1611,1644,l),
(1674,1897,l),
(1834,1858,l),
(1768,1599,l),
(1970,1529,o),
(2115,1424,o),
(2088,1231,cs),
(2066,1092,o),
(1988,1023,o),
(1882,999,c),
(2027,923,o),
(2100,811,o),
(2030,612,cs),
(1943,368,o),
(1741,347,o),
(1469,398,c),
(1403,136,l)
);
},
{
closed = 1;
nodes = (
(1496,1134,o),
(1732,1071,o),
(1774,1234,cs),
(1813,1403,o),
(1587,1454,o),
(1469,1481,cs),
(1442,1487,l),
(1361,1170,l),
(1394,1161,ls)
);
}
);
width = 2896;
},
{
layerId = "B1F27B51-9973-4381-9301-4FE46FE1CA59";
shapes = (
{
closed = 1;
nodes = (
(1873,-573,o),
(2658,-100,o),
(2854,676,cs),
(3047,1451,o),
(2573,2238,o),
(1798,2431,cs),
(1023,2625,o),
(238,2151,o),
(42,1376,cs),
(-151,600,o),
(323,-187,o),
(1098,-380,cs)
);
},
{
closed = 1;
nodes = (
(1394,612,o),
(1677,543,o),
(1723,724,cs),
(1771,908,o),
(1496,968,o),
(1361,999,cs),
(1321,1008,l),
(1234,661,l),
(1264,652,ls)
);
},
{
closed = 1;
nodes = (
(1246,175,l),
(1309,434,l),
(1183,468,l),
(1116,208,l),
(959,247,l),
(1026,510,l),
(902,543,o),
(830,561,o),
(706,591,c),
(784,772,l),
(899,745,ls),
(944,733,o),
(965,763,o),
(971,781,cs),
(1149,1496,ls),
(1158,1529,o),
(1140,1575,o),
(1077,1590,cs),
(959,1617,l),
(1002,1789,l),
(1324,1707,l),
(1388,1970,l),
(1548,1931,l),
(1484,1674,l),
(1611,1644,l),
(1674,1897,l),
(1834,1858,l),
(1768,1599,l),
(1970,1529,o),
(2115,1424,o),
(2088,1231,cs),
(2066,1092,o),
(1988,1023,o),
(1882,999,c),
(2027,923,o),
(2100,811,o),
(2030,612,cs),
(1943,368,o),
(1741,347,o),
(1469,398,c),
(1403,136,l)
);
},
{
closed = 1;
nodes = (
(1496,1134,o),
(1732,1071,o),
(1774,1234,cs),
(1813,1403,o),
(1587,1454,o),
(1469,1481,cs),
(1442,1487,l),
(1361,1170,l),
(1394,1161,ls)
);
}
);
width = 2896;
},
{
layerId = "5C20EF92-B63D-42A8-8878-93C2863E0093";
shapes = (
{
closed = 1;
nodes = (
(1873,-573,o),
(2658,-100,o),
(2854,676,cs),
(3047,1451,o),
(2573,2238,o),
(1798,2431,cs),
(1023,2625,o),
(238,2151,o),
(42,1376,cs),
(-151,600,o),
(323,-187,o),
(1098,-380,cs)
);
},
{
closed = 1;
nodes = (
(1394,612,o),
(1677,543,o),
(1723,724,cs),
(1771,908,o),
(1496,968,o),
(1361,999,cs),
(1321,1008,l),
(1234,661,l),
(1264,652,ls)
);
},
{
closed = 1;
nodes = (
(1246,175,l),
(1309,434,l),
(1183,468,l),
(1116,208,l),
(959,247,l),
(1026,510,l),
(902,543,o),
(830,561,o),
(706,591,c),
(784,772,l),
(899,745,ls),
(944,733,o),
(965,763,o),
(971,781,cs),
(1149,1496,ls),
(1158,1529,o),
(1140,1575,o),
(1077,1590,cs),
(959,1617,l),
(1002,1789,l),
(1324,1707,l),
(1388,1970,l),
(1548,1931,l),
(1484,1674,l),
(1611,1644,l),
(1674,1897,l),
(1834,1858,l),
(1768,1599,l),
(1970,1529,o),
(2115,1424,o),
(2088,1231,cs),
(2066,1092,o),
(1988,1023,o),
(1882,999,c),
(2027,923,o),
(2100,811,o),
(2030,612,cs),
(1943,368,o),
(1741,347,o),
(1469,398,c),
(1403,136,l)
);
},
{
closed = 1;
nodes = (
(1496,1134,o),
(1732,1071,o),
(1774,1234,cs),
(1813,1403,o),
(1587,1454,o),
(1469,1481,cs),
(1442,1487,l),
(1361,1170,l),
(1394,1161,ls)
);
}
);
width = 2896;
}
);
metricWidth = symbolBase;
unicode = 1024013;
}
{
color = 11;
glyphname = logoKleva;
layers = (
{
layerId = "CD0E3B44-F66A-4791-B84C-A1128DC61275";
shapes = (
{
closed = 1;
nodes = (
(2579,-97,ls),
(2591,-97,o),
(2600,-81,o),
(2594,-69,cs),
(2263,498,ls),
(2256,510,o),
(2241,510,o),
(2232,501,cs),
(1882,121,ls),
(1873,112,o),
(1861,121,o),
(1867,130,cs),
(2603,1385,l),
(2606,1394,o),
(2606,1406,o),
(2603,1415,c),
(2187,2121,ls),
(2181,2133,o),
(2163,2133,o),
(2157,2121,cs),
(1303,667,ls),
(1297,658,o),
(1297,646,o),
(1303,637,cs),
(1726,-81,ls),
(1732,-90,o),
(1741,-97,o),
(1750,-97,cs)
);
},
{
closed = 1;
nodes = (
(715,-81,o),
(733,-81,o),
(739,-69,cs),
(1593,1385,ls),
(1599,1394,o),
(1599,1406,o),
(1593,1415,cs),
(1170,2133,ls),
(1164,2142,o),
(1155,2148,o),
(1146,2148,cs),
(317,2148,ls),
(305,2148,o),
(296,2133,o),
(302,2121,cs),
(634,1554,ls),
(640,1542,o),
(658,1542,o),
(664,1551,c),
(1014,1934,l),
(1023,1940,o),
(1035,1931,o),
(1029,1922,cs),
(293,667,l),
(290,658,o),
(290,646,o),
(293,637,c),
(709,-69,ls)
);
}
);
width = 2896;
},
{
layerId = "B1F27B51-9973-4381-9301-4FE46FE1CA59";
shapes = (
{
closed = 1;
nodes = (
(2579,-97,ls),
(2591,-97,o),
(2600,-81,o),
(2594,-69,cs),
(2263,498,ls),
(2256,510,o),
(2241,510,o),
(2232,501,cs),
(1882,121,ls),
(1873,112,o),
(1861,121,o),
(1867,130,cs),
(2603,1385,l),
(2606,1394,o),
(2606,1406,o),
(2603,1415,c),
(2187,2121,ls),
(2181,2133,o),
(2163,2133,o),
(2157,2121,cs),
(1303,667,ls),
(1297,658,o),
(1297,646,o),
(1303,637,cs),
(1726,-81,ls),
(1732,-90,o),
(1741,-97,o),
(1750,-97,cs)
);
},
{
closed = 1;
nodes = (
(715,-81,o),
(733,-81,o),
(739,-69,cs),
(1593,1385,ls),
(1599,1394,o),
(1599,1406,o),
(1593,1415,cs),
(1170,2133,ls),
(1164,2142,o),
(1155,2148,o),
(1146,2148,cs),
(317,2148,ls),
(305,2148,o),
(296,2133,o),
(302,2121,cs),
(634,1554,ls),
(640,1542,o),
(658,1542,o),
(664,1551,c),
(1014,1934,l),
(1023,1940,o),
(1035,1931,o),
(1029,1922,cs),
(293,667,l),
(290,658,o),
(290,646,o),
(293,637,c),
(709,-69,ls)
);
}
);
width = 2896;
},
{
layerId = "5C20EF92-B63D-42A8-8878-93C2863E0093";
shapes = (
{
closed = 1;
nodes = (
(2579,-97,ls),
(2591,-97,o),
(2600,-81,o),
(2594,-69,cs),
(2263,498,ls),
(2256,510,o),
(2241,510,o),
(2232,501,cs),
(1882,121,ls),
(1873,112,o),
(1861,121,o),
(1867,130,cs),
(2603,1385,l),
(2606,1394,o),
(2606,1406,o),
(2603,1415,c),
(2187,2121,ls),
(2181,2133,o),
(2163,2133,o),
(2157,2121,cs),
(1303,667,ls),
(1297,658,o),
(1297,646,o),
(1303,637,cs),
(1726,-81,ls),
(1732,-90,o),
(1741,-97,o),
(1750,-97,cs)
);
},
{
closed = 1;
nodes = (
(715,-81,o),
(733,-81,o),
(739,-69,cs),
(1593,1385,ls),
(1599,1394,o),
(1599,1406,o),
(1593,1415,cs),
(1170,2133,ls),
(1164,2142,o),
(1155,2148,o),
(1146,2148,cs),
(317,2148,ls),
(305,2148,o),
(296,2133,o),
(302,2121,cs),
(634,1554,ls),
(640,1542,o),
(658,1542,o),
(664,1551,c),
(1014,1934,l),
(1023,1940,o),
(1035,1931,o),
(1029,1922,cs),
(293,667,l),
(290,658,o),
(290,646,o),
(293,637,c),
(709,-69,ls)
);
}
);
width = 2896;
}
);
metricWidth = symbolBase;
unicode = 1024016;
}
{
color = 11;
glyphname = logoRft;
layers = (
{
layerId = "CD0E3B44-F66A-4791-B84C-A1128DC61275";
shapes = (
{
closed = 1;
nodes = (
(1445,-449,o),
(1738,-422,o),
(2003,-311,cs),
(2266,-202,o),
(2492,-18,o),
(2652,220,cs),
(2812,459,o),
(2896,739,o),
(2896,1026,cs),
(2896,1409,o),
(2742,1777,o),
(2471,2048,cs),
(2199,2320,o),
(1831,2474,o),
(1448,2474,cs),
(1161,2474,o),
(881,2389,o),
(643,2229,cs),
(404,2069,o),
(220,1843,o),
(112,1581,cs),
(0,1315,o),
(-27,1026,o),
(27,742,cs),
(84,462,o),
(220,205,o),
(425,3,cs),
(627,-199,o),
(884,-338,o),
(1164,-395,cs)
);
},
{
closed = 1;
nodes = (
(510,425,l),
(142,1222,l),
(133,1180,o),
(130,1137,o),
(127,1092,c),
(437,425,l)
);
},
{
closed = 1;
nodes = (
(893,425,l),
(208,1487,l),
(181,1406,l),
(815,425,l)
);
},
{
closed = 1;
nodes = (
(570,2012,l),
(552,1997,o),
(537,1982,o),
(519,1964,c),
(552,1551,l),
(612,1508,l)
);
},
{
closed = 1;
nodes = (
(923,2238,l),
(866,2211,l),
(818,1364,l),
(872,1327,l)
);
},
{
closed = 1;
nodes = (
(262,362,o),
(244,392,o),
(229,425,cs),
(136,612,o),
(87,821,o),
(87,1032,cs),
(91,1243,o),
(139,1451,o),
(235,1638,c),
(1258,437,l),
(1376,824,l),
(272,1704,l),
(359,1861,o),
(480,1997,o),
(621,2106,cs),
(763,2214,o),
(926,2296,o),
(1098,2341,cs),
(1273,2386,o),
(1454,2398,o),
(1632,2374,cs),
(1810,2350,o),
(1979,2290,o),
(2136,2199,cs),
(2290,2109,o),
(2425,1988,o),
(2534,1846,cs),
(2643,1704,o),
(2721,1539,o),
(2763,1367,cs),
(2809,1192,o),
(2821,1011,o),
(2793,836,cs),
(2769,658,o),
(2709,486,o),
(2615,332,c),
(281,332,l)
);
},
{
closed = 1;
nodes = (
(1321,2341,l),
(1303,2341,o),
(1282,2338,o),
(1264,2335,c),
(1041,1210,l),
(1092,1173,l)
);
},
{
closed = 1;
nodes = (
(1665,425,l),
(2320,1131,l),
(2576,1128,l),
(2374,1771,l),
(1436,1131,l),
(1750,1131,l),
(1279,425,l)
);
},
{
closed = 1;
nodes = (
(2763,1164,l),
(2754,1231,l),
(2618,1119,l),
(2628,1092,l),
(2582,1092,l),
(1792,459,l),
(1810,434,l),
(1843,425,l)
);
},
{
closed = 1;
nodes = (
(1294,1065,l),
(1732,2317,l),
(1713,2323,o),
(1692,2326,o),
(1674,2329,c),
(1237,1071,l),
(1270,1050,l)
);
},
{
closed = 1;
nodes = (
(1680,1333,l),
(2109,2169,l),
(2094,2178,o),
(2078,2187,o),
(2060,2196,c),
(1581,1264,l)
);
},
{
closed = 1;
nodes = (
(2655,1569,l),
(2628,1623,l),
(2501,1490,l),
(2522,1427,l)
);
},
{
closed = 1;
nodes = (
(2344,1795,l),
(2428,1913,l),
(2413,1928,o),
(2401,1940,o),
(2389,1955,c),
(2208,1701,l)
);
}
);
width = 2896;
},
{
layerId = "B1F27B51-9973-4381-9301-4FE46FE1CA59";
shapes = (
{
closed = 1;
nodes = (
(1445,-449,o),
(1738,-422,o),
(2003,-311,cs),
(2266,-202,o),
(2492,-18,o),
(2652,220,cs),
(2812,459,o),
(2896,739,o),
(2896,1026,cs),
(2896,1409,o),
(2742,1777,o),
(2471,2048,cs),
(2199,2320,o),
(1831,2474,o),
(1448,2474,cs),
(1161,2474,o),
(881,2389,o),
(643,2229,cs),
(404,2069,o),
(220,1843,o),
(112,1581,cs),
(0,1315,o),
(-27,1026,o),
(27,742,cs),
(84,462,o),
(220,205,o),
(425,3,cs),
(627,-199,o),
(884,-338,o),
(1164,-395,cs)
);
},
{
closed = 1;
nodes = (
(510,425,l),
(142,1222,l),
(133,1180,o),
(130,1137,o),
(127,1092,c),
(437,425,l)
);
},
{
closed = 1;
nodes = (
(893,425,l),
(208,1487,l),
(181,1406,l),
(815,425,l)
);
},
{
closed = 1;
nodes = (
(570,2012,l),
(552,1997,o),
(537,1982,o),
(519,1964,c),
(552,1551,l),
(612,1508,l)
);
},
{
closed = 1;
nodes = (
(923,2238,l),
(866,2211,l),
(818,1364,l),
(872,1327,l)
);
},
{
closed = 1;
nodes = (
(262,362,o),
(244,392,o),
(229,425,cs),
(136,612,o),
(87,821,o),
(87,1032,cs),
(91,1243,o),
(139,1451,o),
(235,1638,c),
(1258,437,l),
(1376,824,l),
(272,1704,l),
(359,1861,o),
(480,1997,o),
(621,2106,cs),
(763,2214,o),
(926,2296,o),
(1098,2341,cs),
(1273,2386,o),
(1454,2398,o),
(1632,2374,cs),
(1810,2350,o),
(1979,2290,o),
(2136,2199,cs),
(2290,2109,o),
(2425,1988,o),
(2534,1846,cs),
(2643,1704,o),
(2721,1539,o),
(2763,1367,cs),
(2809,1192,o),
(2821,1011,o),
(2793,836,cs),
(2769,658,o),
(2709,486,o),
(2615,332,c),
(281,332,l)
);
},
{
closed = 1;
nodes = (
(1321,2341,l),
(1303,2341,o),
(1282,2338,o),
(1264,2335,c),
(1041,1210,l),
(1092,1173,l)
);
},
{
closed = 1;
nodes = (
(1665,425,l),
(2320,1131,l),
(2576,1128,l),
(2374,1771,l),
(1436,1131,l),
(1750,1131,l),
(1279,425,l)
);
},
{
closed = 1;
nodes = (
(2763,1164,l),
(2754,1231,l),
(2618,1119,l),
(2628,1092,l),
(2582,1092,l),
(1792,459,l),
(1810,434,l),
(1843,425,l)
);
},
{
closed = 1;
nodes = (
(1294,1065,l),
(1732,2317,l),
(1713,2323,o),
(1692,2326,o),
(1674,2329,c),
(1237,1071,l),
(1270,1050,l)
);
},
{
closed = 1;
nodes = (
(1680,1333,l),
(2109,2169,l),
(2094,2178,o),
(2078,2187,o),
(2060,2196,c),
(1581,1264,l)
);
},
{
closed = 1;
nodes = (
(2655,1569,l),
(2628,1623,l),
(2501,1490,l),
(2522,1427,l)
);
},
{
closed = 1;
nodes = (
(2344,1795,l),
(2428,1913,l),
(2413,1928,o),
(2401,1940,o),
(2389,1955,c),
(2208,1701,l)
);
}
);
width = 2896;
},
{
layerId = "5C20EF92-B63D-42A8-8878-93C2863E0093";
shapes = (
{
closed = 1;
nodes = (
(1445,-449,o),
(1738,-422,o),
(2003,-311,cs),
(2266,-202,o),
(2492,-18,o),
(2652,220,cs),
(2812,459,o),
(2896,739,o),
(2896,1026,cs),
(2896,1409,o),
(2742,1777,o),
(2471,2048,cs),
(2199,2320,o),
(1831,2474,o),
(1448,2474,cs),
(1161,2474,o),
(881,2389,o),
(643,2229,cs),
(404,2069,o),
(220,1843,o),
(112,1581,cs),
(0,1315,o),
(-27,1026,o),
(27,742,cs),
(84,462,o),
(220,205,o),
(425,3,cs),
(627,-199,o),
(884,-338,o),
(1164,-395,cs)
);
},
{
closed = 1;
nodes = (
(510,425,l),
(142,1222,l),
(133,1180,o),
(130,1137,o),
(127,1092,c),
(437,425,l)
);
},
{
closed = 1;
nodes = (
(893,425,l),
(208,1487,l),
(181,1406,l),
(815,425,l)
);
},
{
closed = 1;
nodes = (
(570,2012,l),
(552,1997,o),
(537,1982,o),
(519,1964,c),
(552,1551,l),
(612,1508,l)
);
},
{
closed = 1;
nodes = (
(923,2238,l),
(866,2211,l),
(818,1364,l),
(872,1327,l)
);
},
{
closed = 1;
nodes = (
(262,362,o),
(244,392,o),
(229,425,cs),
(136,612,o),
(87,821,o),
(87,1032,cs),
(91,1243,o),
(139,1451,o),
(235,1638,c),
(1258,437,l),
(1376,824,l),
(272,1704,l),
(359,1861,o),
(480,1997,o),
(621,2106,cs),
(763,2214,o),
(926,2296,o),
(1098,2341,cs),
(1273,2386,o),
(1454,2398,o),
(1632,2374,cs),
(1810,2350,o),
(1979,2290,o),
(2136,2199,cs),
(2290,2109,o),
(2425,1988,o),
(2534,1846,cs),
(2643,1704,o),
(2721,1539,o),
(2763,1367,cs),
(2809,1192,o),
(2821,1011,o),
(2793,836,cs),
(2769,658,o),
(2709,486,o),
(2615,332,c),
(281,332,l)
);
},
{
closed = 1;
nodes = (
(1321,2341,l),
(1303,2341,o),
(1282,2338,o),
(1264,2335,c),
(1041,1210,l),
(1092,1173,l)
);
},
{
closed = 1;
nodes = (
(1665,425,l),
(2320,1131,l),
(2576,1128,l),
(2374,1771,l),
(1436,1131,l),
(1750,1131,l),
(1279,425,l)
);
},
{
closed = 1;
nodes = (
(2763,1164,l),
(2754,1231,l),
(2618,1119,l),
(2628,1092,l),
(2582,1092,l),
(1792,459,l),
(1810,434,l),
(1843,425,l)
);
},
{
closed = 1;
nodes = (
(1294,1065,l),
(1732,2317,l),
(1713,2323,o),
(1692,2326,o),
(1674,2329,c),
(1237,1071,l),
(1270,1050,l)
);
},
{
closed = 1;
nodes = (
(1680,1333,l),
(2109,2169,l),
(2094,2178,o),
(2078,2187,o),
(2060,2196,c),
(1581,1264,l)
);
},
{
closed = 1;
nodes = (
(2655,1569,l),
(2628,1623,l),
(2501,1490,l),
(2522,1427,l)
);
},
{
closed = 1;
nodes = (
(2344,1795,l),
(2428,1913,l),
(2413,1928,o),
(2401,1940,o),
(2389,1955,c),
(2208,1701,l)
);
}
);
width = 2896;
}
);
metricWidth = symbolBase;
unicode = 1024018;
}
{
color = 11;
glyphname = iconArrowClockwise;
layers = (
{
layerId = "CD0E3B44-F66A-4791-B84C-A1128DC61275";
shapes = (
{
closed = 1;
nodes = (
(1795,-181,o),
(2103,-39,o),
(2323,190,cs),
(2380,247,o),
(2431,314,o),
(2474,383,cs),
(2510,437,o),
(2492,513,o),
(2434,549,cs),
(2380,585,o),
(2305,567,o),
(2269,510,cs),
(2235,456,o),
(2193,404,o),
(2148,356,cs),
(1973,175,o),
(1726,60,o),
(1454,60,cs),
(920,60,o),
(489,492,o),
(489,1026,cs),
(489,1560,o),
(920,1991,o),
(1454,1991,cs),
(1707,1991,o),
(1940,1891,o),
(2112,1732,cs),
(2211,1638,o),
(2290,1523,o),
(2344,1397,cs),
(2371,1336,o),
(2440,1306,o),
(2501,1333,cs),
(2564,1358,o),
(2591,1427,o),
(2567,1490,cs),
(2501,1650,o),
(2401,1792,o),
(2278,1907,cs),
(2060,2109,o),
(1771,2232,o),
(1454,2232,cs),
(787,2232,o),
(247,1692,o),
(247,1026,cs),
(247,359,o),
(787,-181,o),
(1454,-181,cs)
);
},
{
closed = 1;
nodes = (
(2594,1267,ls),
(2661,1267,o),
(2715,1321,o),
(2715,1388,cs),
(2715,1750,ls),
(2715,1816,o),
(2661,1870,o),
(2594,1870,cs),
(2528,1870,o),
(2474,1816,o),
(2474,1750,cs),
(2474,1508,l),
(2232,1508,ls),
(2166,1508,o),
(2112,1454,o),
(2112,1388,cs),
(2112,1321,o),
(2166,1267,o),
(2232,1267,cs)
);
}
);
width = 2896;
},
{
layerId = "B1F27B51-9973-4381-9301-4FE46FE1CA59";
shapes = (
{
closed = 1;
nodes = (
(1774,-112,o),
(2066,24,o),
(2275,238,cs),
(2323,293,o),
(2371,356,o),
(2413,419,cs),
(2428,443,o),
(2422,474,o),
(2398,489,cs),
(2374,504,o),
(2344,498,o),
(2329,474,cs),
(2293,413,o),
(2250,359,o),
(2199,311,cs),
(2012,112,o),
(1747,-9,o),
(1454,-9,cs),
(881,-9,o),
(419,453,o),
(419,1026,cs),
(419,1599,o),
(881,2060,o),
(1454,2060,cs),
(1726,2060,o),
(1976,1955,o),
(2160,1780,cs),
(2269,1683,o),
(2353,1563,o),
(2407,1424,cs),
(2419,1400,o),
(2447,1388,o),
(2477,1397,cs),
(2501,1406,o),
(2513,1436,o),
(2501,1463,cs),
(2437,1611,o),
(2344,1747,o),
(2229,1858,cs),
(2024,2045,o),
(1753,2163,o),
(1454,2163,cs),
(827,2163,o),
(317,1653,o),
(317,1026,cs),
(317,398,o),
(827,-112,o),
(1454,-112,cs)
);
},
{
closed = 1;
nodes = (
(2594,1336,ls),
(2621,1336,o),
(2646,1361,o),
(2646,1388,cs),
(2646,1750,ls),
(2646,1777,o),
(2621,1801,o),
(2594,1801,cs),
(2567,1801,o),
(2543,1777,o),
(2543,1750,cs),
(2543,1439,l),
(2232,1439,ls),
(2205,1439,o),
(2181,1415,o),
(2181,1388,cs),
(2181,1361,o),
(2205,1336,o),
(2232,1336,cs)
);
}
);
width = 2896;
},
{
layerId = "5C20EF92-B63D-42A8-8878-93C2863E0093";
shapes = (
{
closed = 1;
nodes = (
(1813,-244,o),
(2139,-94,o),
(2371,145,cs),
(2428,208,o),
(2483,275,o),
(2528,347,cs),
(2585,434,o),
(2555,549,o),
(2471,603,cs),
(2383,658,o),
(2269,630,o),
(2214,546,cs),
(2184,495,o),
(2145,446,o),
(2103,401,cs),
(1937,229,o),
(1710,124,o),
(1454,124,cs),
(956,124,o),
(552,528,o),
(552,1026,cs),
(552,1523,o),
(956,1928,o),
(1454,1928,cs),
(1692,1928,o),
(1907,1834,o),
(2066,1683,cs),
(2160,1596,o),
(2235,1490,o),
(2287,1370,cs),
(2323,1279,o),
(2431,1231,o),
(2528,1273,cs),
(2621,1312,o),
(2667,1421,o),
(2625,1517,cs),
(2555,1683,o),
(2450,1834,o),
(2320,1955,cs),
(2094,2166,o),
(1786,2296,o),
(1454,2296,cs),
(751,2296,o),
(184,1729,o),
(184,1026,cs),
(184,323,o),
(751,-244,o),
(1454,-244,cs)
);
},
{
closed = 1;
nodes = (
(2594,1204,ls),
(2697,1204,o),
(2778,1285,o),
(2778,1388,cs),
(2778,1750,ls),
(2778,1852,o),
(2697,1934,o),
(2594,1934,cs),
(2492,1934,o),
(2410,1852,o),
(2410,1750,cs),
(2410,1572,l),
(2232,1572,ls),
(2130,1572,o),
(2048,1490,o),
(2048,1388,cs),
(2048,1285,o),
(2130,1204,o),
(2232,1204,cs)
);
}
);
width = 2896;
}
);
metricWidth = symbolBase;
unicode = 1024024;
}
{
color = 11;
glyphname = iconArrowClockwiseNumber;
layers = (
{
layerId = "CD0E3B44-F66A-4791-B84C-A1128DC61275";
shapes = (
{
closed = 1;
nodes = (
(1795,-181,o),
(2103,-39,o),
(2323,190,cs),
(2380,247,o),
(2431,314,o),
(2474,383,cs),
(2510,437,o),
(2492,513,o),
(2434,549,cs),
(2380,585,o),
(2305,567,o),
(2269,510,cs),
(2235,456,o),
(2193,404,o),
(2148,356,cs),
(1973,175,o),
(1726,60,o),
(1454,60,cs),
(920,60,o),
(489,492,o),
(489,1026,cs),
(489,1560,o),
(920,1991,o),
(1454,1991,cs),
(1707,1991,o),
(1940,1891,o),
(2112,1732,cs),
(2211,1638,o),
(2290,1523,o),
(2344,1397,cs),
(2371,1336,o),
(2440,1306,o),
(2501,1333,cs),
(2564,1358,o),
(2591,1427,o),
(2567,1490,cs),
(2501,1650,o),
(2401,1792,o),
(2278,1907,cs),
(2060,2109,o),
(1771,2232,o),
(1454,2232,cs),
(787,2232,o),
(247,1692,o),
(247,1026,cs),
(247,359,o),
(787,-181,o),
(1454,-181,cs)
);
},
{
closed = 1;
nodes = (
(1282,591,o),
(1400,736,o),
(1400,986,cs),
(1400,1237,o),
(1282,1382,o),
(1089,1382,cs),
(899,1382,o),
(781,1240,o),
(781,986,cs),
(781,736,o),
(899,591,o),
(1089,591,cs)
);
},
{
closed = 1;
nodes = (
(1002,724,o),
(944,811,o),
(944,986,cs),
(944,1161,o),
(1002,1252,o),
(1089,1252,cs),
(1180,1252,o),
(1234,1161,o),
(1234,986,cs),
(1237,811,o),
(1180,724,o),
(1089,724,cs)
);
},
{
closed = 1;
nodes = (
(2000,591,o),
(2115,736,o),
(2115,986,cs),
(2115,1237,o),
(2000,1382,o),
(1807,1382,cs),
(1614,1382,o),
(1499,1240,o),
(1499,986,cs),
(1499,736,o),
(1614,591,o),
(1807,591,cs)
);
},
{
closed = 1;
nodes = (
(1716,724,o),
(1659,811,o),
(1662,986,cs),
(1662,1161,o),
(1716,1252,o),
(1807,1252,cs),
(1894,1252,o),
(1952,1161,o),
(1952,986,cs),
(1952,811,o),
(1894,724,o),
(1807,724,cs)
);
},
{
closed = 1;
nodes = (
(2594,1267,ls),
(2661,1267,o),
(2715,1321,o),
(2715,1388,cs),
(2715,1750,ls),
(2715,1816,o),
(2661,1870,o),
(2594,1870,cs),
(2528,1870,o),
(2474,1816,o),
(2474,1750,cs),
(2474,1508,l),
(2232,1508,ls),
(2166,1508,o),
(2112,1454,o),
(2112,1388,cs),
(2112,1321,o),
(2166,1267,o),
(2232,1267,cs)
);
}
);
width = 2896;
},
{
layerId = "B1F27B51-9973-4381-9301-4FE46FE1CA59";
shapes = (
{
closed = 1;
nodes = (
(1774,-112,o),
(2066,24,o),
(2275,238,cs),
(2323,293,o),
(2371,356,o),
(2413,419,cs),
(2428,443,o),
(2422,474,o),
(2398,489,cs),
(2374,504,o),
(2344,498,o),
(2329,474,cs),
(2293,413,o),
(2250,359,o),
(2199,311,cs),
(2012,112,o),
(1747,-9,o),
(1454,-9,cs),
(881,-9,o),
(419,453,o),
(419,1026,cs),
(419,1599,o),
(881,2060,o),
(1454,2060,cs),
(1726,2060,o),
(1976,1955,o),
(2160,1780,cs),
(2269,1683,o),
(2353,1563,o),
(2407,1424,cs),
(2419,1400,o),
(2447,1388,o),
(2477,1397,cs),
(2501,1406,o),
(2513,1436,o),
(2501,1463,cs),
(2437,1611,o),
(2344,1747,o),
(2229,1858,cs),
(2024,2045,o),
(1753,2163,o),
(1454,2163,cs),
(827,2163,o),
(317,1653,o),
(317,1026,cs),
(317,398,o),
(827,-112,o),
(1454,-112,cs)
);
},
{
closed = 1;
nodes = (
(1291,588,o),
(1394,733,o),
(1394,986,cs),
(1394,1237,o),
(1288,1382,o),
(1116,1382,cs),
(941,1382,o),
(836,1237,o),
(836,986,cs),
(836,733,o),
(938,588,o),
(1116,588,cs)
);
},
{
closed = 1;
nodes = (
(1008,688,o),
(947,793,o),
(947,986,cs),
(947,1183,o),
(1011,1288,o),
(1116,1288,cs),
(1222,1288,o),
(1285,1183,o),
(1285,986,cs),
(1285,793,o),
(1222,688,o),
(1116,688,cs)
);
},
{
closed = 1;
nodes = (
(1958,588,o),
(2060,733,o),
(2060,986,cs),
(2060,1237,o),
(1955,1382,o),
(1780,1382,cs),
(1608,1382,o),
(1502,1237,o),
(1502,986,cs),
(1502,733,o),
(1605,588,o),
(1780,588,cs)
);
},
{
closed = 1;
nodes = (
(1674,688,o),
(1611,793,o),
(1611,986,cs),
(1611,1183,o),
(1674,1288,o),
(1780,1288,cs),
(1885,1288,o),
(1949,1183,o),
(1949,986,cs),
(1949,793,o),
(1888,688,o),
(1780,688,cs)
);
},
{
closed = 1;
nodes = (
(2594,1336,ls),
(2621,1336,o),
(2646,1361,o),
(2646,1388,cs),
(2646,1750,ls),
(2646,1777,o),
(2621,1801,o),
(2594,1801,cs),
(2567,1801,o),
(2543,1777,o),
(2543,1750,cs),
(2543,1439,l),
(2232,1439,ls),
(2205,1439,o),
(2181,1415,o),
(2181,1388,cs),
(2181,1361,o),
(2205,1336,o),
(2232,1336,cs)
);
}
);
width = 2896;
},
{
layerId = "5C20EF92-B63D-42A8-8878-93C2863E0093";
shapes = (
{
closed = 1;
nodes = (
(1813,-244,o),
(2139,-94,o),
(2371,145,cs),
(2428,208,o),
(2483,275,o),
(2528,347,cs),
(2585,434,o),
(2555,549,o),
(2471,603,cs),
(2383,658,o),
(2269,630,o),
(2214,546,cs),
(2184,495,o),
(2145,446,o),
(2103,401,cs),
(1937,229,o),
(1710,124,o),
(1454,124,cs),
(956,124,o),
(552,528,o),
(552,1026,cs),
(552,1523,o),
(956,1928,o),
(1454,1928,cs),
(1692,1928,o),
(1907,1834,o),
(2066,1683,cs),
(2160,1596,o),
(2235,1490,o),
(2287,1370,cs),
(2323,1279,o),
(2431,1231,o),
(2528,1273,cs),
(2621,1312,o),
(2667,1421,o),
(2625,1517,cs),
(2555,1683,o),
(2450,1834,o),
(2320,1955,cs),
(2094,2166,o),
(1786,2296,o),
(1454,2296,cs),
(751,2296,o),
(184,1729,o),
(184,1026,cs),
(184,323,o),
(751,-244,o),
(1454,-244,cs)
);
},
{
closed = 1;
nodes = (
(1291,658,o),
(1406,784,o),
(1406,1005,cs),
(1406,1228,o),
(1291,1354,o),
(1110,1354,cs),
(926,1354,o),
(811,1231,o),
(811,1005,cs),
(811,784,o),
(926,658,o),
(1110,658,cs)
);
},
{
closed = 1;
nodes = (
(1047,802,o),
(999,863,o),
(999,1005,cs),
(1002,1146,o),
(1047,1210,o),
(1110,1210,cs),
(1173,1210,o),
(1222,1146,o),
(1222,1005,cs),
(1219,863,o),
(1173,802,o),
(1110,802,cs)
);
},
{
closed = 1;
nodes = (
(1970,658,o),
(2085,784,o),
(2085,1005,cs),
(2085,1228,o),
(1970,1354,o),
(1789,1354,cs),
(1605,1354,o),
(1490,1231,o),
(1490,1005,cs),
(1490,784,o),
(1605,658,o),
(1789,658,cs)
);
},
{
closed = 1;
nodes = (
(1723,802,o),
(1677,863,o),
(1674,1005,cs),
(1680,1146,o),
(1723,1210,o),
(1789,1210,cs),
(1849,1210,o),
(1897,1146,o),
(1897,1005,cs),
(1897,863,o),
(1849,802,o),
(1789,802,cs)
);
},
{
closed = 1;
nodes = (
(2594,1204,ls),
(2697,1204,o),
(2778,1285,o),
(2778,1388,cs),
(2778,1750,ls),
(2778,1852,o),
(2697,1934,o),
(2594,1934,cs),
(2492,1934,o),
(2410,1852,o),
(2410,1750,cs),
(2410,1572,l),
(2232,1572,ls),
(2130,1572,o),
(2048,1490,o),
(2048,1388,cs),
(2048,1285,o),
(2130,1204,o),
(2232,1204,cs)
);
}
);
width = 2896;
}
);
metricWidth = symbolBase;
unicode = 1024025;
}
{
color = 11;
glyphname = iconArrowDown;
layers = (
{
layerId = "CD0E3B44-F66A-4791-B84C-A1128DC61275";
shapes = (
{
closed = 1;
nodes = (
(1409,109,o),
(1487,109,o),
(1532,157,cs),
(2386,1011,ls),
(2434,1056,o),
(2434,1134,o),
(2386,1180,cs),
(2341,1228,o),
(2263,1228,o),
(2217,1180,cs),
(1569,534,l),
(1569,1810,ls),
(1569,1876,o),
(1514,1931,o),
(1448,1931,cs),
(1382,1931,o),
(1327,1876,o),
(1327,1810,cs),
(1327,534,l),
(679,1180,ls),
(634,1228,o),
(558,1228,o),
(510,1180,cs),
(462,1134,o),
(462,1056,o),
(510,1011,cs),
(1364,157,ls)
);
}
);
width = 2896;
},
{
layerId = "B1F27B51-9973-4381-9301-4FE46FE1CA59";
shapes = (
{
closed = 1;
nodes = (
(1433,187,o),
(1463,187,o),
(1484,205,cs),
(2338,1059,ls),
(2356,1080,o),
(2356,1110,o),
(2338,1131,cs),
(2317,1149,o),
(2287,1149,o),
(2266,1131,cs),
(1499,362,l),
(1499,1810,ls),
(1499,1837,o),
(1475,1861,o),
(1448,1861,cs),
(1421,1861,o),
(1397,1837,o),
(1397,1810,cs),
(1397,362,l),
(630,1131,ls),
(612,1149,o),
(579,1149,o),
(558,1131,cs),
(540,1110,o),
(540,1080,o),
(558,1059,cs),
(1412,205,ls)
);
}
);
width = 2896;
},
{
layerId = "5C20EF92-B63D-42A8-8878-93C2863E0093";
shapes = (
{
closed = 1;
nodes = (
(1391,39,o),
(1505,39,o),
(1578,112,cs),
(2431,962,ls),
(2504,1038,o),
(2504,1152,o),
(2431,1225,cs),
(2359,1297,o),
(2244,1297,o),
(2169,1225,cs),
(1632,688,l),
(1632,1810,ls),
(1632,1913,o),
(1551,1994,o),
(1448,1994,cs),
(1345,1994,o),
(1264,1913,o),
(1264,1810,cs),
(1264,688,l),
(727,1225,ls),
(652,1297,o),
(537,1297,o),
(465,1225,cs),
(392,1152,o),
(392,1038,o),
(465,962,cs),
(1318,112,ls)
);
}
);
width = 2896;
}
);
metricWidth = symbolBase;
unicode = 1024026;
}
{
color = 11;
glyphname = iconArrowLeft;
layers = (
{
layerId = "CD0E3B44-F66A-4791-B84C-A1128DC61275";
shapes = (
{
closed = 1;
nodes = (
(1478,39,o),
(1557,39,o),
(1602,87,cs),
(1650,133,o),
(1650,211,o),
(1602,256,cs),
(956,905,l),
(2232,905,ls),
(2299,905,o),
(2353,959,o),
(2353,1026,cs),
(2353,1092,o),
(2299,1146,o),
(2232,1146,cs),
(956,1146,l),
(1602,1795,ls),
(1650,1840,o),
(1650,1919,o),
(1602,1964,cs),
(1557,2012,o),
(1478,2012,o),
(1433,1964,cs),
(579,1110,ls),
(531,1065,o),
(531,986,o),
(579,941,cs),
(1433,87,ls)
);
}
);
width = 2896;
},
{
layerId = "B1F27B51-9973-4381-9301-4FE46FE1CA59";
shapes = (
{
closed = 1;
nodes = (
(1502,118,o),
(1532,118,o),
(1554,136,cs),
(1572,157,o),
(1572,187,o),
(1554,208,cs),
(784,974,l),
(2232,974,ls),
(2259,974,o),
(2284,999,o),
(2284,1026,cs),
(2284,1053,o),
(2259,1077,o),
(2232,1077,cs),
(784,1077,l),
(1554,1843,ls),
(1572,1864,o),
(1572,1894,o),
(1554,1916,cs),
(1532,1934,o),
(1502,1934,o),
(1481,1916,cs),
(627,1062,ls),
(609,1041,o),
(609,1011,o),
(627,989,cs),
(1481,136,ls)
);
}
);
width = 2896;
},
{
layerId = "5C20EF92-B63D-42A8-8878-93C2863E0093";
shapes = (
{
closed = 1;
nodes = (
(1460,-30,o),
(1575,-30,o),
(1647,42,cs),
(1720,115,o),
(1720,229,o),
(1647,305,cs),
(1110,842,l),
(2232,842,ls),
(2335,842,o),
(2416,923,o),
(2416,1026,cs),
(2416,1128,o),
(2335,1210,o),
(2232,1210,cs),
(1110,1210,l),
(1647,1747,ls),
(1720,1822,o),
(1720,1937,o),
(1647,2009,cs),
(1575,2082,o),
(1460,2082,o),
(1385,2009,cs),
(534,1155,ls),
(462,1083,o),
(462,968,o),
(534,896,cs),
(1385,42,ls)
);
}
);
width = 2896;
}
);
metricWidth = symbolBase;
unicode = 1024027;
}
{
color = 11;
glyphname = iconArrowLongDown;
layers = (
{
layerId = "CD0E3B44-F66A-4791-B84C-A1128DC61275";
shapes = (
{
closed = 1;
nodes = (
(1481,-78,o),
(1511,-66,o),
(1532,-45,cs),
(2217,640,ls),
(2263,685,o),
(2263,763,o),
(2217,808,cs),
(2169,857,o),
(2094,857,o),
(2045,808,cs),
(1569,332,l),
(1569,2009,ls),
(1569,2075,o),
(1514,2130,o),
(1448,2130,cs),
(1382,2130,o),
(1327,2075,o),
(1327,2009,cs),
(1327,332,l),
(851,808,ls),
(802,857,o),
(727,857,o),
(679,808,cs),
(634,763,o),
(634,685,o),
(679,640,cs),
(1364,-45,ls),
(1385,-66,o),
(1415,-78,o),
(1448,-78,cs)
);
}
);
width = 2896;
},
{
layerId = "B1F27B51-9973-4381-9301-4FE46FE1CA59";
shapes = (
{
closed = 1;
nodes = (
(1460,-9,o),
(1472,-3,o),
(1484,6,cs),
(2166,688,ls),
(2184,709,o),
(2184,739,o),
(2166,760,cs),
(2148,778,o),
(2115,778,o),
(2094,760,cs),
(1499,163,l),
(1499,2009,ls),
(1499,2036,o),
(1475,2060,o),
(1448,2060,cs),
(1421,2060,o),
(1397,2036,o),
(1397,2009,cs),
(1397,163,l),
(802,760,ls),
(781,778,o),
(748,778,o),
(730,760,cs),
(712,739,o),
(712,709,o),
(730,688,cs),
(1412,6,ls),
(1424,-3,o),
(1436,-9,o),
(1448,-9,cs)
);
}
);
width = 2896;
},
{
layerId = "5C20EF92-B63D-42A8-8878-93C2863E0093";
shapes = (
{
closed = 1;
nodes = (
(1496,-142,o),
(1545,-124,o),
(1578,-90,cs),
(2263,594,ls),
(2332,667,o),
(2332,781,o),
(2263,854,cs),
(2187,926,o),
(2072,926,o),
(2000,854,cs),
(1632,486,l),
(1632,2009,ls),
(1632,2112,o),
(1551,2193,o),
(1448,2193,cs),
(1345,2193,o),
(1264,2112,o),
(1264,2009,cs),
(1264,489,l),
(896,854,ls),
(824,926,o),
(709,926,o),
(634,854,cs),
(564,781,o),
(564,667,o),
(634,594,cs),
(1318,-90,ls),
(1351,-124,o),
(1400,-142,o),
(1448,-142,cs)
);
}
);
width = 2896;
}
);
metricWidth = symbolBase;
unicode = 1024028;
}
{
color = 11;
glyphname = iconArrowLongLeft;
layers = (
{
layerId = "CD0E3B44-F66A-4791-B84C-A1128DC61275";
shapes = (
{
closed = 1;
nodes = (
(1107,211,o),
(1186,211,o),
(1231,256,cs),
(1279,305,o),
(1279,380,o),
(1231,428,cs),
(754,905,l),
(2431,905,ls),
(2498,905,o),
(2552,959,o),
(2552,1026,cs),
(2552,1092,o),
(2498,1146,o),
(2431,1146,cs),
(754,1146,l),
(1231,1623,ls),
(1279,1671,o),
(1279,1747,o),
(1231,1795,cs),
(1186,1840,o),
(1107,1840,o),
(1062,1795,cs),
(377,1110,ls),
(356,1089,o),
(344,1059,o),
(344,1026,cs),
(344,992,o),
(356,962,o),
(377,941,cs),
(1062,256,ls)
);
}
);
width = 2896;
},
{
layerId = "B1F27B51-9973-4381-9301-4FE46FE1CA59";
shapes = (
{
closed = 1;
nodes = (
(1131,290,o),
(1161,290,o),
(1183,308,cs),
(1201,326,o),
(1201,359,o),
(1183,380,cs),
(585,974,l),
(2431,974,ls),
(2459,974,o),
(2483,999,o),
(2483,1026,cs),
(2483,1053,o),
(2459,1077,o),
(2431,1077,cs),
(585,1077,l),
(1183,1671,ls),
(1201,1692,o),
(1201,1726,o),
(1183,1744,cs),
(1161,1762,o),
(1131,1762,o),
(1110,1744,cs),
(428,1062,ls),
(419,1050,o),
(413,1038,o),
(413,1026,cs),
(413,1014,o),
(419,1002,o),
(428,989,cs),
(1110,308,ls)
);
}
);
width = 2896;
},
{
layerId = "5C20EF92-B63D-42A8-8878-93C2863E0093";
shapes = (
{
closed = 1;
nodes = (
(1089,142,o),
(1204,142,o),
(1276,211,cs),
(1348,287,o),
(1348,401,o),
(1276,474,cs),
(911,842,l),
(2431,842,ls),
(2534,842,o),
(2615,923,o),
(2615,1026,cs),
(2615,1128,o),
(2534,1210,o),
(2431,1210,cs),
(908,1210,l),
(1276,1578,ls),
(1348,1650,o),
(1348,1765,o),
(1276,1840,cs),
(1204,1910,o),
(1089,1910,o),
(1017,1840,cs),
(332,1155,ls),
(299,1122,o),
(281,1074,o),
(281,1026,cs),
(281,977,o),
(299,929,o),
(332,896,cs),
(1017,211,ls)
);
}
);
width = 2896;
}
);
metricWidth = symbolBase;
unicode = 1024029;
}
{
color = 11;
glyphname = iconArrowLongRight;
layers = (
{
layerId = "CD0E3B44-F66A-4791-B84C-A1128DC61275";
shapes = (
{
closed = 1;
nodes = (
(1710,211,o),
(1789,211,o),
(1834,256,cs),
(2519,941,ls),
(2540,962,o),
(2552,992,o),
(2552,1026,cs),
(2552,1059,o),
(2540,1089,o),
(2519,1110,cs),
(1834,1795,ls),
(1789,1840,o),
(1710,1840,o),
(1665,1795,cs),
(1617,1747,o),
(1617,1671,o),
(1665,1623,cs),
(2142,1146,l),
(465,1146,ls),
(398,1146,o),
(344,1092,o),
(344,1026,cs),
(344,959,o),
(398,905,o),
(465,905,cs),
(2142,905,l),
(1665,428,ls),
(1617,380,o),
(1617,305,o),
(1665,256,cs)
);
}
);
width = 2896;
},
{
layerId = "B1F27B51-9973-4381-9301-4FE46FE1CA59";
shapes = (
{
closed = 1;
nodes = (
(1735,290,o),
(1765,290,o),
(1786,308,cs),
(2468,989,ls),
(2477,1002,o),
(2483,1014,o),
(2483,1026,cs),
(2483,1038,o),
(2477,1050,o),
(2468,1062,cs),
(1786,1744,ls),
(1765,1762,o),
(1735,1762,o),
(1713,1744,cs),
(1695,1726,o),
(1695,1692,o),
(1713,1671,cs),
(2311,1077,l),
(465,1077,ls),
(437,1077,o),
(413,1053,o),
(413,1026,cs),
(413,999,o),
(437,974,o),
(465,974,cs),
(2311,974,l),
(1713,380,ls),
(1695,359,o),
(1695,326,o),
(1713,308,cs)
);
}
);
width = 2896;
},
{
layerId = "5C20EF92-B63D-42A8-8878-93C2863E0093";
shapes = (
{
closed = 1;
nodes = (
(1692,142,o),
(1807,142,o),
(1879,211,cs),
(2564,896,ls),
(2597,929,o),
(2615,977,o),
(2615,1026,cs),
(2615,1074,o),
(2597,1122,o),
(2564,1155,cs),
(1879,1840,ls),
(1807,1910,o),
(1692,1910,o),
(1620,1840,cs),
(1548,1765,o),
(1548,1650,o),
(1620,1578,cs),
(1988,1210,l),
(465,1210,ls),
(362,1210,o),
(281,1128,o),
(281,1026,cs),
(281,923,o),
(362,842,o),
(465,842,cs),
(1985,842,l),
(1620,474,ls),
(1548,401,o),
(1548,287,o),
(1620,211,cs)
);
}
);
width = 2896;
}
);
metricWidth = symbolBase;
unicode = 1024030;
}
{
color = 11;
glyphname = iconArrowLongUp;
layers = (
{
layerId = "CD0E3B44-F66A-4791-B84C-A1128DC61275";
shapes = (
{
closed = 1;
nodes = (
(1514,-78,o),
(1569,-24,o),
(1569,42,cs),
(1569,1720,l),
(2045,1243,ls),
(2094,1195,o),
(2169,1195,o),
(2217,1243,cs),
(2263,1288,o),
(2263,1367,o),
(2217,1412,cs),
(1532,2097,ls),
(1511,2118,o),
(1481,2130,o),
(1448,2130,cs),
(1415,2130,o),
(1385,2118,o),
(1364,2097,cs),
(679,1412,ls),
(634,1367,o),
(634,1288,o),
(679,1243,cs),
(727,1195,o),
(802,1195,o),
(851,1243,cs),
(1327,1720,l),
(1327,42,ls),
(1327,-24,o),
(1382,-78,o),
(1448,-78,cs)
);
}
);
width = 2896;
},
{
layerId = "B1F27B51-9973-4381-9301-4FE46FE1CA59";
shapes = (
{
closed = 1;
nodes = (
(1475,-9,o),
(1499,15,o),
(1499,42,cs),
(1499,1888,l),
(2094,1291,ls),
(2115,1273,o),
(2148,1273,o),
(2166,1291,cs),
(2184,1312,o),
(2184,1342,o),
(2166,1364,cs),
(1484,2045,ls),
(1472,2054,o),
(1460,2060,o),
(1448,2060,cs),
(1436,2060,o),
(1424,2054,o),
(1412,2045,cs),
(730,1364,ls),
(712,1342,o),
(712,1312,o),
(730,1291,cs),
(748,1273,o),
(781,1273,o),
(802,1291,cs),
(1397,1888,l),
(1397,42,ls),
(1397,15,o),
(1421,-9,o),
(1448,-9,cs)
);
}
);
width = 2896;
},
{
layerId = "5C20EF92-B63D-42A8-8878-93C2863E0093";
shapes = (
{
closed = 1;
nodes = (
(1551,-142,o),
(1632,-60,o),
(1632,42,cs),
(1632,1566,l),
(2000,1198,ls),
(2072,1125,o),
(2187,1125,o),
(2263,1198,cs),
(2332,1270,o),
(2332,1385,o),
(2263,1457,cs),
(1578,2142,ls),
(1545,2175,o),
(1496,2193,o),
(1448,2193,cs),
(1400,2193,o),
(1351,2175,o),
(1318,2142,cs),
(634,1457,ls),
(564,1385,o),
(564,1270,o),
(634,1198,cs),
(709,1125,o),
(824,1125,o),
(896,1198,cs),
(1264,1563,l),
(1264,42,ls),
(1264,-60,o),
(1345,-142,o),
(1448,-142,cs)
);
}
);
width = 2896;
}
);
metricWidth = symbolBase;
unicode = 1024031;
}
{
color = 11;
glyphname = iconArrowRight;
layers = (
{
layerId = "CD0E3B44-F66A-4791-B84C-A1128DC61275";
shapes = (
{
closed = 1;
nodes = (
(1339,39,o),
(1418,39,o),
(1463,87,cs),
(2317,941,ls),
(2365,986,o),
(2365,1065,o),
(2317,1110,cs),
(1463,1964,ls),
(1418,2012,o),
(1339,2012,o),
(1294,1964,cs),
(1246,1919,o),
(1246,1840,o),
(1294,1795,cs),
(1940,1146,l),
(664,1146,ls),
(597,1146,o),
(543,1092,o),
(543,1026,cs),
(543,959,o),
(597,905,o),
(664,905,cs),
(1940,905,l),
(1294,256,ls),
(1246,211,o),
(1246,133,o),
(1294,87,cs)
);
}
);
width = 2896;
},
{
layerId = "B1F27B51-9973-4381-9301-4FE46FE1CA59";
shapes = (
{
closed = 1;
nodes = (
(1364,118,o),
(1394,118,o),
(1415,136,cs),
(2269,989,ls),
(2287,1011,o),
(2287,1041,o),
(2269,1062,cs),
(1415,1916,ls),
(1394,1934,o),
(1364,1934,o),
(1342,1916,cs),
(1324,1894,o),
(1324,1864,o),
(1342,1843,cs),
(2112,1077,l),
(664,1077,ls),
(637,1077,o),
(612,1053,o),
(612,1026,cs),
(612,999,o),
(637,974,o),
(664,974,cs),
(2112,974,l),
(1342,208,ls),
(1324,187,o),
(1324,157,o),
(1342,136,cs)
);
}
);
width = 2896;
},
{
layerId = "5C20EF92-B63D-42A8-8878-93C2863E0093";
shapes = (
{
closed = 1;
nodes = (
(1321,-30,o),
(1436,-30,o),
(1511,42,cs),
(2362,896,ls),
(2434,968,o),
(2434,1083,o),
(2362,1155,cs),
(1511,2009,ls),
(1436,2082,o),
(1321,2082,o),
(1249,2009,cs),
(1177,1937,o),
(1177,1822,o),
(1249,1747,cs),
(1786,1210,l),
(664,1210,ls),
(561,1210,o),
(480,1128,o),
(480,1026,cs),
(480,923,o),
(561,842,o),
(664,842,cs),
(1786,842,l),
(1249,305,ls),
(1177,229,o),
(1177,115,o),
(1249,42,cs)
);
}
);
width = 2896;
}
);
metricWidth = symbolBase;
unicode = 1024032;
}
{
color = 11;
glyphname = iconArrowUp;
layers = (
{
layerId = "CD0E3B44-F66A-4791-B84C-A1128DC61275";
shapes = (
{
closed = 1;
nodes = (
(1514,121,o),
(1569,175,o),
(1569,241,cs),
(1569,1517,l),
(2217,872,ls),
(2263,824,o),
(2341,824,o),
(2386,872,cs),
(2434,917,o),
(2434,996,o),
(2386,1041,cs),
(1532,1894,ls),
(1487,1943,o),
(1409,1943,o),
(1364,1894,cs),
(510,1041,ls),
(462,996,o),
(462,917,o),
(510,872,cs),
(558,824,o),
(634,824,o),
(679,872,cs),
(1327,1517,l),
(1327,241,ls),
(1327,175,o),
(1382,121,o),
(1448,121,cs)
);
}
);
width = 2896;
},
{
layerId = "B1F27B51-9973-4381-9301-4FE46FE1CA59";
shapes = (
{
closed = 1;
nodes = (
(1475,190,o),
(1499,214,o),
(1499,241,cs),
(1499,1689,l),
(2266,920,ls),
(2287,902,o),
(2317,902,o),
(2338,920,cs),
(2356,941,o),
(2356,971,o),
(2338,992,cs),
(1484,1846,ls),
(1463,1864,o),
(1433,1864,o),
(1412,1846,cs),
(558,992,ls),
(540,971,o),
(540,941,o),
(558,920,cs),
(579,902,o),
(612,902,o),
(630,920,cs),
(1397,1689,l),
(1397,241,ls),
(1397,214,o),
(1421,190,o),
(1448,190,cs)
);
}
);
width = 2896;
},
{
layerId = "5C20EF92-B63D-42A8-8878-93C2863E0093";
shapes = (
{
closed = 1;
nodes = (
(1551,57,o),
(1632,139,o),
(1632,241,cs),
(1632,1364,l),
(2169,827,ls),
(2244,754,o),
(2359,754,o),
(2431,827,cs),
(2504,899,o),
(2504,1014,o),
(2431,1089,cs),
(1578,1940,ls),
(1505,2012,o),
(1391,2012,o),
(1318,1940,cs),
(465,1089,ls),
(392,1014,o),
(392,899,o),
(465,827,cs),
(537,754,o),
(652,754,o),
(727,827,cs),
(1264,1364,l),
(1264,241,ls),
(1264,139,o),
(1345,57,o),
(1448,57,cs)
);
}
);
width = 2896;
}
);
metricWidth = symbolBase;
unicode = 1024033;
}
{
color = 11;
glyphname = iconCheck;
layers = (
{
layerId = "CD0E3B44-F66A-4791-B84C-A1128DC61275";
shapes = (
{
closed = 1;
nodes = (
(1183,202,o),
(1213,217,o),
(1234,241,cs),
(2440,1548,ls),
(2486,1596,o),
(2483,1671,o),
(2434,1716,cs),
(2386,1762,o),
(2311,1759,o),
(2266,1710,cs),
(1143,495,l),
(627,1011,ls),
(582,1059,o),
(504,1059,o),
(459,1011,cs),
(410,962,o),
(410,887,o),
(459,839,cs),
(1062,235,ls),
(1083,214,o),
(1116,199,o),
(1149,202,cs)
);
}
);
width = 2896;
},
{
layerId = "B1F27B51-9973-4381-9301-4FE46FE1CA59";
shapes = (
{
closed = 1;
nodes = (
(1161,272,o),
(1173,278,o),
(1186,287,cs),
(2392,1593,ls),
(2413,1614,o),
(2410,1647,o),
(2389,1668,cs),
(2365,1683,o),
(2335,1686,o),
(2314,1665,cs),
(1143,395,l),
(579,962,ls),
(558,980,o),
(528,980,o),
(507,962,cs),
(489,941,o),
(489,908,o),
(507,890,cs),
(1110,287,ls),
(1122,278,o),
(1134,272,o),
(1146,272,cs)
);
}
);
width = 2896;
},
{
layerId = "5C20EF92-B63D-42A8-8878-93C2863E0093";
shapes = (
{
closed = 1;
nodes = (
(1201,139,o),
(1249,160,o),
(1282,196,cs),
(2489,1502,ls),
(2561,1581,o),
(2552,1698,o),
(2480,1765,cs),
(2401,1837,o),
(2284,1828,o),
(2217,1756,cs),
(1140,588,l),
(673,1056,ls),
(600,1128,o),
(486,1128,o),
(413,1056,cs),
(341,983,o),
(341,869,o),
(413,793,cs),
(1017,190,ls),
(1050,157,o),
(1101,136,o),
(1149,139,cs)
);
}
);
width = 2896;
}
);
metricWidth = symbolBase;
unicode = 1024034;
}
{
color = 11;
glyphname = iconChevronDown;
layers = (
{
layerId = "CD0E3B44-F66A-4791-B84C-A1128DC61275";
shapes = (
{
closed = 1;
nodes = (
(1409,410,o),
(1487,410,o),
(1532,459,cs),
(2386,1312,ls),
(2434,1358,o),
(2434,1436,o),
(2386,1481,cs),
(2338,1529,o),
(2263,1529,o),
(2217,1481,cs),
(1448,715,l),
(679,1481,ls),
(634,1529,o),
(555,1529,o),
(510,1481,cs),
(462,1436,o),
(462,1358,o),
(510,1312,cs),
(1364,459,ls)
);
}
);
width = 2896;
},
{
layerId = "B1F27B51-9973-4381-9301-4FE46FE1CA59";
shapes = (
{
closed = 1;
nodes = (
(1433,489,o),
(1463,489,o),
(1484,507,cs),
(2338,1361,ls),
(2356,1382,o),
(2356,1412,o),
(2338,1433,cs),
(2317,1451,o),
(2284,1451,o),
(2266,1433,cs),
(1448,612,l),
(630,1433,ls),
(609,1451,o),
(579,1451,o),
(558,1433,cs),
(540,1412,o),
(540,1382,o),
(558,1361,cs),
(1412,507,ls)
);
}
);
width = 2896;
},
{
layerId = "5C20EF92-B63D-42A8-8878-93C2863E0093";
shapes = (
{
closed = 1;
nodes = (
(1391,341,o),
(1505,341,o),
(1578,413,cs),
(2431,1264,ls),
(2504,1339,o),
(2504,1454,o),
(2431,1526,cs),
(2359,1599,o),
(2244,1599,o),
(2169,1526,cs),
(1448,805,l),
(727,1526,ls),
(652,1599,o),
(537,1599,o),
(465,1526,cs),
(392,1454,o),
(392,1339,o),
(465,1264,cs),
(1318,413,ls)
);
}
);
width = 2896;
}
);
metricWidth = symbolBase;
unicode = 1024035;
}
{
color = 11;
glyphname = iconChevronLeft;
layers = (
{
layerId = "CD0E3B44-F66A-4791-B84C-A1128DC61275";
shapes = (
{
closed = 1;
nodes = (
(1659,39,o),
(1738,39,o),
(1783,87,cs),
(1831,133,o),
(1831,211,o),
(1783,256,cs),
(1017,1026,l),
(1783,1795,ls),
(1831,1840,o),
(1831,1916,o),
(1783,1964,cs),
(1738,2012,o),
(1659,2012,o),
(1614,1964,cs),
(760,1110,ls),
(712,1065,o),
(712,986,o),
(760,941,cs),
(1614,87,ls)
);
}
);
width = 2896;
},
{
layerId = "B1F27B51-9973-4381-9301-4FE46FE1CA59";
shapes = (
{
closed = 1;
nodes = (
(1683,118,o),
(1713,118,o),
(1735,136,cs),
(1753,157,o),
(1753,187,o),
(1735,208,cs),
(914,1026,l),
(1735,1843,ls),
(1753,1861,o),
(1753,1894,o),
(1735,1916,cs),
(1713,1934,o),
(1683,1934,o),
(1662,1916,cs),
(808,1062,ls),
(790,1041,o),
(790,1011,o),
(808,989,cs),
(1662,136,ls)
);
}
);
width = 2896;
},
{
layerId = "5C20EF92-B63D-42A8-8878-93C2863E0093";
shapes = (
{
closed = 1;
nodes = (
(1641,-30,o),
(1756,-30,o),
(1828,42,cs),
(1901,115,o),
(1901,229,o),
(1828,305,cs),
(1107,1026,l),
(1828,1747,ls),
(1901,1822,o),
(1901,1937,o),
(1828,2009,cs),
(1756,2082,o),
(1641,2082,o),
(1566,2009,cs),
(715,1155,ls),
(643,1083,o),
(643,968,o),
(715,896,cs),
(1566,42,ls)
);
}
);
width = 2896;
}
);
metricWidth = symbolBase;
unicode = 1024036;
}
{
color = 11;
glyphname = iconChevronRight;
layers = (
{
layerId = "CD0E3B44-F66A-4791-B84C-A1128DC61275";
shapes = (
{
closed = 1;
nodes = (
(1038,39,o),
(1116,39,o),
(1161,87,cs),
(2015,941,ls),
(2063,986,o),
(2063,1065,o),
(2015,1110,cs),
(1161,1964,ls),
(1116,2012,o),
(1038,2012,o),
(992,1964,cs),
(944,1916,o),
(944,1840,o),
(992,1795,cs),
(1759,1026,l),
(992,256,ls),
(944,211,o),
(944,133,o),
(992,87,cs)
);
}
);
width = 2896;
},
{
layerId = "B1F27B51-9973-4381-9301-4FE46FE1CA59";
shapes = (
{
closed = 1;
nodes = (
(1062,118,o),
(1092,118,o),
(1113,136,cs),
(1967,989,ls),
(1985,1011,o),
(1985,1041,o),
(1967,1062,cs),
(1113,1916,ls),
(1092,1934,o),
(1062,1934,o),
(1041,1916,cs),
(1023,1894,o),
(1023,1861,o),
(1041,1843,cs),
(1861,1026,l),
(1041,208,ls),
(1023,187,o),
(1023,157,o),
(1041,136,cs)
);
}
);
width = 2896;
},
{
layerId = "5C20EF92-B63D-42A8-8878-93C2863E0093";
shapes = (
{
closed = 1;
nodes = (
(1020,-30,o),
(1134,-30,o),
(1210,42,cs),
(2060,896,ls),
(2133,968,o),
(2133,1083,o),
(2060,1155,cs),
(1210,2009,ls),
(1134,2082,o),
(1020,2082,o),
(947,2009,cs),
(875,1937,o),
(875,1822,o),
(947,1747,cs),
(1668,1026,l),
(947,305,ls),
(875,229,o),
(875,115,o),
(947,42,cs)
);
}
);
width = 2896;
}
);
metricWidth = symbolBase;
unicode = 1024037;
}
{
color = 11;
glyphname = iconChevronUp;
layers = (
{
layerId = "CD0E3B44-F66A-4791-B84C-A1128DC61275";
shapes = (
{
closed = 1;
nodes = (
(558,522,o),
(634,522,o),
(679,570,cs),
(1448,1336,l),
(2217,570,ls),
(2263,522,o),
(2341,522,o),
(2386,570,cs),
(2434,615,o),
(2434,694,o),
(2386,739,cs),
(1532,1593,ls),
(1487,1641,o),
(1409,1641,o),
(1364,1593,cs),
(510,739,ls),
(462,694,o),
(462,615,o),
(510,570,cs)
);
}
);
width = 2896;
},
{
layerId = "B1F27B51-9973-4381-9301-4FE46FE1CA59";
shapes = (
{
closed = 1;
nodes = (
(579,600,o),
(612,600,o),
(630,618,cs),
(1448,1439,l),
(2266,618,ls),
(2287,600,o),
(2317,600,o),
(2338,618,cs),
(2356,640,o),
(2356,670,o),
(2338,691,cs),
(1484,1545,ls),
(1463,1563,o),
(1433,1563,o),
(1412,1545,cs),
(558,691,ls),
(540,670,o),
(540,640,o),
(558,618,cs)
);
}
);
width = 2896;
},
{
layerId = "5C20EF92-B63D-42A8-8878-93C2863E0093";
shapes = (
{
closed = 1;
nodes = (
(537,453,o),
(652,453,o),
(727,525,cs),
(1448,1246,l),
(2169,525,ls),
(2244,453,o),
(2359,453,o),
(2431,525,cs),
(2504,597,o),
(2504,712,o),
(2431,787,cs),
(1578,1638,ls),
(1505,1710,o),
(1391,1710,o),
(1318,1638,cs),
(465,787,ls),
(392,712,o),
(392,597,o),
(465,525,cs)
);
}
);
width = 2896;
}
);
metricWidth = symbolBase;
unicode = 1024038;
}
{
color = 11;
glyphname = iconCircleCheck;
layers = (
{
layerId = "CD0E3B44-F66A-4791-B84C-A1128DC61275";
shapes = (
{
closed = 1;
nodes = (
(2115,-181,o),
(2655,359,o),
(2655,1026,cs),
(2655,1692,o),
(2115,2232,o),
(1448,2232,cs),
(781,2232,o),
(241,1692,o),
(241,1026,cs),
(241,359,o),
(781,-181,o),
(1448,-181,cs)
);
},
{
closed = 1;
nodes = (
(914,60,o),
(483,492,o),
(483,1026,cs),
(483,1560,o),
(914,1991,o),
(1448,1991,cs),
(1982,1991,o),
(2413,1560,o),
(2413,1026,cs),
(2413,492,o),
(1982,60,o),
(1448,60,cs)
);
},
{
closed = 1;
nodes = (
(1228,471,o),
(1306,471,o),
(1351,519,cs),
(2075,1243,ls),
(2124,1288,o),
(2124,1367,o),
(2075,1412,cs),
(2030,1460,o),
(1952,1460,o),
(1907,1412,cs),
(1267,775,l),
(989,1050,ls),
(944,1098,o),
(866,1098,o),
(821,1050,cs),
(772,1005,o),
(772,926,o),
(821,881,cs),
(1183,519,ls)
);
}
);
width = 2896;
},
{
layerId = "B1F27B51-9973-4381-9301-4FE46FE1CA59";
shapes = (
{
closed = 1;
nodes = (
(2115,-181,o),
(2655,359,o),
(2655,1026,cs),
(2655,1692,o),
(2115,2232,o),
(1448,2232,cs),
(781,2232,o),
(241,1692,o),
(241,1026,cs),
(241,359,o),
(781,-181,o),
(1448,-181,cs)
);
},
{
closed = 1;
nodes = (
(836,-78,o),
(344,413,o),
(344,1026,cs),
(344,1638,o),
(836,2130,o),
(1448,2130,cs),
(2060,2130,o),
(2552,1638,o),
(2552,1026,cs),
(2552,413,o),
(2060,-78,o),
(1448,-78,cs)
);
},
{
closed = 1;
nodes = (
(1249,546,o),
(1279,546,o),
(1300,567,cs),
(2027,1294,ls),
(2048,1315,o),
(2048,1345,o),
(2027,1364,cs),
(2009,1385,o),
(1979,1385,o),
(1958,1364,cs),
(1264,673,l),
(938,999,ls),
(917,1020,o),
(887,1020,o),
(869,999,cs),
(848,977,o),
(848,947,o),
(869,929,cs),
(1231,567,ls)
);
}
);
width = 2896;
},
{
layerId = "5C20EF92-B63D-42A8-8878-93C2863E0093";
shapes = (
{
closed = 1;
nodes = (
(2115,-181,o),
(2655,359,o),
(2655,1026,cs),
(2655,1692,o),
(2115,2232,o),
(1448,2232,cs),
(781,2232,o),
(241,1692,o),
(241,1026,cs),
(241,359,o),
(781,-181,o),
(1448,-181,cs)
);
},
{
closed = 1;
nodes = (
(983,190,o),
(612,561,o),
(612,1026,cs),
(612,1490,o),
(983,1861,o),
(1448,1861,cs),
(1913,1861,o),
(2284,1490,o),
(2284,1026,cs),
(2284,561,o),
(1913,190,o),
(1448,190,cs)
);
},
{
closed = 1;
nodes = (
(1273,462,o),
(1388,462,o),
(1460,537,cs),
(2057,1134,ls),
(2133,1207,o),
(2133,1321,o),
(2057,1394,cs),
(1985,1469,o),
(1870,1469,o),
(1798,1394,cs),
(1330,929,l),
(1098,1158,ls),
(1026,1231,o),
(911,1231,o),
(839,1158,cs),
(763,1086,o),
(763,971,o),
(839,899,cs),
(1201,537,ls)
);
}
);
width = 2896;
}
);
metricWidth = symbolBase;
unicode = 1024039;
}
{
color = 11;
glyphname = iconCircleCheckFill;
layers = (
{
layerId = "CD0E3B44-F66A-4791-B84C-A1128DC61275";
shapes = (
{
closed = 1;
nodes = (
(2115,-181,o),
(2655,359,o),
(2655,1026,cs),
(2655,1692,o),
(2115,2232,o),
(1448,2232,cs),
(781,2232,o),
(241,1692,o),
(241,1026,cs),
(241,359,o),
(781,-181,o),
(1448,-181,cs)
);
},
{
closed = 1;
nodes = (
(821,881,ls),
(772,926,o),
(772,1005,o),
(821,1050,cs),
(866,1098,o),
(944,1098,o),
(989,1050,cs),
(1267,775,l),
(1907,1412,ls),
(1952,1460,o),
(2030,1460,o),
(2075,1412,cs),
(2124,1367,o),
(2124,1288,o),
(2075,1243,cs),
(1351,519,ls),
(1306,471,o),
(1228,471,o),
(1183,519,cs)
);
}
);
width = 2896;
},
{
layerId = "B1F27B51-9973-4381-9301-4FE46FE1CA59";
shapes = (
{
closed = 1;
nodes = (
(2115,-181,o),
(2655,359,o),
(2655,1026,cs),
(2655,1692,o),
(2115,2232,o),
(1448,2232,cs),
(781,2232,o),
(241,1692,o),
(241,1026,cs),
(241,359,o),
(781,-181,o),
(1448,-181,cs)
);
},
{
closed = 1;
nodes = (
(869,929,ls),
(851,950,o),
(851,980,o),
(869,1002,cs),
(890,1020,o),
(920,1020,o),
(941,1002,cs),
(1267,673,l),
(1955,1364,ls),
(1976,1382,o),
(2006,1382,o),
(2027,1364,cs),
(2045,1342,o),
(2045,1312,o),
(2027,1291,cs),
(1303,567,ls),
(1282,549,o),
(1252,549,o),
(1231,567,cs)
);
}
);
width = 2896;
},
{
layerId = "5C20EF92-B63D-42A8-8878-93C2863E0093";
shapes = (
{
closed = 1;
nodes = (
(2115,-181,o),
(2655,359,o),
(2655,1026,cs),
(2655,1692,o),
(2115,2232,o),
(1448,2232,cs),
(781,2232,o),
(241,1692,o),
(241,1026,cs),
(241,359,o),
(781,-181,o),
(1448,-181,cs)
);
},
{
closed = 1;
nodes = (
(775,836,ls),
(703,908,o),
(703,1023,o),
(775,1095,cs),
(848,1167,o),
(962,1167,o),
(1035,1095,cs),
(1267,866,l),
(1861,1457,ls),
(1934,1529,o),
(2048,1529,o),
(2121,1457,cs),
(2193,1385,o),
(2193,1270,o),
(2121,1198,cs),
(1397,474,ls),
(1324,401,o),
(1210,401,o),
(1137,474,cs)
);
}
);
width = 2896;
}
);
metricWidth = symbolBase;
unicode = 1024040;
}
{
color = 11;
glyphname = iconClose;
layers = (
{
layerId = "CD0E3B44-F66A-4791-B84C-A1128DC61275";
shapes = (
{
closed = 1;
nodes = (
(624,109,o),
(703,109,o),
(748,157,cs),
(1448,854,l),
(2148,157,ls),
(2193,109,o),
(2272,109,o),
(2317,157,cs),
(2365,202,o),
(2365,281,o),
(2317,326,cs),
(1620,1026,l),
(2317,1726,ls),
(2365,1771,o),
(2365,1849,o),
(2317,1894,cs),
(2272,1943,o),
(2193,1943,o),
(2148,1894,cs),
(1448,1198,l),
(748,1894,ls),
(703,1943,o),
(624,1943,o),
(579,1894,cs),
(531,1849,o),
(531,1771,o),
(579,1726,cs),
(1276,1026,l),
(579,326,ls),
(531,281,o),
(531,202,o),
(579,157,cs)
);
}
);
width = 2896;
},
{
layerId = "B1F27B51-9973-4381-9301-4FE46FE1CA59";
shapes = (
{
closed = 1;
nodes = (
(649,187,o),
(679,187,o),
(700,205,cs),
(1448,956,l),
(2196,205,ls),
(2217,187,o),
(2247,187,o),
(2269,205,cs),
(2287,226,o),
(2287,256,o),
(2269,278,cs),
(1517,1026,l),
(2269,1774,ls),
(2287,1795,o),
(2287,1825,o),
(2269,1846,cs),
(2247,1864,o),
(2217,1864,o),
(2196,1846,cs),
(1448,1095,l),
(700,1846,ls),
(679,1864,o),
(649,1864,o),
(627,1846,cs),
(609,1825,o),
(609,1795,o),
(627,1774,cs),
(1379,1026,l),
(627,278,ls),
(609,256,o),
(609,226,o),
(627,205,cs)
);
}
);
width = 2896;
},
{
layerId = "5C20EF92-B63D-42A8-8878-93C2863E0093";
shapes = (
{
closed = 1;
nodes = (
(606,39,o),
(721,39,o),
(793,112,cs),
(1448,763,l),
(2103,112,ls),
(2175,39,o),
(2290,39,o),
(2362,112,cs),
(2434,184,o),
(2434,299,o),
(2362,371,cs),
(1710,1026,l),
(2362,1680,ls),
(2434,1753,o),
(2434,1867,o),
(2362,1940,cs),
(2290,2012,o),
(2175,2012,o),
(2103,1940,cs),
(1448,1288,l),
(793,1940,ls),
(721,2012,o),
(606,2012,o),
(534,1940,cs),
(462,1867,o),
(462,1753,o),
(534,1680,cs),
(1186,1026,l),
(534,371,ls),
(462,299,o),
(462,184,o),
(534,112,cs)
);
}
);
width = 2896;
}
);
metricWidth = symbolBase;
unicode = 1024041;
}
{
color = 11;
glyphname = iconCopy;
layers = (
{
layerId = "B1F27B51-9973-4381-9301-4FE46FE1CA59";
shapes = (
{
closed = 1;
nodes = (
(2142,-30,ls),
(2175,-30,o),
(2202,-3,o),
(2202,30,cs),
(2202,1720,ls),
(2202,1753,o),
(2175,1780,o),
(2142,1780,cs),
(453,1780,ls),
(419,1780,o),
(392,1753,o),
(392,1720,cs),
(392,30,ls),
(392,-3,o),
(419,-30,o),
(453,-30,cs)
);
},
{
closed = 1;
nodes = (
(513,1659,l),
(2082,1659,l),
(2082,91,l),
(513,91,l)
);
},
{
closed = 1;
nodes = (
(2537,573,o),
(2564,600,o),
(2564,634,cs),
(2564,2082,ls),
(2564,2115,o),
(2537,2142,o),
(2504,2142,cs),
(1056,2142,ls),
(1023,2142,o),
(996,2115,o),
(996,2082,cs),
(996,2048,o),
(1023,2021,o),
(1056,2021,cs),
(2444,2021,l),
(2444,634,ls),
(2444,600,o),
(2471,573,o),
(2504,573,cs)
);
}
);
width = 2896;
},
{
layerId = "CD0E3B44-F66A-4791-B84C-A1128DC61275";
shapes = (
{
closed = 1;
nodes = (
(2142,-90,ls),
(2208,-90,o),
(2263,-36,o),
(2263,30,cs),
(2263,1720,ls),
(2263,1786,o),
(2208,1840,o),
(2142,1840,cs),
(453,1840,ls),
(386,1840,o),
(332,1786,o),
(332,1720,cs),
(332,30,ls),
(332,-36,o),
(386,-90,o),
(453,-90,cs)
);
},
{
closed = 1;
nodes = (
(573,1599,l),
(2021,1599,l),
(2021,151,l),
(573,151,l)
);
},
{
closed = 1;
nodes = (
(2570,513,o),
(2625,567,o),
(2625,634,cs),
(2625,2082,ls),
(2625,2148,o),
(2570,2202,o),
(2504,2202,cs),
(1056,2202,ls),
(989,2202,o),
(935,2148,o),
(935,2082,cs),
(935,2015,o),
(989,1961,o),
(1056,1961,cs),
(2383,1961,l),
(2383,634,ls),
(2383,567,o),
(2437,513,o),
(2504,513,cs)
);
}
);
width = 2896;
},
{
layerId = "5C20EF92-B63D-42A8-8878-93C2863E0093";
shapes = (
{
closed = 1;
nodes = (
(2021,-151,ls),
(2121,-151,o),
(2202,-69,o),
(2202,30,cs),
(2202,1599,ls),
(2202,1698,o),
(2121,1780,o),
(2021,1780,cs),
(453,1780,ls),
(353,1780,o),
(272,1698,o),
(272,1599,cs),
(272,30,ls),
(272,-69,o),
(353,-151,o),
(453,-151,cs)
);
},
{
closed = 1;
nodes = (
(634,1418,l),
(1840,1418,l),
(1840,211,l),
(634,211,l)
);
},
{
closed = 1;
nodes = (
(2603,453,o),
(2685,534,o),
(2685,634,cs),
(2685,2082,ls),
(2685,2181,o),
(2603,2263,o),
(2504,2263,cs),
(1056,2263,ls),
(956,2263,o),
(875,2181,o),
(875,2082,cs),
(875,1982,o),
(956,1901,o),
(1056,1901,cs),
(2323,1901,l),
(2323,634,ls),
(2323,534,o),
(2404,453,o),
(2504,453,cs)
);
}
);
width = 2896;
}
);
metricWidth = symbolBase;
unicode = 1024042;
}
{
color = 11;
glyphname = iconDivider;
layers = (
{
layerId = "CD0E3B44-F66A-4791-B84C-A1128DC61275";
shapes = (
{
closed = 1;
nodes = (
(1481,0,o),
(1508,27,o),
(1508,60,cs),
(1508,1991,ls),
(1508,2024,o),
(1481,2051,o),
(1448,2051,cs),
(1415,2051,o),
(1388,2024,o),
(1388,1991,cs),
(1388,60,ls),
(1388,27,o),
(1415,0,o),
(1448,0,cs)
);
}
);
width = 2896;
},
{
layerId = "B1F27B51-9973-4381-9301-4FE46FE1CA59";
shapes = (
{
closed = 1;
nodes = (
(1463,36,o),
(1472,45,o),
(1472,60,cs),
(1472,1991,ls),
(1472,2006,o),
(1463,2015,o),
(1448,2015,cs),
(1433,2015,o),
(1424,2006,o),
(1424,1991,cs),
(1424,60,ls),
(1424,45,o),
(1433,36,o),
(1448,36,cs)
);
}
);
width = 2896;
},
{
layerId = "5C20EF92-B63D-42A8-8878-93C2863E0093";
shapes = (
{
closed = 1;
nodes = (
(1517,-63,o),
(1572,-9,o),
(1572,60,cs),
(1572,1991,ls),
(1572,2060,o),
(1517,2115,o),
(1448,2115,cs),
(1379,2115,o),
(1324,2060,o),
(1324,1991,cs),
(1324,60,ls),
(1324,-9,o),
(1379,-63,o),
(1448,-63,cs)
);
}
);
width = 2896;
}
);
metricWidth = symbolBase;
unicode = 1024043;
}
{
color = 11;
glyphname = iconExchangeRate;
layers = (
{
layerId = "CD0E3B44-F66A-4791-B84C-A1128DC61275";
shapes = (
{
closed = 1;
nodes = (
(2115,-181,o),
(2655,359,o),
(2655,1026,cs),
(2655,1692,o),
(2115,2232,o),
(1448,2232,cs),
(781,2232,o),
(241,1692,o),
(241,1026,cs),
(241,359,o),
(781,-181,o),
(1448,-181,cs)
);
},
{
closed = 1;
nodes = (
(881,0,o),
(422,459,o),
(422,1026,cs),
(422,1593,o),
(881,2051,o),
(1448,2051,cs),
(2015,2051,o),
(2474,1593,o),
(2474,1026,cs),
(2474,459,o),
(2015,0,o),
(1448,0,cs)
);
},
{
closed = 1;
nodes = (
(1183,341,o),
(1231,341,o),
(1261,368,cs),
(1288,398,o),
(1288,446,o),
(1261,477,cs),
(1011,724,l),
(1261,971,ls),
(1288,1002,o),
(1288,1050,o),
(1261,1080,cs),
(1231,1107,o),
(1183,1107,o),
(1152,1080,cs),
(851,778,ls),
(824,748,o),
(824,700,o),
(851,670,cs),
(1152,368,ls)
);
},
{
closed = 1;
nodes = (
(1931,649,ls),
(1973,649,o),
(2006,682,o),
(2006,724,cs),
(2006,766,o),
(1973,799,o),
(1931,799,cs),
(905,799,ls),
(863,799,o),
(830,766,o),
(830,724,cs),
(830,682,o),
(863,649,o),
(905,649,cs)
);
},
{
closed = 1;
nodes = (
(1931,1252,ls),
(1973,1252,o),
(2006,1285,o),
(2006,1327,cs),
(2006,1370,o),
(1973,1403,o),
(1931,1403,cs),
(905,1403,ls),
(863,1403,o),
(830,1370,o),
(830,1327,cs),
(830,1285,o),
(863,1252,o),
(905,1252,cs)
);
},
{
closed = 1;
nodes = (
(1605,944,o),
(1653,944,o),
(1683,971,cs),
(1985,1273,ls),
(2012,1303,o),
(2012,1351,o),
(1985,1382,cs),
(1683,1683,ls),
(1653,1710,o),
(1605,1710,o),
(1575,1683,cs),
(1548,1653,o),
(1548,1605,o),
(1575,1575,cs),
(1825,1327,l),
(1575,1080,ls),
(1548,1050,o),
(1548,1002,o),
(1575,971,cs)
);
}
);
width = 2896;
},
{
layerId = "B1F27B51-9973-4381-9301-4FE46FE1CA59";
shapes = (
{
closed = 1;
nodes = (
(2115,-181,o),
(2655,359,o),
(2655,1026,cs),
(2655,1692,o),
(2115,2232,o),
(1448,2232,cs),
(781,2232,o),
(241,1692,o),
(241,1026,cs),
(241,359,o),
(781,-181,o),
(1448,-181,cs)
);
},
{
closed = 1;
nodes = (
(839,-75,o),
(347,416,o),
(347,1026,cs),
(347,1635,o),
(839,2127,o),
(1448,2127,cs),
(2057,2127,o),
(2549,1635,o),
(2549,1026,cs),
(2549,416,o),
(2057,-75,o),
(1448,-75,cs)
);
},
{
closed = 1;
nodes = (
(1189,359,o),
(1225,359,o),
(1246,380,cs),
(1270,404,o),
(1270,437,o),
(1246,459,cs),
(983,724,l),
(1246,989,ls),
(1270,1011,o),
(1270,1044,o),
(1246,1068,cs),
(1225,1089,o),
(1189,1089,o),
(1167,1068,cs),
(863,763,ls),
(842,742,o),
(842,706,o),
(863,685,cs),
(1167,380,ls)
);
},
{
closed = 1;
nodes = (
(1934,667,ls),
(1964,667,o),
(1991,694,o),
(1991,724,cs),
(1991,754,o),
(1964,781,o),
(1934,781,cs),
(902,781,ls),
(872,781,o),
(845,754,o),
(845,724,cs),
(845,694,o),
(872,667,o),
(902,667,cs)
);
},
{
closed = 1;
nodes = (
(1931,1270,ls),
(1961,1270,o),
(1988,1297,o),
(1988,1327,cs),
(1988,1358,o),
(1961,1385,o),
(1931,1385,cs),
(902,1385,ls),
(872,1385,o),
(845,1358,o),
(845,1327,cs),
(845,1297,o),
(872,1270,o),
(902,1270,cs)
);
},
{
closed = 1;
nodes = (
(1611,962,o),
(1644,962,o),
(1665,983,cs),
(1970,1288,ls),
(1994,1309,o),
(1994,1345,o),
(1970,1367,cs),
(1665,1671,ls),
(1644,1692,o),
(1611,1692,o),
(1587,1671,cs),
(1566,1647,o),
(1566,1614,o),
(1587,1593,cs),
(1852,1327,l),
(1587,1062,ls),
(1566,1041,o),
(1566,1008,o),
(1587,983,cs)
);
}
);
width = 2896;
},
{
layerId = "5C20EF92-B63D-42A8-8878-93C2863E0093";
shapes = (
{
closed = 1;
nodes = (
(2115,-181,o),
(2655,359,o),
(2655,1026,cs),
(2655,1692,o),
(2115,2232,o),
(1448,2232,cs),
(781,2232,o),
(241,1692,o),
(241,1026,cs),
(241,359,o),
(781,-181,o),
(1448,-181,cs)
);
},
{
closed = 1;
nodes = (
(986,190,o),
(612,564,o),
(612,1026,cs),
(612,1487,o),
(986,1861,o),
(1448,1861,cs),
(1910,1861,o),
(2284,1487,o),
(2284,1026,cs),
(2284,564,o),
(1910,190,o),
(1448,190,cs)
);
},
{
closed = 1;
nodes = (
(1167,350,o),
(1246,350,o),
(1294,398,cs),
(1342,446,o),
(1342,525,o),
(1294,573,cs),
(1143,724,l),
(1294,875,ls),
(1342,923,o),
(1342,1002,o),
(1294,1050,cs),
(1246,1098,o),
(1167,1098,o),
(1119,1050,cs),
(881,811,ls),
(833,763,o),
(833,685,o),
(881,637,cs),
(1119,398,ls)
);
},
{
closed = 1;
nodes = (
(1867,600,ls),
(1934,600,o),
(1991,658,o),
(1991,724,cs),
(1991,790,o),
(1934,848,o),
(1867,848,cs),
(968,848,ls),
(902,848,o),
(845,790,o),
(845,724,cs),
(845,658,o),
(902,600,o),
(968,600,cs)
);
},
{
closed = 1;
nodes = (
(1931,1204,ls),
(1997,1204,o),
(2054,1261,o),
(2054,1327,cs),
(2054,1394,o),
(1997,1451,o),
(1931,1451,cs),
(968,1451,ls),
(902,1451,o),
(845,1394,o),
(845,1327,cs),
(845,1261,o),
(902,1204,o),
(968,1204,cs)
);
},
{
closed = 1;
nodes = (
(1653,953,o),
(1732,953,o),
(1780,1002,cs),
(2018,1240,ls),
(2066,1288,o),
(2066,1367,o),
(2018,1415,cs),
(1780,1653,ls),
(1732,1701,o),
(1653,1701,o),
(1605,1653,cs),
(1557,1605,o),
(1557,1526,o),
(1605,1478,cs),
(1756,1327,l),
(1605,1177,ls),
(1557,1128,o),
(1557,1050,o),
(1605,1002,cs)
);
}
);
width = 2896;
}
);
metricWidth = symbolBase;
unicode = 1024045;
}
{
color = 11;
glyphname = iconExclam;
layers = (
{
layerId = "CD0E3B44-F66A-4791-B84C-A1128DC61275";
shapes = (
{
closed = 1;
nodes = (
(1569,784,l),
(1569,1750,l),
(1327,1750,l),
(1327,784,l)
);
},
{
closed = 1;
nodes = (
(1539,317,o),
(1614,392,o),
(1614,483,cs),
(1614,573,o),
(1539,649,o),
(1448,649,cs),
(1358,649,o),
(1282,573,o),
(1282,483,cs),
(1282,392,o),
(1358,317,o),
(1448,317,cs)
);
}
);
width = 2896;
},
{
layerId = "B1F27B51-9973-4381-9301-4FE46FE1CA59";
shapes = (
{
closed = 1;
nodes = (
(1499,781,l),
(1499,1747,l),
(1397,1747,l),
(1397,781,l)
);
},
{
closed = 1;
nodes = (
(1499,386,o),
(1545,431,o),
(1545,483,cs),
(1545,534,o),
(1499,579,o),
(1448,579,cs),
(1397,579,o),
(1351,534,o),
(1351,483,cs),
(1351,431,o),
(1397,386,o),
(1448,386,cs)
);
}
);
width = 2896;
},
{
layerId = "5C20EF92-B63D-42A8-8878-93C2863E0093";
shapes = (
{
closed = 1;
nodes = (
(1632,878,l),
(1632,1813,l),
(1264,1813,l),
(1264,878,l)
);
},
{
closed = 1;
nodes = (
(1575,253,o),
(1677,356,o),
(1677,483,cs),
(1677,609,o),
(1575,712,o),
(1448,712,cs),
(1321,712,o),
(1219,609,o),
(1219,483,cs),
(1219,356,o),
(1321,253,o),
(1448,253,cs)
);
}
);
width = 2896;
}
);
metricWidth = symbolBase;
unicode = 1024046;
}
{
color = 11;
glyphname = iconExclamFill;
layers = (
{
layerId = "CD0E3B44-F66A-4791-B84C-A1128DC61275";
shapes = (
{
closed = 1;
nodes = (
(2115,-181,o),
(2655,359,o),
(2655,1026,cs),
(2655,1692,o),
(2115,2232,o),
(1448,2232,cs),
(781,2232,o),
(241,1692,o),
(241,1026,cs),
(241,359,o),
(781,-181,o),
(1448,-181,cs)
);
},
{
closed = 1;
nodes = (
(1358,302,o),
(1282,377,o),
(1282,468,cs),
(1282,558,o),
(1358,634,o),
(1448,634,cs),
(1539,634,o),
(1614,558,o),
(1614,468,cs),
(1614,377,o),
(1539,302,o),
(1448,302,cs)
);
},
{
closed = 1;
nodes = (
(1327,1750,l),
(1569,1750,l),
(1569,784,l),
(1327,784,l)
);
}
);
width = 2896;
},
{
layerId = "B1F27B51-9973-4381-9301-4FE46FE1CA59";
shapes = (
{
closed = 1;
nodes = (
(2115,-181,o),
(2655,359,o),
(2655,1026,cs),
(2655,1692,o),
(2115,2232,o),
(1448,2232,cs),
(781,2232,o),
(241,1692,o),
(241,1026,cs),
(241,359,o),
(781,-181,o),
(1448,-181,cs)
);
},
{
closed = 1;
nodes = (
(1397,371,o),
(1351,416,o),
(1351,468,cs),
(1351,519,o),
(1397,564,o),
(1448,564,cs),
(1499,564,o),
(1545,519,o),
(1545,468,cs),
(1545,416,o),
(1499,371,o),
(1448,371,cs)
);
},
{
closed = 1;
nodes = (
(1397,1747,l),
(1499,1747,l),
(1499,781,l),
(1397,781,l)
);
}
);
width = 2896;
},
{
layerId = "5C20EF92-B63D-42A8-8878-93C2863E0093";
shapes = (
{
closed = 1;
nodes = (
(2115,-181,o),
(2655,359,o),
(2655,1026,cs),
(2655,1692,o),
(2115,2232,o),
(1448,2232,cs),
(781,2232,o),
(241,1692,o),
(241,1026,cs),
(241,359,o),
(781,-181,o),
(1448,-181,cs)
);
},
{
closed = 1;
nodes = (
(1321,238,o),
(1219,341,o),
(1219,468,cs),
(1219,594,o),
(1321,697,o),
(1448,697,cs),
(1575,697,o),
(1677,594,o),
(1677,468,cs),
(1677,341,o),
(1575,238,o),
(1448,238,cs)
);
},
{
closed = 1;
nodes = (
(1264,1813,l),
(1632,1813,l),
(1632,878,l),
(1264,878,l)
);
}
);
width = 2896;
}
);
metricWidth = symbolBase;
unicode = 1024047;
}
{
color = 11;
glyphname = iconExternal;
layers = (
{
layerId = "CD0E3B44-F66A-4791-B84C-A1128DC61275";
shapes = (
{
closed = 1;
nodes = (
(2220,-181,ls),
(2326,-181,o),
(2413,-94,o),
(2413,12,cs),
(2413,1008,ls),
(2413,1074,o),
(2359,1128,o),
(2293,1128,cs),
(2226,1128,o),
(2172,1074,o),
(2172,1008,cs),
(2172,60,ls),
(2172,60,o),
(2172,60,o),
(2172,60,cs),
(483,60,ls),
(483,60,o),
(483,60,o),
(483,60,cs),
(483,1750,ls),
(483,1750,o),
(483,1750,o),
(483,1750,cs),
(1430,1750,ls),
(1496,1750,o),
(1551,1804,o),
(1551,1870,cs),
(1551,1937,o),
(1496,1991,o),
(1430,1991,cs),
(434,1991,ls),
(329,1991,o),
(241,1904,o),
(241,1798,cs),
(241,12,ls),
(241,-94,o),
(329,-181,o),
(434,-181,cs)
);
},
{
closed = 1;
nodes = (
(1279,772,o),
(1354,772,o),
(1403,821,cs),
(2365,1783,l),
(2365,1424,ls),
(2365,1358,o),
(2419,1303,o),
(2486,1303,cs),
(2552,1303,o),
(2606,1358,o),
(2606,1424,cs),
(2606,2075,ls),
(2606,2106,o),
(2594,2139,o),
(2570,2160,cs),
(2549,2184,o),
(2519,2196,o),
(2486,2196,cs),
(1834,2196,ls),
(1768,2196,o),
(1713,2142,o),
(1713,2075,cs),
(1713,2009,o),
(1768,1955,o),
(1834,1955,cs),
(2196,1955,l),
(1231,989,ls),
(1183,944,o),
(1183,866,o),
(1231,821,cs)
);
}
);
width = 2896;
},
{
layerId = "B1F27B51-9973-4381-9301-4FE46FE1CA59";
shapes = (
{
closed = 1;
nodes = (
(2220,-112,ls),
(2287,-112,o),
(2344,-54,o),
(2344,12,cs),
(2344,1143,ls),
(2344,1170,o),
(2320,1195,o),
(2293,1195,cs),
(2266,1195,o),
(2241,1170,o),
(2241,1143,cs),
(2241,3,ls),
(2241,-3,o),
(2235,-9,o),
(2229,-9,cs),
(425,-9,ls),
(419,-9,o),
(413,-3,o),
(413,3,cs),
(413,1807,ls),
(413,1813,o),
(419,1819,o),
(425,1819,cs),
(1566,1819,ls),
(1593,1819,o),
(1617,1843,o),
(1617,1870,cs),
(1617,1897,o),
(1593,1922,o),
(1566,1922,cs),
(434,1922,ls),
(368,1922,o),
(311,1864,o),
(311,1798,cs),
(311,12,ls),
(311,-54,o),
(368,-112,o),
(434,-112,cs)
);
},
{
closed = 1;
nodes = (
(1300,851,o),
(1333,851,o),
(1351,869,cs),
(2434,1955,l),
(2434,1424,ls),
(2434,1397,o),
(2459,1373,o),
(2486,1373,cs),
(2513,1373,o),
(2537,1397,o),
(2537,1424,cs),
(2537,2075,ls),
(2537,2088,o),
(2531,2100,o),
(2522,2112,cs),
(2513,2121,o),
(2498,2127,o),
(2486,2127,cs),
(1834,2127,ls),
(1807,2127,o),
(1783,2103,o),
(1783,2075,cs),
(1783,2048,o),
(1807,2024,o),
(1834,2024,cs),
(2365,2024,l),
(1279,941,ls),
(1261,920,o),
(1261,890,o),
(1279,869,cs)
);
}
);
width = 2896;
},
{
layerId = "5C20EF92-B63D-42A8-8878-93C2863E0093";
shapes = (
{
closed = 1;
nodes = (
(2220,-244,ls),
(2362,-244,o),
(2477,-130,o),
(2477,12,cs),
(2477,1005,ls),
(2477,1107,o),
(2395,1192,o),
(2293,1192,cs),
(2190,1192,o),
(2109,1107,o),
(2109,1005,cs),
(2109,124,ls),
(2109,124,o),
(2109,124,o),
(2109,124,cs),
(546,124,ls),
(546,124,o),
(546,124,o),
(546,124,cs),
(546,1686,ls),
(546,1686,o),
(546,1686,o),
(546,1686,cs),
(1427,1686,ls),
(1529,1686,o),
(1614,1768,o),
(1614,1870,cs),
(1614,1973,o),
(1529,2054,o),
(1427,2054,cs),
(434,2054,ls),
(293,2054,o),
(178,1940,o),
(178,1798,cs),
(178,12,ls),
(178,-130,o),
(293,-244,o),
(434,-244,cs)
);
},
{
closed = 1;
nodes = (
(1258,703,o),
(1373,703,o),
(1448,775,cs),
(2302,1629,l),
(2302,1424,ls),
(2302,1321,o),
(2383,1240,o),
(2486,1240,cs),
(2588,1240,o),
(2670,1321,o),
(2670,1424,cs),
(2670,2075,ls),
(2670,2124,o),
(2652,2172,o),
(2618,2205,cs),
(2582,2241,o),
(2534,2259,o),
(2486,2259,cs),
(1834,2259,ls),
(1732,2259,o),
(1650,2178,o),
(1650,2075,cs),
(1650,1973,o),
(1732,1891,o),
(1834,1891,cs),
(2039,1891,l),
(1186,1035,ls),
(1113,962,o),
(1113,848,o),
(1186,775,cs)
);
}
);
width = 2896;
}
);
metricWidth = symbolBase;
unicode = 1024048;
}
{
color = 11;
glyphname = iconEye;
layers = (
{
layerId = "CD0E3B44-F66A-4791-B84C-A1128DC61275";
shapes = (
{
closed = 1;
nodes = (
(1819,181,o),
(2145,308,o),
(2395,582,cs),
(2579,781,o),
(2646,980,o),
(2649,986,cs),
(2658,1014,o),
(2658,1038,o),
(2649,1065,cs),
(2646,1071,o),
(2579,1270,o),
(2395,1469,cs),
(2145,1744,o),
(1819,1870,o),
(1448,1870,cs),
(1077,1870,o),
(751,1744,o),
(501,1469,cs),
(317,1270,o),
(250,1071,o),
(247,1065,cs),
(238,1038,o),
(238,1014,o),
(247,986,cs),
(250,980,o),
(317,781,o),
(501,582,cs),
(751,308,o),
(1077,181,o),
(1448,181,cs)
);
},
{
closed = 1;
nodes = (
(1152,422,o),
(884,525,o),
(685,739,cs),
(576,851,o),
(519,968,o),
(492,1026,c),
(519,1083,o),
(576,1201,o),
(685,1312,cs),
(884,1526,o),
(1152,1629,o),
(1448,1629,cs),
(1744,1629,o),
(2012,1526,o),
(2211,1312,cs),
(2320,1201,o),
(2377,1083,o),
(2404,1026,c),
(2377,968,o),
(2320,851,o),
(2211,739,cs),
(2012,525,o),
(1744,422,o),
(1448,422,cs)
);
},
{
closed = 1;
nodes = (
(1713,543,o),
(1931,760,o),
(1931,1026,cs),
(1931,1291,o),
(1713,1508,o),
(1448,1508,cs),
(1183,1508,o),
(965,1291,o),
(965,1026,cs),
(965,760,o),
(1183,543,o),
(1448,543,cs)
);
},
{
closed = 1;
nodes = (
(1315,784,o),
(1207,893,o),
(1207,1026,cs),
(1207,1158,o),
(1315,1267,o),
(1448,1267,cs),
(1581,1267,o),
(1689,1158,o),
(1689,1026,cs),
(1689,893,o),
(1581,784,o),
(1448,784,cs)
);
}
);
width = 2896;
},
{
layerId = "B1F27B51-9973-4381-9301-4FE46FE1CA59";
shapes = (
{
closed = 1;
nodes = (
(1795,250,o),
(2103,368,o),
(2347,627,cs),
(2516,818,o),
(2579,1002,o),
(2582,1011,cs),
(2585,1020,o),
(2585,1032,o),
(2582,1041,cs),
(2579,1050,o),
(2516,1234,o),
(2347,1424,cs),
(2103,1683,o),
(1795,1801,o),
(1448,1801,cs),
(1101,1801,o),
(793,1683,o),
(549,1424,cs),
(380,1234,o),
(317,1050,o),
(314,1041,cs),
(311,1032,o),
(311,1020,o),
(314,1011,cs),
(317,1002,o),
(380,818,o),
(549,627,cs),
(793,368,o),
(1101,250,o),
(1448,250,cs)
);
},
{
closed = 1;
nodes = (
(1128,353,o),
(845,459,o),
(627,694,cs),
(498,836,o),
(434,977,o),
(413,1026,c),
(434,1074,o),
(501,1216,o),
(630,1358,cs),
(845,1593,o),
(1128,1698,o),
(1448,1698,cs),
(1768,1698,o),
(2051,1593,o),
(2269,1358,cs),
(2398,1216,o),
(2462,1074,o),
(2483,1026,c),
(2462,977,o),
(2395,836,o),
(2266,694,cs),
(2051,459,o),
(1768,353,o),
(1448,353,cs)
);
},
{
closed = 1;
nodes = (
(1677,612,o),
(1861,796,o),
(1861,1026,cs),
(1861,1255,o),
(1677,1439,o),
(1448,1439,cs),
(1219,1439,o),
(1035,1255,o),
(1035,1026,cs),
(1035,796,o),
(1219,612,o),
(1448,612,cs)
);
},
{
closed = 1;
nodes = (
(1276,712,o),
(1134,854,o),
(1134,1026,cs),
(1134,1198,o),
(1276,1339,o),
(1448,1339,cs),
(1620,1339,o),
(1762,1198,o),
(1762,1026,cs),
(1762,854,o),
(1620,712,o),
(1448,712,cs)
);
}
);
width = 2896;
},
{
layerId = "5C20EF92-B63D-42A8-8878-93C2863E0093";
shapes = (
{
closed = 1;
nodes = (
(1955,118,o),
(2272,350,o),
(2444,537,cs),
(2631,742,o),
(2700,944,o),
(2709,968,cs),
(2721,1005,o),
(2721,1047,o),
(2709,1083,cs),
(2700,1107,o),
(2631,1309,o),
(2444,1514,cs),
(2272,1701,o),
(1955,1934,o),
(1448,1934,cs),
(941,1934,o),
(624,1701,o),
(453,1514,cs),
(265,1309,o),
(196,1107,o),
(187,1083,cs),
(175,1047,o),
(175,1005,o),
(187,968,cs),
(196,944,o),
(265,742,o),
(453,537,cs),
(624,350,o),
(941,118,o),
(1448,118,cs)
);
},
{
closed = 1;
nodes = (
(1155,486,o),
(917,585,o),
(733,778,cs),
(646,872,o),
(594,965,o),
(561,1026,c),
(591,1083,o),
(640,1170,o),
(724,1261,cs),
(908,1463,o),
(1149,1566,o),
(1448,1566,cs),
(1741,1566,o),
(1979,1466,o),
(2163,1273,cs),
(2250,1180,o),
(2302,1086,o),
(2335,1026,c),
(2305,968,o),
(2256,881,o),
(2172,790,cs),
(1988,588,o),
(1747,486,o),
(1448,486,cs)
);
},
{
closed = 1;
nodes = (
(1713,543,o),
(1931,760,o),
(1931,1026,cs),
(1931,1291,o),
(1713,1508,o),
(1448,1508,cs),
(1183,1508,o),
(965,1291,o),
(965,1026,cs),
(965,760,o),
(1183,543,o),
(1448,543,cs)
);
},
{
closed = 1;
nodes = (
(1385,911,o),
(1333,962,o),
(1333,1026,cs),
(1333,1089,o),
(1385,1140,o),
(1448,1140,cs),
(1511,1140,o),
(1563,1089,o),
(1563,1026,cs),
(1563,962,o),
(1511,911,o),
(1448,911,cs)
);
}
);
width = 2896;
}
);
metricWidth = symbolBase;
unicode = 1024049;
}
{
color = 11;
glyphname = iconHeart;
layers = (
{
layerId = "CD0E3B44-F66A-4791-B84C-A1128DC61275";
shapes = (
{
closed = 1;
nodes = (
(1481,0,o),
(1511,12,o),
(1532,36,cs),
(2329,839,ls),
(2507,1017,o),
(2534,1240,o),
(2534,1442,cs),
(2534,1777,o),
(2266,2051,o),
(1931,2051,cs),
(1732,2051,o),
(1557,1955,o),
(1448,1807,c),
(1339,1955,o),
(1164,2051,o),
(965,2051,cs),
(630,2051,o),
(362,1777,o),
(362,1442,cs),
(362,1240,o),
(389,1017,o),
(567,839,cs),
(1364,36,ls),
(1385,12,o),
(1415,0,o),
(1448,0,cs)
);
},
{
closed = 1;
nodes = (
(739,1008,ls),
(630,1116,o),
(603,1258,o),
(603,1442,cs),
(603,1647,o),
(766,1810,o),
(965,1810,cs),
(1164,1810,o),
(1327,1647,o),
(1327,1442,cs),
(1327,1376,o),
(1382,1321,o),
(1448,1321,cs),
(1514,1321,o),
(1569,1376,o),
(1569,1442,cs),
(1569,1647,o),
(1732,1810,o),
(1931,1810,cs),
(2130,1810,o),
(2293,1647,o),
(2293,1442,cs),
(2293,1258,o),
(2266,1116,o),
(2157,1008,cs),
(1448,293,l)
);
}
);
width = 2896;
},
{
layerId = "B1F27B51-9973-4381-9301-4FE46FE1CA59";
shapes = (
{
closed = 1;
nodes = (
(1460,69,o),
(1472,75,o),
(1484,84,cs),
(2278,887,ls),
(2437,1047,o),
(2465,1243,o),
(2465,1442,cs),
(2465,1741,o),
(2226,1982,o),
(1931,1982,cs),
(1716,1982,o),
(1535,1858,o),
(1448,1677,c),
(1361,1858,o),
(1180,1982,o),
(965,1982,cs),
(670,1982,o),
(431,1741,o),
(431,1442,cs),
(431,1243,o),
(459,1047,o),
(618,887,cs),
(1412,84,ls),
(1424,75,o),
(1436,69,o),
(1448,69,cs)
);
},
{
closed = 1;
nodes = (
(691,959,ls),
(561,1089,o),
(534,1252,o),
(534,1442,cs),
(534,1686,o),
(727,1879,o),
(965,1879,cs),
(1204,1879,o),
(1397,1686,o),
(1397,1442,cs),
(1397,1415,o),
(1421,1391,o),
(1448,1391,cs),
(1475,1391,o),
(1499,1415,o),
(1499,1442,cs),
(1499,1686,o),
(1692,1879,o),
(1931,1879,cs),
(2169,1879,o),
(2362,1686,o),
(2362,1442,cs),
(2362,1252,o),
(2335,1089,o),
(2205,959,cs),
(1448,190,l)
);
}
);
width = 2896;
},
{
layerId = "5C20EF92-B63D-42A8-8878-93C2863E0093";
shapes = (
{
closed = 1;
nodes = (
(1496,-63,o),
(1545,-45,o),
(1581,-9,cs),
(2374,793,ls),
(2570,989,o),
(2597,1234,o),
(2597,1442,cs),
(2597,1813,o),
(2302,2115,o),
(1931,2115,cs),
(1741,2115,o),
(1569,2036,o),
(1448,1910,c),
(1327,2036,o),
(1155,2115,o),
(965,2115,cs),
(594,2115,o),
(299,1813,o),
(299,1442,cs),
(299,1234,o),
(326,989,o),
(522,793,cs),
(1315,-9,ls),
(1351,-45,o),
(1400,-63,o),
(1448,-63,cs)
);
},
{
closed = 1;
nodes = (
(784,1053,ls),
(694,1146,o),
(667,1264,o),
(667,1442,cs),
(667,1611,o),
(802,1747,o),
(965,1747,cs),
(1128,1747,o),
(1264,1611,o),
(1264,1442,cs),
(1264,1339,o),
(1345,1258,o),
(1448,1258,cs),
(1551,1258,o),
(1632,1339,o),
(1632,1442,cs),
(1632,1611,o),
(1768,1747,o),
(1931,1747,cs),
(2094,1747,o),
(2229,1611,o),
(2229,1442,cs),
(2229,1264,o),
(2202,1146,o),
(2112,1053,cs),
(1448,383,l)
);
}
);
width = 2896;
}
);
metricWidth = symbolBase;
unicode = 1024050;
}
{
color = 11;
glyphname = iconMessage;
layers = (
{
layerId = "CD0E3B44-F66A-4791-B84C-A1128DC61275";
shapes = (
{
closed = 1;
nodes = (
(1421,-75,o),
(1496,-69,o),
(1539,-18,cs),
(1922,422,l),
(2534,422,ls),
(2600,422,o),
(2655,477,o),
(2655,543,cs),
(2655,1991,ls),
(2655,2057,o),
(2600,2112,o),
(2534,2112,cs),
(362,2112,ls),
(296,2112,o),
(241,2057,o),
(241,1991,cs),
(241,543,ls),
(241,477,o),
(296,422,o),
(362,422,cs),
(1198,422,ls),
(1264,422,o),
(1318,477,o),
(1318,543,cs),
(1318,609,o),
(1264,664,o),
(1198,664,cs),
(483,664,l),
(483,1870,l),
(2413,1870,l),
(2413,664,l),
(1864,664,ls),
(1831,664,o),
(1798,649,o),
(1774,621,cs),
(1358,139,ls),
(1312,87,o),
(1318,12,o),
(1370,-30,cs)
);
},
{
closed = 1;
nodes = (
(1071,1146,o),
(1125,1201,o),
(1125,1267,cs),
(1125,1333,o),
(1071,1388,o),
(1005,1388,cs),
(938,1388,o),
(884,1333,o),
(884,1267,cs),
(884,1201,o),
(938,1146,o),
(1005,1146,cs)
);
},
{
closed = 1;
nodes = (
(1514,1146,o),
(1569,1201,o),
(1569,1267,cs),
(1569,1333,o),
(1514,1388,o),
(1448,1388,cs),
(1382,1388,o),
(1327,1333,o),
(1327,1267,cs),
(1327,1201,o),
(1382,1146,o),
(1448,1146,cs)
);
},
{
closed = 1;
nodes = (
(1958,1146,o),
(2012,1201,o),
(2012,1267,cs),
(2012,1333,o),
(1958,1388,o),
(1891,1388,cs),
(1825,1388,o),
(1771,1333,o),
(1771,1267,cs),
(1771,1201,o),
(1825,1146,o),
(1891,1146,cs)
);
}
);
width = 2896;
},
{
layerId = "B1F27B51-9973-4381-9301-4FE46FE1CA59";
shapes = (
{
closed = 1;
nodes = (
(1436,6,o),
(1469,6,o),
(1487,27,cs),
(1891,492,l),
(2534,492,ls),
(2561,492,o),
(2585,516,o),
(2585,543,cs),
(2585,1991,ls),
(2585,2018,o),
(2561,2042,o),
(2534,2042,cs),
(362,2042,ls),
(335,2042,o),
(311,2018,o),
(311,1991,cs),
(311,543,ls),
(311,516,o),
(335,492,o),
(362,492,cs),
(1198,492,ls),
(1225,492,o),
(1249,516,o),
(1249,543,cs),
(1249,570,o),
(1225,594,o),
(1198,594,cs),
(413,594,l),
(413,1940,l),
(2483,1940,l),
(2483,594,l),
(1864,594,ls),
(1852,594,o),
(1837,585,o),
(1825,576,cs),
(1409,94,ls),
(1394,72,o),
(1394,39,o),
(1415,21,cs)
);
},
{
closed = 1;
nodes = (
(1071,1146,o),
(1125,1201,o),
(1125,1267,cs),
(1125,1333,o),
(1071,1388,o),
(1005,1388,cs),
(938,1388,o),
(884,1333,o),
(884,1267,cs),
(884,1201,o),
(938,1146,o),
(1005,1146,cs)
);
},
{
closed = 1;
nodes = (
(1514,1146,o),
(1569,1201,o),
(1569,1267,cs),
(1569,1333,o),
(1514,1388,o),
(1448,1388,cs),
(1382,1388,o),
(1327,1333,o),
(1327,1267,cs),
(1327,1201,o),
(1382,1146,o),
(1448,1146,cs)
);
},
{
closed = 1;
nodes = (
(1958,1146,o),
(2012,1201,o),
(2012,1267,cs),
(2012,1333,o),
(1958,1388,o),
(1891,1388,cs),
(1825,1388,o),
(1771,1333,o),
(1771,1267,cs),
(1771,1201,o),
(1825,1146,o),
(1891,1146,cs)
);
}
);
width = 2896;
},
{
layerId = "5C20EF92-B63D-42A8-8878-93C2863E0093";
shapes = (
{
closed = 1;
nodes = (
(1406,-148,o),
(1523,-136,o),
(1587,-60,cs),
(1952,359,l),
(2534,359,ls),
(2637,359,o),
(2718,440,o),
(2718,543,cs),
(2718,1991,ls),
(2718,2094,o),
(2637,2175,o),
(2534,2175,cs),
(362,2175,ls),
(259,2175,o),
(178,2094,o),
(178,1991,cs),
(178,543,ls),
(178,440,o),
(259,359,o),
(362,359,cs),
(1198,359,ls),
(1300,359,o),
(1382,440,o),
(1382,543,cs),
(1382,646,o),
(1300,727,o),
(1198,727,cs),
(546,727,l),
(546,1807,l),
(2350,1807,l),
(2350,727,l),
(1864,727,ls),
(1813,727,o),
(1762,703,o),
(1726,664,cs),
(1309,181,ls),
(1240,103,o),
(1252,-15,o),
(1327,-78,cs)
);
},
{
closed = 1;
nodes = (
(1071,1146,o),
(1125,1201,o),
(1125,1267,cs),
(1125,1333,o),
(1071,1388,o),
(1005,1388,cs),
(938,1388,o),
(884,1333,o),
(884,1267,cs),
(884,1201,o),
(938,1146,o),
(1005,1146,cs)
);
},
{
closed = 1;
nodes = (
(1514,1146,o),
(1569,1201,o),
(1569,1267,cs),
(1569,1333,o),
(1514,1388,o),
(1448,1388,cs),
(1382,1388,o),
(1327,1333,o),
(1327,1267,cs),
(1327,1201,o),
(1382,1146,o),
(1448,1146,cs)
);
},
{
closed = 1;
nodes = (
(1958,1146,o),
(2012,1201,o),
(2012,1267,cs),
(2012,1333,o),
(1958,1388,o),
(1891,1388,cs),
(1825,1388,o),
(1771,1333,o),
(1771,1267,cs),
(1771,1201,o),
(1825,1146,o),
(1891,1146,cs)
);
}
);
width = 2896;
}
);
metricWidth = symbolBase;
unicode = 1024051;
}
{
color = 11;
glyphname = iconPen;
layers = (
{
layerId = "CD0E3B44-F66A-4791-B84C-A1128DC61275";
shapes = (
{
closed = 1;
nodes = (
(977,-51,ls),
(1008,-51,o),
(1038,-42,o),
(1059,-21,cs),
(2407,1330,ls),
(2428,1351,o),
(2447,1370,o),
(2468,1391,cs),
(2534,1457,o),
(2561,1593,o),
(2468,1701,cs),
(2450,1720,o),
(2428,1741,o),
(2407,1765,cs),
(2187,1985,ls),
(2163,2006,o),
(2142,2027,o),
(2124,2045,cs),
(2009,2142,o),
(1873,2106,o),
(1813,2045,cs),
(1792,2024,o),
(1774,2006,o),
(1753,1985,cs),
(401,637,ls),
(380,615,o),
(371,585,o),
(371,555,cs),
(371,60,ls),
(371,-6,o),
(416,-51,o),
(483,-51,cs)
);
},
{
closed = 1;
nodes = (
(597,510,l),
(1910,1822,ls),
(1934,1846,o),
(1949,1861,o),
(1961,1873,cs),
(1967,1879,o),
(1970,1879,o),
(1976,1873,cs),
(1988,1861,o),
(2003,1849,o),
(2030,1822,cs),
(2244,1608,ls),
(2275,1578,o),
(2281,1569,o),
(2296,1554,cs),
(2299,1551,o),
(2302,1545,o),
(2296,1539,cs),
(2284,1526,o),
(2272,1514,o),
(2244,1487,cs),
(932,175,l),
(597,175,l)
);
}
);
width = 2896;
},
{
layerId = "B1F27B51-9973-4381-9301-4FE46FE1CA59";
shapes = (
{
closed = 1;
nodes = (
(977,9,ls),
(992,9,o),
(1002,15,o),
(1014,24,cs),
(2362,1373,ls),
(2386,1394,o),
(2404,1415,o),
(2419,1433,cs),
(2480,1493,o),
(2477,1605,o),
(2419,1662,cs),
(2404,1680,o),
(2386,1698,o),
(2362,1723,cs),
(2145,1940,ls),
(2121,1964,o),
(2103,1982,o),
(2085,1997,cs),
(2027,2054,o),
(1919,2057,o),
(1855,1997,cs),
(1837,1982,o),
(1816,1964,o),
(1795,1940,cs),
(446,591,l),
(437,582,o),
(431,570,o),
(431,555,cs),
(431,60,ls),
(431,33,o),
(456,9,o),
(483,9,cs)
);
},
{
closed = 1;
nodes = (
(534,534,l),
(1864,1864,ls),
(1891,1891,o),
(1907,1910,o),
(1925,1922,cs),
(1949,1946,o),
(1991,1946,o),
(2018,1922,cs),
(2030,1910,o),
(2048,1891,o),
(2072,1864,cs),
(2287,1650,ls),
(2314,1626,o),
(2332,1608,o),
(2344,1596,cs),
(2371,1569,o),
(2368,1526,o),
(2344,1502,cs),
(2332,1484,o),
(2314,1469,o),
(2287,1442,cs),
(956,112,l),
(534,112,l)
);
}
);
width = 2896;
},
{
layerId = "5C20EF92-B63D-42A8-8878-93C2863E0093";
shapes = (
{
closed = 1;
nodes = (
(977,-124,ls),
(1026,-124,o),
(1074,-106,o),
(1110,-69,cs),
(2459,1279,ls),
(2480,1300,o),
(2504,1324,o),
(2522,1345,cs),
(2625,1463,o),
(2625,1632,o),
(2522,1750,cs),
(2504,1771,o),
(2480,1792,o),
(2459,1813,cs),
(2235,2036,ls),
(2214,2057,o),
(2193,2082,o),
(2172,2100,cs),
(2054,2202,o),
(1885,2202,o),
(1768,2100,cs),
(1747,2082,o),
(1723,2057,o),
(1701,2036,cs),
(353,688,l),
(317,652,o),
(299,603,o),
(299,555,cs),
(299,60,ls),
(299,-39,o),
(383,-124,o),
(483,-124,cs)
);
},
{
closed = 1;
nodes = (
(667,477,l),
(1967,1777,ls),
(1967,1777,o),
(1970,1777,o),
(1967,1777,cs),
(1970,1780,o),
(1970,1780,o),
(1973,1777,cs),
(1973,1777,o),
(1973,1777,o),
(1973,1777,cs),
(2199,1551,ls),
(2199,1551,o),
(2202,1551,o),
(2199,1551,cs),
(2202,1548,o),
(2202,1548,o),
(2199,1545,cs),
(2199,1548,o),
(2199,1545,o),
(2199,1545,cs),
(899,244,l),
(667,244,l)
);
}
);
width = 2896;
}
);
metricWidth = symbolBase;
unicode = 1024053;
}
{
color = 11;
glyphname = iconPerson;
layers = (
{
layerId = "CD0E3B44-F66A-4791-B84C-A1128DC61275";
shapes = (
{
closed = 1;
nodes = (
(480,-262,o),
(543,-217,o),
(552,-154,cs),
(615,220,o),
(944,543,o),
(1448,543,cs),
(1952,543,o),
(2281,220,o),
(2344,-154,cs),
(2353,-217,o),
(2416,-262,o),
(2483,-250,cs),
(2546,-241,o),
(2591,-178,o),
(2579,-112,cs),
(2498,383,o),
(2063,784,o),
(1448,784,cs),
(833,784,o),
(398,383,o),
(317,-112,cs),
(305,-178,o),
(350,-241,o),
(413,-250,cs)
);
},
{
closed = 1;
nodes = (
(1807,881,o),
(2100,1173,o),
(2100,1532,cs),
(2100,1891,o),
(1807,2184,o),
(1448,2184,cs),
(1089,2184,o),
(796,1891,o),
(796,1532,cs),
(796,1173,o),
(1089,881,o),
(1448,881,cs)
);
},
{
closed = 1;
nodes = (
(1222,1122,o),
(1038,1306,o),
(1038,1532,cs),
(1038,1759,o),
(1222,1943,o),
(1448,1943,cs),
(1674,1943,o),
(1858,1759,o),
(1858,1532,cs),
(1858,1306,o),
(1674,1122,o),
(1448,1122,cs)
);
}
);
width = 2896;
},
{
layerId = "B1F27B51-9973-4381-9301-4FE46FE1CA59";
shapes = (
{
closed = 1;
nodes = (
(456,-190,o),
(480,-169,o),
(486,-139,cs),
(552,268,o),
(914,612,o),
(1448,612,cs),
(1982,612,o),
(2344,268,o),
(2410,-139,cs),
(2416,-169,o),
(2440,-190,o),
(2468,-184,cs),
(2498,-178,o),
(2519,-154,o),
(2513,-127,cs),
(2434,335,o),
(2033,715,o),
(1448,715,cs),
(863,715,o),
(462,335,o),
(383,-127,cs),
(377,-154,o),
(398,-178,o),
(428,-184,cs)
);
},
{
closed = 1;
nodes = (
(1807,881,o),
(2100,1173,o),
(2100,1532,cs),
(2100,1891,o),
(1807,2184,o),
(1448,2184,cs),
(1089,2184,o),
(796,1891,o),
(796,1532,cs),
(796,1173,o),
(1089,881,o),
(1448,881,cs)
);
},
{
closed = 1;
nodes = (
(1143,983,o),
(899,1228,o),
(899,1532,cs),
(899,1837,o),
(1143,2082,o),
(1448,2082,cs),
(1753,2082,o),
(1997,1837,o),
(1997,1532,cs),
(1997,1228,o),
(1753,983,o),
(1448,983,cs)
);
}
);
width = 2896;
},
{
layerId = "5C20EF92-B63D-42A8-8878-93C2863E0093";
shapes = (
{
closed = 1;
nodes = (
(507,-332,o),
(600,-265,o),
(615,-163,cs),
(673,178,o),
(977,480,o),
(1448,480,cs),
(1919,480,o),
(2223,178,o),
(2281,-163,cs),
(2296,-265,o),
(2389,-332,o),
(2492,-314,cs),
(2594,-299,o),
(2661,-205,o),
(2643,-103,cs),
(2555,425,o),
(2097,848,o),
(1448,848,cs),
(799,848,o),
(341,425,o),
(253,-103,cs),
(235,-205,o),
(302,-299,o),
(404,-314,cs)
);
},
{
closed = 1;
nodes = (
(1807,881,o),
(2100,1173,o),
(2100,1532,cs),
(2100,1891,o),
(1807,2184,o),
(1448,2184,cs),
(1089,2184,o),
(796,1891,o),
(796,1532,cs),
(796,1173,o),
(1089,881,o),
(1448,881,cs)
);
},
{
closed = 1;
nodes = (
(1291,1252,o),
(1167,1376,o),
(1167,1532,cs),
(1167,1689,o),
(1291,1813,o),
(1448,1813,cs),
(1605,1813,o),
(1729,1689,o),
(1729,1532,cs),
(1729,1376,o),
(1605,1252,o),
(1448,1252,cs)
);
}
);
width = 2896;
}
);
metricWidth = symbolBase;
unicode = 1024054;
}
{
color = 11;
glyphname = iconPersons;
layers = (
{
layerId = "CD0E3B44-F66A-4791-B84C-A1128DC61275";
shapes = (
{
closed = 1;
nodes = (
(428,-181,o),
(483,-127,o),
(483,-60,cs),
(483,422,ls),
(483,465,o),
(495,507,o),
(519,543,cs),
(531,558,ls),
(570,618,o),
(637,655,o),
(709,655,cs),
(1520,655,ls),
(1590,655,o),
(1659,618,o),
(1698,558,cs),
(1710,543,l),
(1732,507,o),
(1744,465,o),
(1744,422,cs),
(1744,-60,ls),
(1744,-127,o),
(1798,-181,o),
(1864,-181,cs),
(1934,-181,o),
(1985,-127,o),
(1985,-60,cs),
(1985,422,ls),
(1985,513,o),
(1961,600,o),
(1910,676,cs),
(1897,694,ls),
(1813,821,o),
(1671,896,o),
(1520,896,cs),
(709,896,ls),
(555,896,o),
(413,821,o),
(329,694,cs),
(317,676,ls),
(268,600,o),
(241,513,o),
(241,422,cs),
(241,-60,ls),
(241,-127,o),
(296,-181,o),
(362,-181,cs)
);
},
{
closed = 1;
nodes = (
(2600,-181,o),
(2655,-127,o),
(2655,-60,cs),
(2655,422,ls),
(2655,513,o),
(2628,600,o),
(2579,676,cs),
(2567,694,ls),
(2483,821,o),
(2341,896,o),
(2187,896,cs),
(2118,896,ls),
(2048,896,o),
(1997,842,o),
(1997,775,cs),
(1997,709,o),
(2048,655,o),
(2118,655,cs),
(2187,655,ls),
(2259,655,o),
(2326,618,o),
(2365,558,cs),
(2377,543,ls),
(2401,507,o),
(2413,465,o),
(2413,422,cs),
(2413,-60,ls),
(2413,-127,o),
(2468,-181,o),
(2534,-181,cs)
);
},
{
closed = 1;
nodes = (
(1457,989,o),
(1735,1267,o),
(1735,1611,cs),
(1735,1955,o),
(1457,2232,o),
(1113,2232,cs),
(769,2232,o),
(492,1955,o),
(492,1611,cs),
(492,1267,o),
(769,989,o),
(1113,989,cs)
);
},
{
closed = 1;
nodes = (
(905,1231,o),
(733,1400,o),
(733,1611,cs),
(733,1822,o),
(905,1991,o),
(1113,1991,cs),
(1324,1991,o),
(1493,1822,o),
(1493,1611,cs),
(1493,1400,o),
(1324,1231,o),
(1113,1231,cs)
);
},
{
closed = 1;
nodes = (
(2127,989,o),
(2404,1267,o),
(2404,1611,cs),
(2404,1955,o),
(2127,2232,o),
(1783,2232,cs),
(1716,2232,o),
(1662,2178,o),
(1662,2112,cs),
(1662,2045,o),
(1716,1991,o),
(1783,1991,cs),
(1991,1991,o),
(2163,1822,o),
(2163,1611,cs),
(2163,1400,o),
(1991,1231,o),
(1783,1231,cs),
(1716,1231,o),
(1662,1177,o),
(1662,1110,cs),
(1662,1044,o),
(1716,989,o),
(1783,989,cs)
);
}
);
width = 2896;
},
{
layerId = "B1F27B51-9973-4381-9301-4FE46FE1CA59";
shapes = (
{
closed = 1;
nodes = (
(389,-112,o),
(413,-87,o),
(413,-60,cs),
(413,422,ls),
(413,480,o),
(428,534,o),
(459,582,cs),
(471,600,ls),
(525,679,o),
(612,724,o),
(709,724,cs),
(1520,724,ls),
(1614,724,o),
(1701,679,o),
(1756,600,cs),
(1768,582,ls),
(1798,534,o),
(1813,480,o),
(1813,422,cs),
(1813,-60,ls),
(1813,-87,o),
(1837,-112,o),
(1864,-112,cs),
(1891,-112,o),
(1916,-87,o),
(1916,-60,cs),
(1916,422,ls),
(1916,498,o),
(1897,582,o),
(1849,643,cs),
(1840,655,ls),
(1765,757,o),
(1650,827,o),
(1520,827,cs),
(709,827,ls),
(579,827,o),
(459,760,o),
(389,655,cs),
(377,637,ls),
(335,573,o),
(311,498,o),
(311,422,cs),
(311,-60,ls),
(311,-87,o),
(335,-112,o),
(362,-112,cs)
);
},
{
closed = 1;
nodes = (
(2561,-112,o),
(2585,-87,o),
(2585,-60,cs),
(2585,422,ls),
(2585,498,o),
(2561,573,o),
(2519,637,cs),
(2507,655,ls),
(2437,760,o),
(2317,827,o),
(2187,827,cs),
(2115,827,ls),
(2085,827,o),
(2063,802,o),
(2063,775,cs),
(2063,748,o),
(2085,724,o),
(2115,724,cs),
(2187,724,ls),
(2284,724,o),
(2371,679,o),
(2425,600,cs),
(2437,582,ls),
(2468,534,o),
(2483,480,o),
(2483,422,cs),
(2483,-60,ls),
(2483,-87,o),
(2507,-112,o),
(2534,-112,cs)
);
},
{
closed = 1;
nodes = (
(1418,1059,o),
(1665,1306,o),
(1665,1611,cs),
(1665,1916,o),
(1418,2163,o),
(1113,2163,cs),
(808,2163,o),
(561,1916,o),
(561,1611,cs),
(561,1306,o),
(808,1059,o),
(1113,1059,cs)
);
},
{
closed = 1;
nodes = (
(866,1161,o),
(664,1361,o),
(664,1611,cs),
(664,1861,o),
(866,2060,o),
(1113,2060,cs),
(1364,2060,o),
(1563,1861,o),
(1563,1611,cs),
(1563,1361,o),
(1364,1161,o),
(1113,1161,cs)
);
},
{
closed = 1;
nodes = (
(2085,1056,o),
(2335,1303,o),
(2335,1611,cs),
(2335,1919,o),
(2085,2166,o),
(1777,2163,cs),
(1747,2163,o),
(1726,2139,o),
(1726,2112,cs),
(1729,2082,o),
(1753,2060,o),
(1780,2060,cs),
(2027,2063,o),
(2232,1861,o),
(2232,1611,cs),
(2232,1361,o),
(2027,1158,o),
(1780,1161,cs),
(1753,1161,o),
(1729,1140,o),
(1726,1110,cs),
(1726,1083,o),
(1747,1059,o),
(1777,1059,cs)
);
}
);
width = 2896;
},
{
layerId = "5C20EF92-B63D-42A8-8878-93C2863E0093";
shapes = (
{
closed = 1;
nodes = (
(465,-244,o),
(546,-163,o),
(546,-60,cs),
(546,422,ls),
(546,453,o),
(555,480,o),
(573,507,cs),
(582,522,ls),
(612,564,o),
(658,591,o),
(709,591,cs),
(1520,591,ls),
(1572,591,o),
(1617,564,o),
(1644,522,cs),
(1656,507,ls),
(1671,480,o),
(1680,453,o),
(1680,422,cs),
(1680,-60,ls),
(1680,-163,o),
(1762,-244,o),
(1864,-244,cs),
(1970,-244,o),
(2048,-163,o),
(2048,-60,cs),
(2048,422,ls),
(2048,525,o),
(2018,624,o),
(1964,712,cs),
(1952,730,ls),
(1855,872,o),
(1692,959,o),
(1520,959,cs),
(709,959,ls),
(537,959,o),
(371,872,o),
(278,730,cs),
(265,712,ls),
(208,627,o),
(178,525,o),
(178,422,cs),
(178,-60,ls),
(178,-163,o),
(259,-244,o),
(362,-244,cs)
);
},
{
closed = 1;
nodes = (
(2637,-244,o),
(2718,-163,o),
(2718,-60,cs),
(2718,422,ls),
(2718,525,o),
(2688,627,o),
(2631,712,cs),
(2618,730,ls),
(2525,872,o),
(2359,959,o),
(2187,959,cs),
(2190,959,ls),
(2088,959,o),
(2006,878,o),
(2006,775,cs),
(2006,673,o),
(2088,591,o),
(2190,591,cs),
(2187,591,ls),
(2238,591,o),
(2284,564,o),
(2314,522,cs),
(2323,507,ls),
(2341,480,o),
(2350,453,o),
(2350,422,cs),
(2350,-60,ls),
(2350,-163,o),
(2431,-244,o),
(2534,-244,cs)
);
},
{
closed = 1;
nodes = (
(1493,926,o),
(1798,1231,o),
(1798,1611,cs),
(1798,1991,o),
(1493,2296,o),
(1113,2296,cs),
(733,2296,o),
(428,1991,o),
(428,1611,cs),
(428,1231,o),
(733,926,o),
(1113,926,cs)
);
},
{
closed = 1;
nodes = (
(941,1294,o),
(796,1436,o),
(796,1611,cs),
(796,1783,o),
(941,1928,o),
(1113,1928,cs),
(1288,1928,o),
(1430,1783,o),
(1430,1611,cs),
(1430,1436,o),
(1288,1294,o),
(1113,1294,cs)
);
},
{
closed = 1;
nodes = (
(2269,1047,o),
(2468,1303,o),
(2468,1611,cs),
(2468,1916,o),
(2269,2172,o),
(1994,2266,cs),
(1897,2296,o),
(1795,2241,o),
(1762,2142,cs),
(1732,2048,o),
(1786,1943,o),
(1882,1910,cs),
(2009,1870,o),
(2100,1750,o),
(2100,1611,cs),
(2100,1469,o),
(2009,1351,o),
(1882,1309,cs),
(1786,1279,o),
(1732,1173,o),
(1762,1074,cs),
(1795,980,o),
(1897,926,o),
(1994,956,cs)
);
}
);
width = 2896;
}
);
metricWidth = symbolBase;
unicode = 1024055;
}
{
color = 11;
glyphname = iconSearch;
layers = (
{
layerId = "CD0E3B44-F66A-4791-B84C-A1128DC61275";
shapes = (
{
closed = 1;
nodes = (
(1720,362,o),
(2112,754,o),
(2112,1237,cs),
(2112,1720,o),
(1720,2112,o),
(1237,2112,cs),
(754,2112,o),
(362,1720,o),
(362,1237,cs),
(362,754,o),
(754,362,o),
(1237,362,cs)
);
},
{
closed = 1;
nodes = (
(887,603,o),
(603,887,o),
(603,1237,cs),
(603,1587,o),
(887,1870,o),
(1237,1870,cs),
(1587,1870,o),
(1870,1587,o),
(1870,1237,cs),
(1870,887,o),
(1587,603,o),
(1237,603,cs)
);
},
{
closed = 1;
nodes = (
(2374,-72,o),
(2453,-72,o),
(2498,-24,cs),
(2546,21,o),
(2546,100,o),
(2498,145,cs),
(1894,748,l),
(1726,579,l),
(2329,-24,ls)
);
}
);
width = 2896;
},
{
layerId = "B1F27B51-9973-4381-9301-4FE46FE1CA59";
shapes = (
{
closed = 1;
nodes = (
(1680,431,o),
(2042,793,o),
(2042,1237,cs),
(2042,1680,o),
(1680,2042,o),
(1237,2042,cs),
(793,2042,o),
(431,1680,o),
(431,1237,cs),
(431,793,o),
(793,431,o),
(1237,431,cs)
);
},
{
closed = 1;
nodes = (
(848,534,o),
(534,848,o),
(534,1237,cs),
(534,1626,o),
(848,1940,o),
(1237,1940,cs),
(1626,1940,o),
(1940,1626,o),
(1940,1237,cs),
(1940,848,o),
(1626,534,o),
(1237,534,cs)
);
},
{
closed = 1;
nodes = (
(2398,6,o),
(2428,6,o),
(2450,24,cs),
(2468,45,o),
(2468,75,o),
(2450,97,cs),
(1846,700,l),
(1774,627,l),
(2377,24,ls)
);
}
);
width = 2896;
},
{
layerId = "5C20EF92-B63D-42A8-8878-93C2863E0093";
shapes = (
{
closed = 1;
nodes = (
(1756,299,o),
(2175,718,o),
(2175,1237,cs),
(2175,1756,o),
(1756,2175,o),
(1237,2175,cs),
(718,2175,o),
(299,1756,o),
(299,1237,cs),
(299,718,o),
(718,299,o),
(1237,299,cs)
);
},
{
closed = 1;
nodes = (
(923,667,o),
(667,923,o),
(667,1237,cs),
(667,1551,o),
(923,1807,o),
(1237,1807,cs),
(1551,1807,o),
(1807,1551,o),
(1807,1237,cs),
(1807,923,o),
(1551,667,o),
(1237,667,cs)
);
},
{
closed = 1;
nodes = (
(2356,-142,o),
(2471,-142,o),
(2543,-69,cs),
(2615,3,o),
(2615,118,o),
(2543,190,cs),
(1940,793,l),
(1680,534,l),
(2284,-69,ls)
);
}
);
width = 2896;
}
);
metricWidth = symbolBase;
unicode = 1024056;
}
{
color = 11;
glyphname = iconShare;
layers = (
{
layerId = "CD0E3B44-F66A-4791-B84C-A1128DC61275";
shapes = (
{
closed = 1;
nodes = (
(1879,1650,ls),
(1934,1689,o),
(1946,1765,o),
(1910,1819,cs),
(1870,1873,o),
(1795,1885,o),
(1741,1849,cs),
(956,1306,ls),
(902,1267,o),
(890,1192,o),
(926,1137,cs),
(965,1083,o),
(1041,1071,o),
(1095,1107,cs)
);
},
{
closed = 1;
nodes = (
(1044,664,o),
(1207,827,o),
(1207,1026,cs),
(1207,1225,o),
(1044,1388,o),
(845,1388,cs),
(646,1388,o),
(483,1225,o),
(483,1026,cs),
(483,827,o),
(646,664,o),
(845,664,cs)
);
},
{
closed = 1;
nodes = (
(778,905,o),
(724,959,o),
(724,1026,cs),
(724,1092,o),
(778,1146,o),
(845,1146,cs),
(911,1146,o),
(965,1092,o),
(965,1026,cs),
(965,959,o),
(911,905,o),
(845,905,cs)
);
},
{
closed = 1;
nodes = (
(1795,166,o),
(1870,178,o),
(1910,232,cs),
(1946,287,o),
(1934,362,o),
(1879,401,cs),
(1095,944,ls),
(1041,980,o),
(965,968,o),
(926,914,cs),
(890,860,o),
(902,784,o),
(956,745,cs),
(1741,202,ls)
);
},
{
closed = 1;
nodes = (
(2250,-181,o),
(2413,-18,o),
(2413,181,cs),
(2413,380,o),
(2250,543,o),
(2051,543,cs),
(1852,543,o),
(1689,380,o),
(1689,181,cs),
(1689,-18,o),
(1852,-181,o),
(2051,-181,cs)
);
},
{
closed = 1;
nodes = (
(1985,60,o),
(1931,115,o),
(1931,181,cs),
(1931,247,o),
(1985,302,o),
(2051,302,cs),
(2118,302,o),
(2172,247,o),
(2172,181,cs),
(2172,115,o),
(2118,60,o),
(2051,60,cs)
);
},
{
closed = 1;
nodes = (
(2250,1508,o),
(2413,1671,o),
(2413,1870,cs),
(2413,2069,o),
(2250,2232,o),
(2051,2232,cs),
(1852,2232,o),
(1689,2069,o),
(1689,1870,cs),
(1689,1671,o),
(1852,1508,o),
(2051,1508,cs)
);
},
{
closed = 1;
nodes = (
(1985,1750,o),
(1931,1804,o),
(1931,1870,cs),
(1931,1937,o),
(1985,1991,o),
(2051,1991,cs),
(2118,1991,o),
(2172,1937,o),
(2172,1870,cs),
(2172,1804,o),
(2118,1750,o),
(2051,1750,cs)
);
}
);
width = 2896;
},
{
layerId = "B1F27B51-9973-4381-9301-4FE46FE1CA59";
shapes = (
{
closed = 1;
nodes = (
(1837,1710,ls),
(1861,1726,o),
(1867,1756,o),
(1849,1777,cs),
(1834,1801,o),
(1804,1807,o),
(1783,1789,cs),
(999,1246,ls),
(974,1231,o),
(968,1201,o),
(986,1180,cs),
(1002,1158,o),
(1029,1146,o),
(1053,1167,cs)
);
},
{
closed = 1;
nodes = (
(1005,733,o),
(1137,866,o),
(1137,1026,cs),
(1137,1186,o),
(1005,1318,o),
(845,1318,cs),
(685,1318,o),
(552,1186,o),
(552,1026,cs),
(552,866,o),
(685,733,o),
(845,733,cs)
);
},
{
closed = 1;
nodes = (
(739,836,o),
(655,920,o),
(655,1026,cs),
(655,1131,o),
(739,1216,o),
(845,1216,cs),
(950,1216,o),
(1035,1131,o),
(1035,1026,cs),
(1035,920,o),
(950,836,o),
(845,836,cs)
);
},
{
closed = 1;
nodes = (
(1804,244,o),
(1834,250,o),
(1849,275,cs),
(1867,296,o),
(1861,326,o),
(1837,341,cs),
(1053,884,ls),
(1032,902,o),
(1002,896,o),
(986,872,cs),
(968,851,o),
(974,821,o),
(999,805,cs),
(1783,262,ls)
);
},
{
closed = 1;
nodes = (
(2211,-112,o),
(2344,21,o),
(2344,181,cs),
(2344,341,o),
(2211,474,o),
(2051,474,cs),
(1891,474,o),
(1759,341,o),
(1759,181,cs),
(1759,21,o),
(1891,-112,o),
(2051,-112,cs)
);
},
{
closed = 1;
nodes = (
(1946,-9,o),
(1861,75,o),
(1861,181,cs),
(1861,287,o),
(1946,371,o),
(2051,371,cs),
(2157,371,o),
(2241,287,o),
(2241,181,cs),
(2241,75,o),
(2157,-9,o),
(2051,-9,cs)
);
},
{
closed = 1;
nodes = (
(2211,1578,o),
(2344,1710,o),
(2344,1870,cs),
(2344,2030,o),
(2211,2163,o),
(2051,2163,cs),
(1891,2163,o),
(1759,2030,o),
(1759,1870,cs),
(1759,1710,o),
(1891,1578,o),
(2051,1578,cs)
);
},
{
closed = 1;
nodes = (
(1946,1680,o),
(1861,1765,o),
(1861,1870,cs),
(1861,1976,o),
(1946,2060,o),
(2051,2060,cs),
(2157,2060,o),
(2241,1976,o),
(2241,1870,cs),
(2241,1765,o),
(2157,1680,o),
(2051,1680,cs)
);
}
);
width = 2896;
},
{
layerId = "5C20EF92-B63D-42A8-8878-93C2863E0093";
shapes = (
{
closed = 1;
nodes = (
(1916,1599,ls),
(1997,1656,o),
(2021,1771,o),
(1961,1855,cs),
(1904,1937,o),
(1789,1961,o),
(1704,1901,cs),
(920,1358,ls),
(839,1300,o),
(815,1186,o),
(875,1101,cs),
(938,1002,o),
(1056,1005,o),
(1131,1056,cs)
);
},
{
closed = 1;
nodes = (
(1080,600,o),
(1270,790,o),
(1270,1026,cs),
(1270,1261,o),
(1080,1451,o),
(845,1451,cs),
(609,1451,o),
(419,1261,o),
(419,1026,cs),
(419,790,o),
(609,600,o),
(845,600,cs)
);
},
{
closed = 1;
nodes = (
(815,968,o),
(787,996,o),
(787,1026,cs),
(787,1056,o),
(815,1083,o),
(845,1083,cs),
(875,1083,o),
(902,1056,o),
(902,1026,cs),
(902,996,o),
(875,968,o),
(845,968,cs)
);
},
{
closed = 1;
nodes = (
(1789,91,o),
(1904,115,o),
(1961,196,cs),
(2021,281,o),
(1997,395,o),
(1916,453,cs),
(1131,996,ls),
(1050,1050,o),
(932,1038,o),
(875,950,cs),
(815,866,o),
(839,751,o),
(920,694,cs),
(1704,151,ls)
);
},
{
closed = 1;
nodes = (
(2287,-244,o),
(2477,-54,o),
(2477,181,cs),
(2477,416,o),
(2287,606,o),
(2051,606,cs),
(1816,606,o),
(1626,416,o),
(1626,181,cs),
(1626,-54,o),
(1816,-244,o),
(2051,-244,cs)
);
},
{
closed = 1;
nodes = (
(2021,124,o),
(1994,151,o),
(1994,181,cs),
(1994,211,o),
(2021,238,o),
(2051,238,cs),
(2082,238,o),
(2109,211,o),
(2109,181,cs),
(2109,151,o),
(2082,124,o),
(2051,124,cs)
);
},
{
closed = 1;
nodes = (
(2287,1445,o),
(2477,1635,o),
(2477,1870,cs),
(2477,2106,o),
(2287,2296,o),
(2051,2296,cs),
(1816,2296,o),
(1626,2106,o),
(1626,1870,cs),
(1626,1635,o),
(1816,1445,o),
(2051,1445,cs)
);
},
{
closed = 1;
nodes = (
(2021,1813,o),
(1994,1840,o),
(1994,1870,cs),
(1994,1901,o),
(2021,1928,o),
(2051,1928,cs),
(2082,1928,o),
(2109,1901,o),
(2109,1870,cs),
(2109,1840,o),
(2082,1813,o),
(2051,1813,cs)
);
}
);
width = 2896;
}
);
metricWidth = symbolBase;
unicode = 1024057;
}
{
color = 11;
glyphname = iconSorting;
layers = (
{
layerId = "CD0E3B44-F66A-4791-B84C-A1128DC61275";
shapes = (
{
closed = 1;
nodes = (
(552,1448,o),
(609,1448,o),
(646,1484,cs),
(929,1768,l),
(1213,1484,ls),
(1246,1448,o),
(1303,1448,o),
(1339,1484,cs),
(1376,1517,o),
(1376,1575,o),
(1339,1611,cs),
(992,1958,ls),
(974,1976,o),
(953,1985,o),
(929,1985,cs),
(905,1985,o),
(881,1976,o),
(863,1958,cs),
(516,1611,ls),
(480,1575,o),
(480,1517,o),
(516,1484,cs)
);
},
{
closed = 1;
nodes = (
(977,66,o),
(1020,106,o),
(1020,157,cs),
(1020,1894,ls),
(1020,1946,o),
(977,1985,o),
(929,1985,cs),
(878,1985,o),
(839,1946,o),
(839,1894,cs),
(839,157,ls),
(839,106,o),
(878,66,o),
(929,66,cs)
);
},
{
closed = 1;
nodes = (
(1994,66,o),
(2015,75,o),
(2033,94,cs),
(2380,440,ls),
(2416,477,o),
(2416,534,o),
(2380,567,cs),
(2347,603,o),
(2290,603,o),
(2253,567,cs),
(1970,284,l),
(1686,567,ls),
(1650,603,o),
(1593,603,o),
(1557,567,cs),
(1523,534,o),
(1523,477,o),
(1557,440,cs),
(1907,94,l),
(1922,75,o),
(1946,66,o),
(1970,66,cs)
);
},
{
closed = 1;
nodes = (
(2021,66,o),
(2060,106,o),
(2060,157,cs),
(2060,1894,ls),
(2060,1946,o),
(2021,1985,o),
(1970,1985,cs),
(1919,1985,o),
(1879,1946,o),
(1879,1894,cs),
(1879,157,ls),
(1879,106,o),
(1919,66,o),
(1970,66,cs)
);
}
);
width = 2896;
},
{
layerId = "B1F27B51-9973-4381-9301-4FE46FE1CA59";
shapes = (
{
closed = 1;
nodes = (
(561,1487,o),
(600,1487,o),
(621,1508,cs),
(929,1816,l),
(1237,1508,ls),
(1255,1487,o),
(1294,1487,o),
(1315,1508,cs),
(1336,1526,o),
(1336,1566,o),
(1315,1587,cs),
(968,1934,ls),
(956,1946,o),
(944,1949,o),
(929,1949,cs),
(911,1949,o),
(899,1946,o),
(887,1934,cs),
(540,1587,ls),
(519,1566,o),
(519,1526,o),
(540,1508,cs)
);
},
{
closed = 1;
nodes = (
(959,103,o),
(983,127,o),
(983,157,cs),
(983,1894,ls),
(983,1925,o),
(959,1949,o),
(929,1949,cs),
(896,1949,o),
(875,1925,o),
(875,1894,cs),
(875,157,ls),
(875,127,o),
(896,103,o),
(929,103,cs)
);
},
{
closed = 1;
nodes = (
(1985,103,o),
(1997,106,o),
(2009,118,cs),
(2356,465,ls),
(2377,486,o),
(2377,525,o),
(2356,543,cs),
(2332,564,o),
(2302,564,o),
(2278,543,cs),
(1970,235,l),
(1662,543,ls),
(1641,564,o),
(1602,564,o),
(1584,543,cs),
(1563,525,o),
(1563,486,o),
(1584,465,cs),
(1931,118,l),
(1940,106,o),
(1955,103,o),
(1970,103,cs)
);
},
{
closed = 1;
nodes = (
(2000,103,o),
(2024,127,o),
(2024,157,cs),
(2024,1894,ls),
(2024,1925,o),
(2000,1949,o),
(1970,1949,cs),
(1940,1949,o),
(1916,1925,o),
(1916,1894,cs),
(1916,157,ls),
(1916,127,o),
(1940,103,o),
(1970,103,cs)
);
}
);
width = 2896;
},
{
layerId = "5C20EF92-B63D-42A8-8878-93C2863E0093";
shapes = (
{
closed = 1;
nodes = (
(543,1412,o),
(618,1412,o),
(667,1457,cs),
(929,1720,l),
(1192,1457,ls),
(1237,1412,o),
(1312,1412,o),
(1361,1457,cs),
(1412,1508,o),
(1412,1584,o),
(1361,1632,cs),
(1014,1979,ls),
(989,2006,o),
(959,2018,o),
(929,2018,cs),
(896,2018,o),
(866,2006,o),
(842,1979,cs),
(495,1632,ls),
(446,1584,o),
(446,1508,o),
(495,1457,cs)
);
},
{
closed = 1;
nodes = (
(996,33,o),
(1053,91,o),
(1053,157,cs),
(1053,1894,ls),
(1053,1961,o),
(996,2018,o),
(929,2018,cs),
(860,2018,o),
(805,1961,o),
(805,1894,cs),
(805,157,ls),
(805,91,o),
(860,33,o),
(929,33,cs)
);
},
{
closed = 1;
nodes = (
(2000,33,o),
(2033,45,o),
(2054,72,cs),
(2401,419,ls),
(2453,468,o),
(2453,543,o),
(2401,594,cs),
(2356,640,o),
(2278,640,o),
(2232,594,cs),
(1970,332,l),
(1707,594,ls),
(1659,640,o),
(1584,640,o),
(1535,594,cs),
(1487,543,o),
(1487,468,o),
(1535,419,cs),
(1885,72,l),
(1907,45,o),
(1937,33,o),
(1970,33,cs)
);
},
{
closed = 1;
nodes = (
(2036,33,o),
(2094,91,o),
(2094,157,cs),
(2094,1894,ls),
(2094,1961,o),
(2036,2018,o),
(1970,2018,cs),
(1904,2018,o),
(1846,1961,o),
(1846,1894,cs),
(1846,157,ls),
(1846,91,o),
(1904,33,o),
(1970,33,cs)
);
}
);
width = 2896;
}
);
metricWidth = symbolBase;
unicode = 1024058;
}
{
color = 11;
glyphname = iconSquare;
layers = (
{
background = {
shapes = (
{
closed = 1;
nodes = (
(0,-679,l),
(2896,-679,l),
(2896,2217,l),
(0,2217,l)
);
}
);
};
layerId = "B1F27B51-9973-4381-9301-4FE46FE1CA59";
shapes = (
{
closed = 1;
nodes = (
(2534,-60,l),
(2534,2112,l),
(362,2112,l),
(362,-60,l)
);
},
{
closed = 1;
nodes = (
(483,1991,l),
(2413,1991,l),
(2413,60,l),
(483,60,l)
);
}
);
width = 2896;
},
{
layerId = "CD0E3B44-F66A-4791-B84C-A1128DC61275";
shapes = (
{
closed = 1;
nodes = (
(2534,-60,l),
(2534,2112,l),
(362,2112,l),
(362,-60,l)
);
},
{
closed = 1;
nodes = (
(603,1870,l),
(2293,1870,l),
(2293,181,l),
(603,181,l)
);
}
);
width = 2896;
},
{
layerId = "5C20EF92-B63D-42A8-8878-93C2863E0093";
shapes = (
{
closed = 1;
nodes = (
(2534,-60,l),
(2534,2112,l),
(362,2112,l),
(362,-60,l)
);
},
{
closed = 1;
nodes = (
(724,1750,l),
(2172,1750,l),
(2172,302,l),
(724,302,l)
);
}
);
width = 2896;
}
);
metricWidth = symbolBase;
unicode = 1024059;
}
{
color = 11;
glyphname = iconSquareFill;
layers = (
{
layerId = "CD0E3B44-F66A-4791-B84C-A1128DC61275";
shapes = (
{
closed = 1;
nodes = (
(2534,-60,l),
(2534,2112,l),
(362,2112,l),
(362,-60,l)
);
}
);
width = 2896;
},
{
layerId = "B1F27B51-9973-4381-9301-4FE46FE1CA59";
shapes = (
{
closed = 1;
nodes = (
(2534,-60,l),
(2534,2112,l),
(362,2112,l),
(362,-60,l)
);
}
);
width = 2896;
},
{
layerId = "5C20EF92-B63D-42A8-8878-93C2863E0093";
shapes = (
{
closed = 1;
nodes = (
(2534,-60,l),
(2534,2112,l),
(362,2112,l),
(362,-60,l)
);
}
);
width = 2896;
}
);
metricWidth = symbolBase;
unicode = 1024060;
}
{
color = 11;
glyphname = iconTooltip;
layers = (
{
layerId = "CD0E3B44-F66A-4791-B84C-A1128DC61275";
shapes = (
{
closed = 1;
nodes = (
(2115,-181,o),
(2655,359,o),
(2655,1026,cs),
(2655,1692,o),
(2115,2232,o),
(1448,2232,cs),
(781,2232,o),
(241,1692,o),
(241,1026,cs),
(241,359,o),
(781,-181,o),
(1448,-181,cs)
);
},
{
closed = 1;
nodes = (
(1750,392,l),
(1750,543,l),
(1569,543,l),
(1569,1207,l),
(1146,1207,l),
(1146,1056,l),
(1327,1056,l),
(1327,543,l),
(1146,543,l),
(1146,392,l)
);
},
{
closed = 1;
nodes = (
(914,60,o),
(483,492,o),
(483,1026,cs),
(483,1560,o),
(914,1991,o),
(1448,1991,cs),
(1982,1991,o),
(2413,1560,o),
(2413,1026,cs),
(2413,492,o),
(1982,60,o),
(1448,60,cs)
);
},
{
closed = 1;
nodes = (
(1532,1358,o),
(1599,1424,o),
(1599,1508,cs),
(1599,1593,o),
(1532,1659,o),
(1448,1659,cs),
(1364,1659,o),
(1297,1593,o),
(1297,1508,cs),
(1297,1424,o),
(1364,1358,o),
(1448,1358,cs)
);
}
);
width = 2896;
},
{
layerId = "B1F27B51-9973-4381-9301-4FE46FE1CA59";
shapes = (
{
closed = 1;
nodes = (
(2115,-181,o),
(2655,359,o),
(2655,1026,cs),
(2655,1692,o),
(2115,2232,o),
(1448,2232,cs),
(781,2232,o),
(241,1692,o),
(241,1026,cs),
(241,359,o),
(781,-181,o),
(1448,-181,cs)
);
},
{
closed = 1;
nodes = (
(1750,462,l),
(1750,576,l),
(1499,576,l),
(1499,1276,l),
(1146,1276,l),
(1146,1158,l),
(1397,1158,l),
(1397,576,l),
(1146,576,l),
(1146,462,l)
);
},
{
closed = 1;
nodes = (
(836,-78,o),
(344,413,o),
(344,1026,cs),
(344,1638,o),
(836,2130,o),
(1448,2130,cs),
(2060,2130,o),
(2552,1638,o),
(2552,1026,cs),
(2552,413,o),
(2060,-78,o),
(1448,-78,cs)
);
},
{
closed = 1;
nodes = (
(1502,1478,o),
(1548,1523,o),
(1548,1578,cs),
(1548,1629,o),
(1502,1674,o),
(1448,1674,cs),
(1394,1674,o),
(1348,1629,o),
(1348,1578,cs),
(1348,1523,o),
(1394,1478,o),
(1448,1478,cs)
);
}
);
width = 2896;
},
{
layerId = "5C20EF92-B63D-42A8-8878-93C2863E0093";
shapes = (
{
closed = 1;
nodes = (
(2115,-181,o),
(2655,359,o),
(2655,1026,cs),
(2655,1692,o),
(2115,2232,o),
(1448,2232,cs),
(781,2232,o),
(241,1692,o),
(241,1026,cs),
(241,359,o),
(781,-181,o),
(1448,-181,cs)
);
},
{
closed = 1;
nodes = (
(1750,392,l),
(1750,606,l),
(1602,606,l),
(1602,1207,l),
(1146,1207,l),
(1146,989,l),
(1294,989,l),
(1294,606,l),
(1146,606,l),
(1146,392,l)
);
},
{
closed = 1;
nodes = (
(983,190,o),
(612,561,o),
(612,1026,cs),
(612,1490,o),
(983,1861,o),
(1448,1861,cs),
(1913,1861,o),
(2284,1490,o),
(2284,1026,cs),
(2284,561,o),
(1913,190,o),
(1448,190,cs)
);
},
{
closed = 1;
nodes = (
(1548,1324,o),
(1632,1406,o),
(1632,1508,cs),
(1632,1608,o),
(1548,1689,o),
(1448,1689,cs),
(1348,1689,o),
(1264,1608,o),
(1264,1508,cs),
(1264,1406,o),
(1348,1324,o),
(1448,1324,cs)
);
}
);
width = 2896;
}
);
metricWidth = symbolBase;
unicode = 1024061;
}
{
color = 11;
glyphname = iconTooltipFill;
layers = (
{
layerId = "B1F27B51-9973-4381-9301-4FE46FE1CA59";
shapes = (
{
closed = 1;
nodes = (
(2115,-181,o),
(2655,359,o),
(2655,1026,cs),
(2655,1692,o),
(2115,2232,o),
(1448,2232,cs),
(781,2232,o),
(241,1692,o),
(241,1026,cs),
(241,359,o),
(781,-181,o),
(1448,-181,cs)
);
},
{
closed = 1;
nodes = (
(1146,422,l),
(1297,422,l),
(1297,1177,l),
(1146,1177,l),
(1146,1327,l),
(1599,1327,l),
(1599,422,l),
(1750,422,l),
(1750,272,l),
(1146,272,l)
);
},
{
closed = 1;
nodes = (
(1364,1478,o),
(1297,1545,o),
(1297,1629,cs),
(1297,1713,o),
(1364,1780,o),
(1448,1780,cs),
(1532,1780,o),
(1599,1713,o),
(1599,1629,cs),
(1599,1545,o),
(1532,1478,o),
(1448,1478,cs)
);
}
);
width = 2896;
},
{
layerId = "CD0E3B44-F66A-4791-B84C-A1128DC61275";
shapes = (
{
closed = 1;
nodes = (
(2115,-181,o),
(2655,359,o),
(2655,1026,cs),
(2655,1692,o),
(2115,2232,o),
(1448,2232,cs),
(781,2232,o),
(241,1692,o),
(241,1026,cs),
(241,359,o),
(781,-181,o),
(1448,-181,cs)
);
},
{
closed = 1;
nodes = (
(1146,422,l),
(1297,422,l),
(1297,1177,l),
(1146,1177,l),
(1146,1327,l),
(1599,1327,l),
(1599,422,l),
(1750,422,l),
(1750,272,l),
(1146,272,l)
);
},
{
closed = 1;
nodes = (
(1364,1478,o),
(1297,1545,o),
(1297,1629,cs),
(1297,1713,o),
(1364,1780,o),
(1448,1780,cs),
(1532,1780,o),
(1599,1713,o),
(1599,1629,cs),
(1599,1545,o),
(1532,1478,o),
(1448,1478,cs)
);
}
);
width = 2896;
},
{
layerId = "5C20EF92-B63D-42A8-8878-93C2863E0093";
shapes = (
{
closed = 1;
nodes = (
(2115,-181,o),
(2655,359,o),
(2655,1026,cs),
(2655,1692,o),
(2115,2232,o),
(1448,2232,cs),
(781,2232,o),
(241,1692,o),
(241,1026,cs),
(241,359,o),
(781,-181,o),
(1448,-181,cs)
);
},
{
closed = 1;
nodes = (
(1146,422,l),
(1297,422,l),
(1297,1177,l),
(1146,1177,l),
(1146,1327,l),
(1599,1327,l),
(1599,422,l),
(1750,422,l),
(1750,272,l),
(1146,272,l)
);
},
{
closed = 1;
nodes = (
(1364,1478,o),
(1297,1545,o),
(1297,1629,cs),
(1297,1713,o),
(1364,1780,o),
(1448,1780,cs),
(1532,1780,o),
(1599,1713,o),
(1599,1629,cs),
(1599,1545,o),
(1532,1478,o),
(1448,1478,cs)
);
}
);
width = 2896;
}
);
metricWidth = symbolBase;
unicode = 1024062;
}
{
color = 11;
glyphname = iconCircle;
layers = (
{
background = {
shapes = (
{
closed = 1;
nodes = (
(2896,-422,l),
(2896,2474,l),
(0,2474,l),
(0,-422,l)
);
}
);
};
layerId = "B1F27B51-9973-4381-9301-4FE46FE1CA59";
shapes = (
{
closed = 1;
nodes = (
(2114,-182,o),
(2654,356,o),
(2654,1024,cs),
(2654,1690,o),
(2114,2230,o),
(1448,2230,cs),
(782,2230,o),
(242,1690,o),
(242,1024,cs),
(244,356,o),
(782,-182,o),
(1448,-182,cs)
);
},
{
closed = 1;
nodes = (
(846,-60,o),
(360,426,o),
(360,1026,cs),
(360,1626,o),
(846,2112,o),
(1446,2112,cs),
(2046,2112,o),
(2532,1626,o),
(2532,1026,cs),
(2532,426,o),
(2046,-60,o),
(1446,-60,cs)
);
}
);
width = 2896;
},
{
background = {
shapes = (
{
closed = 1;
nodes = (
(2896,-422,l),
(2896,2474,l),
(0,2474,l),
(0,-422,l)
);
}
);
};
layerId = "CD0E3B44-F66A-4791-B84C-A1128DC61275";
shapes = (
{
closed = 1;
nodes = (
(2114,-182,o),
(2654,356,o),
(2654,1024,cs),
(2654,1690,o),
(2114,2230,o),
(1448,2230,cs),
(782,2230,o),
(242,1690,o),
(242,1024,cs),
(244,356,o),
(782,-182,o),
(1448,-182,cs)
);
},
{
closed = 1;
nodes = (
(914,58,o),
(482,490,o),
(482,1024,cs),
(482,1558,o),
(914,1990,o),
(1448,1990,cs),
(1982,1990,o),
(2414,1558,o),
(2414,1024,cs),
(2414,490,o),
(1982,58,o),
(1448,58,cs)
);
}
);
width = 2896;
},
{
background = {
shapes = (
{
closed = 1;
nodes = (
(2896,-422,l),
(2896,2474,l),
(0,2474,l),
(0,-422,l)
);
}
);
};
layerId = "5C20EF92-B63D-42A8-8878-93C2863E0093";
shapes = (
{
closed = 1;
nodes = (
(2114,-182,o),
(2654,358,o),
(2654,1024,cs),
(2654,1690,o),
(2114,2230,o),
(1448,2230,cs),
(782,2230,o),
(242,1690,o),
(242,1024,cs),
(242,358,o),
(782,-182,o),
(1448,-182,cs)
);
},
{
closed = 1;
nodes = (
(980,178,o),
(602,556,o),
(602,1024,cs),
(604,1492,o),
(980,1870,o),
(1448,1870,cs),
(1916,1870,o),
(2294,1492,o),
(2294,1024,cs),
(2294,556,o),
(1916,178,o),
(1448,178,cs)
);
}
);
width = 2896;
},
{
associatedMasterId = "CD0E3B44-F66A-4791-B84C-A1128DC61275";
layerId = "BAB5D0DC-9803-4268-9A90-B66353B4E874";
name = "Aug 9, 23 22:55";
shapes = (
{
closed = 1;
nodes = (
(2181,-302,o),
(2775,293,o),
(2775,1026,cs),
(2775,1759,o),
(2181,2353,o),
(1448,2353,cs),
(715,2353,o),
(121,1759,o),
(121,1026,cs),
(121,293,o),
(715,-302,o),
(1448,-302,cs)
);
},
{
closed = 1;
nodes = (
(848,-60,o),
(362,428,o),
(362,1026,cs),
(362,1623,o),
(848,2112,o),
(1448,2112,cs),
(2048,2112,o),
(2534,1623,o),
(2534,1026,cs),
(2534,428,o),
(2048,-60,o),
(1448,-60,cs)
);
}
);
width = 2896;
},
{
associatedMasterId = "5C20EF92-B63D-42A8-8878-93C2863E0093";
layerId = "507A8518-28F3-4C2F-818D-BC8BE8346E68";
name = "Aug 9, 23 22:55";
shapes = (
{
closed = 1;
nodes = (
(2229,-392,o),
(2866,244,o),
(2866,1026,cs),
(2866,1807,o),
(2229,2444,o),
(1448,2444,cs),
(667,2444,o),
(30,1807,o),
(30,1026,cs),
(30,244,o),
(667,-392,o),
(1448,-392,cs)
);
},
{
closed = 1;
nodes = (
(932,91,o),
(513,510,o),
(513,1026,cs),
(513,1542,o),
(932,1961,o),
(1448,1961,cs),
(1964,1961,o),
(2383,1542,o),
(2383,1026,cs),
(2383,510,o),
(1964,91,o),
(1448,91,cs)
);
}
);
width = 2896;
},
{
associatedMasterId = "B1F27B51-9973-4381-9301-4FE46FE1CA59";
layerId = "04A0BD52-FE4A-450E-BEED-77AD490E06A2";
name = "Aug 9, 23 22:55";
shapes = (
{
closed = 1;
nodes = (
(2148,-241,o),
(2715,326,o),
(2715,1026,cs),
(2715,1726,o),
(2148,2293,o),
(1448,2293,cs),
(748,2293,o),
(181,1726,o),
(181,1026,cs),
(181,326,o),
(748,-241,o),
(1448,-241,cs)
);
},
{
closed = 1;
nodes = (
(781,-181,o),
(241,359,o),
(241,1026,cs),
(241,1692,o),
(781,2232,o),
(1448,2232,cs),
(2115,2232,o),
(2655,1692,o),
(2655,1026,cs),
(2655,359,o),
(2115,-181,o),
(1448,-181,cs)
);
}
);
width = 2896;
}
);
metricWidth = symbolBase;
unicode = 1024063;
}
{
color = 11;
glyphname = iconCircleFill;
layers = (
{
background = {
shapes = (
{
closed = 1;
nodes = (
(2896,-422,l),
(2896,2474,l),
(0,2474,l),
(0,-422,l)
);
}
);
};
layerId = "CD0E3B44-F66A-4791-B84C-A1128DC61275";
shapes = (
{
closed = 1;
nodes = (
(2115,-181,o),
(2655,359,o),
(2655,1026,cs),
(2655,1692,o),
(2115,2232,o),
(1448,2232,cs),
(781,2232,o),
(241,1692,o),
(241,1026,cs),
(241,359,o),
(781,-181,o),
(1448,-181,cs)
);
}
);
width = 2896;
},
{
layerId = "B1F27B51-9973-4381-9301-4FE46FE1CA59";
shapes = (
{
closed = 1;
nodes = (
(2115,-181,o),
(2655,359,o),
(2655,1026,cs),
(2655,1692,o),
(2115,2232,o),
(1448,2232,cs),
(781,2232,o),
(241,1692,o),
(241,1026,cs),
(241,359,o),
(781,-181,o),
(1448,-181,cs)
);
}
);
width = 2896;
},
{
layerId = "5C20EF92-B63D-42A8-8878-93C2863E0093";
shapes = (
{
closed = 1;
nodes = (
(2115,-181,o),
(2655,359,o),
(2655,1026,cs),
(2655,1692,o),
(2115,2232,o),
(1448,2232,cs),
(781,2232,o),
(241,1692,o),
(241,1026,cs),
(241,359,o),
(781,-181,o),
(1448,-181,cs)
);
}
);
width = 2896;
}
);
metricWidth = symbolBase;
unicode = 1024064;
}
{
color = 11;
glyphname = logoApple;
layers = (
{
layerId = "B1F27B51-9973-4381-9301-4FE46FE1CA59";
shapes = (
{
closed = 1;
nodes = (
(1225,-235,o),
(1297,-124,o),
(1499,-124,cs),
(1704,-124,o),
(1750,-232,o),
(1931,-232,cs),
(2106,-232,o),
(2226,-63,o),
(2338,103,cs),
(2462,293,o),
(2513,477,o),
(2519,486,c),
(2507,489,o),
(2166,634,o),
(2166,1035,cs),
(2166,1382,o),
(2434,1539,o),
(2450,1551,c),
(2272,1813,o),
(2003,1819,o),
(1931,1819,cs),
(1732,1819,o),
(1569,1695,o),
(1466,1695,cs),
(1358,1695,o),
(1210,1813,o),
(1038,1813,cs),
(712,1813,o),
(377,1532,o),
(377,1008,cs),
(377,679,o),
(501,332,o),
(655,109,cs),
(784,-81,o),
(899,-235,o),
(1062,-235,cs)
);
},
{
closed = 1;
nodes = (
(1599,1849,o),
(1747,1931,o),
(1837,2042,cs),
(1916,2142,o),
(1976,2281,o),
(1976,2419,cs),
(1976,2440,o),
(1973,2459,o),
(1970,2474,c),
(1837,2468,o),
(1677,2383,o),
(1584,2266,cs),
(1508,2178,o),
(1439,2042,o),
(1439,1901,cs),
(1439,1879,o),
(1442,1858,o),
(1445,1852,c),
(1454,1849,o),
(1466,1849,o),
(1481,1849,cs)
);
}
);
width = 2896;
},
{
layerId = "CD0E3B44-F66A-4791-B84C-A1128DC61275";
shapes = (
{
closed = 1;
nodes = (
(1224,-236,o),
(1296,-124,o),
(1498,-124,cs),
(1704,-124,o),
(1749,-232,o),
(1929,-232,cs),
(2106,-232,o),
(2225,-64,o),
(2337,102,cs),
(2462,291,o),
(2514,477,o),
(2518,486,c),
(2506,489,o),
(2167,632,o),
(2167,1034,cs),
(2167,1382,o),
(2434,1538,o),
(2449,1550,c),
(2272,1812,o),
(2003,1819,o),
(1929,1819,cs),
(1730,1819,o),
(1568,1695,o),
(1466,1695,cs),
(1356,1695,o),
(1211,1812,o),
(1039,1812,cs),
(711,1812,o),
(378,1533,o),
(378,1006,cs),
(378,679,o),
(502,333,o),
(654,109,cs),
(785,-81,o),
(898,-236,o),
(1062,-236,cs)
);
},
{
closed = 1;
nodes = (
(1598,1848,o),
(1747,1931,o),
(1836,2041,cs),
(1916,2141,o),
(1974,2281,o),
(1974,2420,cs),
(1974,2439,o),
(1973,2458,o),
(1969,2474,c),
(1837,2468,o),
(1679,2382,o),
(1583,2267,cs),
(1508,2179,o),
(1440,2041,o),
(1440,1900,cs),
(1440,1879,o),
(1443,1859,o),
(1445,1852,c),
(1453,1850,o),
(1466,1848,o),
(1480,1848,cs)
);
}
);
width = 2896;
},
{
layerId = "5C20EF92-B63D-42A8-8878-93C2863E0093";
shapes = (
{
closed = 1;
nodes = (
(1225,-235,o),
(1297,-124,o),
(1499,-124,cs),
(1704,-124,o),
(1750,-232,o),
(1931,-232,cs),
(2106,-232,o),
(2226,-63,o),
(2338,103,cs),
(2462,293,o),
(2513,477,o),
(2519,486,c),
(2507,489,o),
(2166,634,o),
(2166,1035,cs),
(2166,1382,o),
(2434,1539,o),
(2450,1551,c),
(2272,1813,o),
(2003,1819,o),
(1931,1819,cs),
(1732,1819,o),
(1569,1695,o),
(1466,1695,cs),
(1358,1695,o),
(1210,1813,o),
(1038,1813,cs),
(712,1813,o),
(377,1532,o),
(377,1008,cs),
(377,679,o),
(501,332,o),
(655,109,cs),
(784,-81,o),
(899,-235,o),
(1062,-235,cs)
);
},
{
closed = 1;
nodes = (
(1599,1849,o),
(1747,1931,o),
(1837,2042,cs),
(1916,2142,o),
(1976,2281,o),
(1976,2419,cs),
(1976,2440,o),
(1973,2459,o),
(1970,2474,c),
(1837,2468,o),
(1677,2383,o),
(1584,2266,cs),
(1508,2178,o),
(1439,2042,o),
(1439,1901,cs),
(1439,1879,o),
(1442,1858,o),
(1445,1852,c),
(1454,1849,o),
(1466,1849,o),
(1481,1849,cs)
);
}
);
width = 2896;
}
);
metricWidth = symbolBase;
unicode = 1024073;
}
{
color = 11;
glyphname = logoGoogleplay;
layers = (
{
layerId = "B1F27B51-9973-4381-9301-4FE46FE1CA59";
shapes = (
{
closed = 1;
nodes = (
(1300,1026,l),
(368,1958,l),
(368,94,l)
);
},
{
closed = 1;
nodes = (
(1846,480,l),
(1385,941,l),
(401,-42,l),
(471,-166,o),
(630,-226,o),
(778,-142,cs)
);
},
{
closed = 1;
nodes = (
(1846,1575,l),
(778,2193,ls),
(630,2278,o),
(471,2217,o),
(401,2094,c),
(1385,1110,l)
);
},
{
closed = 1;
nodes = (
(2386,790,ls),
(2576,902,o),
(2576,1149,o),
(2386,1261,cs),
(1955,1511,l),
(1469,1026,l),
(1955,540,l)
);
}
);
width = 2896;
},
{
layerId = "CD0E3B44-F66A-4791-B84C-A1128DC61275";
shapes = (
{
closed = 1;
nodes = (
(1300,1026,l),
(368,1958,l),
(368,94,l)
);
},
{
closed = 1;
nodes = (
(1846,480,l),
(1385,941,l),
(401,-42,l),
(471,-166,o),
(630,-226,o),
(778,-142,cs)
);
},
{
closed = 1;
nodes = (
(1846,1575,l),
(778,2193,ls),
(630,2278,o),
(471,2217,o),
(401,2094,c),
(1385,1110,l)
);
},
{
closed = 1;
nodes = (
(2386,790,ls),
(2576,902,o),
(2576,1149,o),
(2386,1261,cs),
(1955,1511,l),
(1469,1026,l),
(1955,540,l)
);
}
);
width = 2896;
},
{
background = {
shapes = (
{
attr = {
lineCapEnd = "3";
lineCapStart = "3";
strokeWidth = 40;
};
closed = 0;
nodes = (
(377,18,l),
(1901,1542,l)
);
},
{
attr = {
lineCapEnd = "3";
lineCapStart = "3";
strokeWidth = 40;
};
closed = 0;
nodes = (
(377,2033,l),
(1901,510,l)
);
},
{
attr = {
strokeWidth = 40;
};
closed = 0;
nodes = (
(1901,510,l),
(377,2033,l)
);
},
{
closed = 1;
nodes = (
(2386,790,ls),
(2576,902,o),
(2576,1149,o),
(2386,1261,cs),
(778,2193,ls),
(585,2305,o),
(368,2166,o),
(368,1961,cs),
(368,91,ls),
(368,-115,o),
(585,-253,o),
(778,-142,cs)
);
}
);
};
layerId = "5C20EF92-B63D-42A8-8878-93C2863E0093";
shapes = (
{
closed = 1;
nodes = (
(1300,1026,l),
(368,1958,l),
(368,94,l)
);
},
{
closed = 1;
nodes = (
(1846,480,l),
(1385,941,l),
(401,-42,l),
(471,-166,o),
(630,-226,o),
(778,-142,cs)
);
},
{
closed = 1;
nodes = (
(1846,1575,l),
(778,2193,ls),
(630,2278,o),
(471,2217,o),
(401,2094,c),
(1385,1110,l)
);
},
{
closed = 1;
nodes = (
(2386,790,ls),
(2576,902,o),
(2576,1149,o),
(2386,1261,cs),
(1955,1511,l),
(1469,1026,l),
(1955,540,l)
);
}
);
width = 2896;
}
);
metricWidth = symbolBase;
unicode = 1024076;
}
{
color = 8;
glyphname = A.ss20;
layers = (
{
background = {
shapes = (
{
pos = (-1436,0);
ref = V;
}
);
};
guides = (
{
pos = (890,1364);
},
{
orientation = center;
angle = 90;
pos = (-118,964);
}
);
layerId = "5C20EF92-B63D-42A8-8878-93C2863E0093";
shapes = (
{
closed = 1;
nodes = (
(986,1484,l),
(1000,1484,l),
(1332,0,l),
(1928,0,l),
(1374,2048,l),
(610,2048,l),
(58,0,l),
(654,0,l)
);
},
{
closed = 1;
nodes = (
(502,392,l),
(1474,392,l),
(1474,808,l),
(502,808,l)
);
}
);
userData = {
RMXScaler = {
width = 84;
};
};
width = 1984;
},
{
layerId = "B1F27B51-9973-4381-9301-4FE46FE1CA59";
shapes = (
{
closed = 1;
nodes = (
(796,1968,l),
(804,1968,l),
(1470,0,l),
(1538,0,l),
(844,2048,l),
(756,2048,l),
(62,0,l),
(130,0,l)
);
},
{
closed = 1;
nodes = (
(348,692,l),
(1252,692,l),
(1252,756,l),
(348,756,l)
);
}
);
userData = {
RMXScaler = {
width = 95;
};
};
width = 1600;
},
{
layerId = "CD0E3B44-F66A-4791-B84C-A1128DC61275";
shapes = (
{
closed = 1;
nodes = (
(882,1718,l),
(898,1718,l),
(1448,0,l),
(1716,0,l),
(1032,2048,l),
(748,2048,l),
(64,0,l),
(332,0,l)
);
},
{
closed = 1;
nodes = (
(390,576,l),
(1392,576,l),
(1392,800,l),
(390,800,l)
);
}
);
userData = {
RMXScaler = {
width = 95;
};
};
width = 1780;
}
);
userData = {
RMXScaler = {
source = A;
};
com.typemytype.robofont.guideline.magnetic.9EkLRXjahr = 5;
"interface.width-adjustments" = (
-16
);
};
}
{
color = 8;
glyphname = M.ss20;
layers = (
{
guides = (
{
pos = (44,1220);
},
{
orientation = center;
angle = 90;
pos = (-44,2164);
}
);
layerId = "5C20EF92-B63D-42A8-8878-93C2863E0093";
shapes = (
{
closed = 1;
nodes = (
(612,0,l),
(612,1192,l),
(636,1192,l),
(804,480,l),
(1180,480,l),
(1348,1184,l),
(1372,1184,l),
(1372,0,l),
(1850,0,l),
(1850,2048,l),
(1230,2048,l),
(1004,968,l),
(980,968,l),
(754,2048,l),
(134,2048,l),
(134,0,l)
);
}
);
userData = {
RMXScaler = {
width = 72.5;
};
};
width = 1984;
},
{
layerId = "B1F27B51-9973-4381-9301-4FE46FE1CA59";
shapes = (
{
closed = 1;
nodes = (
(196,0,l),
(196,1848,l),
(202,1848,l),
(774,480,l),
(828,480,l),
(1398,1848,l),
(1404,1848,l),
(1404,0,l),
(1468,0,l),
(1468,2048,l),
(1412,2048,l),
(804,588,l),
(798,588,l),
(188,2048,l),
(132,2048,l),
(132,0,l)
);
}
);
userData = {
RMXScaler = {
width = 67.5;
};
};
width = 1600;
},
{
layerId = "CD0E3B44-F66A-4791-B84C-A1128DC61275";
shapes = (
{
closed = 1;
nodes = (
(384,0,l),
(384,1548,l),
(400,1548,l),
(800,480,l),
(980,480,l),
(1380,1546,l),
(1396,1546,l),
(1396,0,l),
(1636,0,l),
(1636,2048,l),
(1334,2048,l),
(898,874,l),
(882,874,l),
(446,2048,l),
(144,2048,l),
(144,0,l)
);
}
);
userData = {
RMXScaler = {
width = 70;
};
};
width = 1780;
}
);
userData = {
RMXScaler = {
source = M;
};
com.typemytype.robofont.guideline.magnetic.ezYETy42tZ = 5;
com.typemytype.robofont.guideline.magnetic.wu5HJlZVk6 = 5;
com.typemytype.robofont.guideline.magnetic.x5YoYrsuLC = 5;
"interface.width-adjustments" = (
-16
);
};
}
{
color = 8;
glyphname = W.ss20;
layers = (
{
guides = (
{
orientation = center;
angle = 90;
pos = (324,2076);
}
);
layerId = "5C20EF92-B63D-42A8-8878-93C2863E0093";
shapes = (
{
closed = 1;
nodes = (
(890,0,l),
(980,1144,l),
(1004,1144,l),
(1094,0,l),
(1620,0,l),
(1918,2048,l),
(1384,2048,l),
(1314,784,l),
(1290,784,l),
(1196,1568,l),
(788,1568,l),
(694,784,l),
(670,784,l),
(600,2048,l),
(66,2048,l),
(364,0,l)
);
}
);
userData = {
RMXScaler = {
width = 52.5;
};
};
width = 1984;
},
{
layerId = "B1F27B51-9973-4381-9301-4FE46FE1CA59";
shapes = (
{
closed = 1;
nodes = (
(478,0,l),
(796,1468,l),
(804,1468,l),
(1124,0,l),
(1222,0,l),
(1568,2048,l),
(1504,2048,l),
(1174,102,l),
(1166,102,l),
(848,1568,l),
(752,1568,l),
(436,102,l),
(428,102,l),
(96,2048,l),
(32,2048,l),
(380,0,l)
);
}
);
userData = {
RMXScaler = {
width = 65;
};
};
width = 1600;
},
{
layerId = "CD0E3B44-F66A-4791-B84C-A1128DC61275";
shapes = (
{
closed = 1;
nodes = (
(634,0,l),
(882,1228,l),
(898,1228,l),
(1146,0,l),
(1388,0,l),
(1752,2048,l),
(1488,2048,l),
(1264,390,l),
(1248,390,l),
(1008,1568,l),
(772,1568,l),
(532,390,l),
(516,390,l),
(292,2048,l),
(28,2048,l),
(392,0,l)
);
}
);
userData = {
RMXScaler = {
width = 62.5;
};
};
width = 1780;
}
);
userData = {
RMXScaler = {
source = W;
};
com.typemytype.robofont.guideline.magnetic.8gZT6dIVxI = 5;
com.typemytype.robofont.guideline.magnetic.ZoWqubfLj9 = 5;
com.typemytype.robofont.guideline.magnetic.k6chDe7LUI = 5;
com.typemytype.robofont.guideline.magnetic.tUpIEqa0MC = 5;
"interface.width-adjustments" = (
-16
);
};
}
{
color = 8;
glyphname = e.ss20;
layers = (
{
background = {
shapes = (
{
closed = 0;
nodes = (
(240,686,l),
(240,212,o),
(618,-30,o),
(1030,-30,cs),
(1448,-30,o),
(1824,216,o),
(1824,686,c)
);
},
{
closed = 0;
nodes = (
(1808,842,l),
(1808,1314,o),
(1436,1558,o),
(1022,1558,cs),
(614,1558,o),
(240,1316,o),
(240,842,c)
);
},
{
closed = 0;
nodes = (
(804,842,l),
(804,1068,o),
(892,1154,o),
(1038,1154,cs),
(1188,1154,o),
(1276,1068,o),
(1276,842,c)
);
},
{
closed = 0;
nodes = (
(1292,686,l),
(1292,462,o),
(1202,374,o),
(1046,374,cs),
(894,374,o),
(804,460,o),
(804,686,c)
);
}
);
};
guides = (
{
orientation = center;
angle = 90;
pos = (-1460,1004);
},
{
pos = (992,768);
}
);
layerId = "5C20EF92-B63D-42A8-8878-93C2863E0093";
shapes = (
{
closed = 1;
nodes = (
(1372,-30,o),
(1682,150,o),
(1770,496,c),
(1228,496,l),
(1188,410,o),
(1114,374,o),
(1014,374,cs),
(862,374,o),
(772,460,o),
(772,686,cs),
(772,944,ls),
(772,1068,o),
(860,1154,o),
(1006,1154,cs),
(1156,1154,o),
(1244,1068,o),
(1244,944,c),
(1244,944,l),
(360,944,l),
(360,640,l),
(1776,642,l),
(1776,842,ls),
(1776,1314,o),
(1404,1558,o),
(990,1558,cs),
(582,1558,o),
(208,1316,o),
(208,842,cs),
(208,686,ls),
(208,212,o),
(602,-30,o),
(1014,-30,cs)
);
}
);
width = 1984;
},
{
layerId = "B1F27B51-9973-4381-9301-4FE46FE1CA59";
shapes = (
{
closed = 1;
nodes = (
(1088,-32,o),
(1258,98,o),
(1344,316,c),
(1276,316,l),
(1196,136,o),
(1050,32,o),
(832,32,cs),
(514,32,o),
(300,256,o),
(300,620,cs),
(300,908,ls),
(300,1272,o),
(492,1496,o),
(800,1496,cs),
(1110,1496,o),
(1300,1272,o),
(1300,908,c),
(1300,832,l),
(264,832,l),
(264,768,l),
(1364,768,l),
(1364,908,ls),
(1364,1304,o),
(1148,1560,o),
(800,1560,cs),
(454,1560,o),
(236,1304,o),
(236,908,cs),
(236,620,ls),
(236,224,o),
(476,-32,o),
(832,-32,cs)
);
}
);
width = 1600;
},
{
layerId = "CD0E3B44-F66A-4791-B84C-A1128DC61275";
shapes = (
{
closed = 1;
nodes = (
(1206,-32,o),
(1440,112,o),
(1516,360,c),
(1246,360,l),
(1198,246,o),
(1074,184,o),
(924,184,cs),
(670,184,o),
(484,366,o),
(484,678,cs),
(484,894,ls),
(484,1158,o),
(654,1340,o),
(890,1340,cs),
(1124,1340,o),
(1296,1158,o),
(1296,894,c),
(1296,894,l),
(372,894,l),
(372,686,l),
(1540,686,l),
(1540,846,ls),
(1540,1288,o),
(1256,1556,o),
(890,1556,cs),
(524,1556,o),
(240,1288,o),
(240,846,cs),
(240,678,ls),
(240,238,o),
(540,-32,o),
(924,-32,cs)
);
}
);
vertWidth = 0;
width = 1780;
}
);
userData = {
RMXScaler = {
source = e;
};
com.typemytype.robofont.guideline.magnetic.5XWlAkuiPv = 5;
"interface.width-adjustments" = (
-16
);
};
}
{
color = 8;
glyphname = l.ss20;
layers = (
{
layerId = "5C20EF92-B63D-42A8-8878-93C2863E0093";
shapes = (
{
closed = 1;
nodes = (
(1716,0,l),
(1716,400,l),
(1268,400,l),
(1268,2048,l),
(300,2048,l),
(300,1648,l),
(716,1648,l),
(716,400,l),
(268,400,l),
(268,0,l)
);
}
);
width = 1984;
},
{
layerId = "B1F27B51-9973-4381-9301-4FE46FE1CA59";
shapes = (
{
closed = 1;
nodes = (
(1416,0,l),
(1416,64,l),
(888,64,l),
(888,2048,l),
(292,2048,l),
(292,1984,l),
(824,1984,l),
(824,64,l),
(276,64,l),
(276,0,l)
);
}
);
width = 1600;
},
{
layerId = "CD0E3B44-F66A-4791-B84C-A1128DC61275";
shapes = (
{
closed = 1;
nodes = (
(1566,0,l),
(1566,204,l),
(1060,204,l),
(1060,2048,l),
(316,2048,l),
(316,1844,l),
(816,1844,l),
(816,204,l),
(284,204,l),
(284,0,l)
);
}
);
vertWidth = 0;
width = 1780;
}
);
userData = {
RMXScaler = {
source = l;
};
"interface.width-adjustments" = (
-16
);
};
}
{
color = 8;
glyphname = m.ss20;
layers = (
{
guides = (
{
orientation = center;
angle = 90;
pos = (-2384,32);
}
);
layerId = "5C20EF92-B63D-42A8-8878-93C2863E0093";
shapes = (
{
closed = 1;
nodes = (
(614,0,l),
(614,992,ls),
(614,1072,o),
(640,1112,o),
(694,1112,cs),
(748,1112,o),
(774,1072,o),
(774,992,cs),
(774,0,l),
(1210,0,l),
(1210,992,ls),
(1210,1072,o),
(1236,1112,o),
(1290,1112,cs),
(1344,1112,o),
(1370,1072,o),
(1370,992,cs),
(1370,0,l),
(1866,0,l),
(1866,1036,ls),
(1866,1370,o),
(1746,1556,o),
(1530,1556,cs),
(1364,1556,o),
(1256,1444,o),
(1228,1308,c),
(1212,1308,l),
(1208,1452,o),
(1098,1556,o),
(938,1556,cs),
(794,1556,o),
(700,1472,o),
(648,1308,c),
(632,1308,l),
(632,1536,l),
(118,1536,l),
(118,0,l)
);
}
);
userData = {
RMXScaler = {
width = 70;
};
};
width = 1984;
},
{
layerId = "B1F27B51-9973-4381-9301-4FE46FE1CA59";
shapes = (
{
closed = 1;
nodes = (
(208,0,l),
(208,1032,ls),
(208,1328,o),
(318,1492,o),
(496,1492,cs),
(676,1492,o),
(768,1328,o),
(768,1032,cs),
(768,0,l),
(832,0,l),
(832,1032,ls),
(832,1328,o),
(944,1492,o),
(1124,1492,cs),
(1304,1492,o),
(1392,1328,o),
(1392,1032,cs),
(1392,0,l),
(1456,0,l),
(1456,1032,ls),
(1456,1368,o),
(1338,1556,o),
(1126,1556,cs),
(974,1556,o),
(848,1458,o),
(806,1280,c),
(798,1280,l),
(752,1458,o),
(644,1556,o),
(496,1556,cs),
(364,1556,o),
(264,1496,o),
(216,1358,c),
(208,1358,l),
(208,1536,l),
(144,1536,l),
(144,0,l)
);
}
);
userData = {
RMXScaler = {
width = 70;
};
};
width = 1600;
},
{
layerId = "CD0E3B44-F66A-4791-B84C-A1128DC61275";
shapes = (
{
closed = 1;
nodes = (
(392,0,l),
(392,958,ls),
(392,1212,o),
(456,1338,o),
(590,1338,cs),
(708,1338,o),
(768,1242,o),
(768,1048,cs),
(768,0,l),
(1012,0,l),
(1012,998,ls),
(1012,1226,o),
(1078,1338,o),
(1206,1338,cs),
(1330,1338,o),
(1388,1234,o),
(1388,1024,cs),
(1388,0,l),
(1632,0,l),
(1632,1028,ls),
(1632,1366,o),
(1504,1556,o),
(1280,1556,cs),
(1140,1556,o),
(1034,1484,o),
(984,1348,c),
(968,1348,l),
(924,1484,o),
(816,1556,o),
(682,1556,cs),
(548,1556,o),
(438,1482,o),
(394,1348,c),
(378,1348,l),
(378,1536,l),
(148,1536,l),
(148,0,l)
);
}
);
userData = {
RMXScaler = {
width = 72;
};
};
vertWidth = 0;
width = 1780;
},
{
associatedMasterId = "5C20EF92-B63D-42A8-8878-93C2863E0093";
guides = (
{
orientation = center;
angle = 90;
pos = (-2384,32);
}
);
layerId = "E47CA58D-7BB6-43D1-A193-7106A505B98E";
name = "Aug 19, 23 17:53";
shapes = (
{
closed = 1;
nodes = (
(614,0,l),
(614,992,ls),
(614,1072,o),
(640,1112,o),
(694,1112,cs),
(748,1112,o),
(774,1072,o),
(774,992,cs),
(774,0,l),
(1210,0,l),
(1210,992,ls),
(1210,1072,o),
(1236,1112,o),
(1290,1112,cs),
(1344,1112,o),
(1370,1072,o),
(1370,992,cs),
(1370,0,l),
(1866,0,l),
(1866,1036,ls),
(1866,1370,o),
(1746,1556,o),
(1530,1556,cs),
(1364,1556,o),
(1256,1444,o),
(1228,1244,c),
(1212,1244,l),
(1208,1444,o),
(1110,1556,o),
(940,1556,cs),
(798,1556,o),
(692,1444,o),
(648,1244,c),
(632,1244,l),
(632,1536,l),
(118,1536,l),
(118,0,l)
);
}
);
userData = {
RMXScaler = {
width = 70;
};
};
width = 1984;
},
{
associatedMasterId = "CD0E3B44-F66A-4791-B84C-A1128DC61275";
layerId = "F6F3DE10-46A3-4855-BBB2-311BC94067D3";
name = "Aug 19, 23 17:53";
shapes = (
{
closed = 1;
nodes = (
(392,0,l),
(392,958,ls),
(392,1212,o),
(456,1338,o),
(590,1338,cs),
(708,1338,o),
(768,1242,o),
(768,1048,cs),
(768,0,l),
(1012,0,l),
(1012,998,ls),
(1012,1226,o),
(1078,1338,o),
(1206,1338,cs),
(1330,1338,o),
(1388,1234,o),
(1388,1024,cs),
(1388,0,l),
(1632,0,l),
(1632,1028,ls),
(1632,1366,o),
(1514,1556,o),
(1300,1556,cs),
(1148,1556,o),
(1034,1462,o),
(984,1294,c),
(968,1294,l),
(924,1462,o),
(826,1556,o),
(682,1556,cs),
(540,1556,o),
(438,1462,o),
(394,1294,c),
(378,1294,l),
(378,1536,l),
(148,1536,l),
(148,0,l)
);
}
);
userData = {
RMXScaler = {
width = 72;
};
};
vertWidth = 0;
width = 1780;
},
{
associatedMasterId = "B1F27B51-9973-4381-9301-4FE46FE1CA59";
layerId = "6E42E92C-76F4-4362-AC4A-D7FAC3FB40E5";
name = "Aug 19, 23 17:53";
shapes = (
{
closed = 1;
nodes = (
(208,0,l),
(208,1032,ls),
(208,1328,o),
(318,1492,o),
(496,1492,cs),
(676,1492,o),
(768,1328,o),
(768,1032,cs),
(768,0,l),
(832,0,l),
(832,1032,ls),
(832,1328,o),
(944,1492,o),
(1124,1492,cs),
(1304,1492,o),
(1392,1328,o),
(1392,1032,cs),
(1392,0,l),
(1456,0,l),
(1456,1032,ls),
(1456,1368,o),
(1338,1556,o),
(1126,1556,cs),
(974,1556,o),
(846,1458,o),
(804,1280,c),
(796,1280,l),
(750,1458,o),
(644,1556,o),
(496,1556,cs),
(364,1556,o),
(264,1478,o),
(216,1340,c),
(208,1340,l),
(208,1536,l),
(144,1536,l),
(144,0,l)
);
}
);
userData = {
RMXScaler = {
width = 70;
};
};
width = 1600;
}
);
userData = {
RMXScaler = {
source = m;
};
"interface.width-adjustments" = (
-16
);
};
}
{
color = 8;
glyphname = p.ss20;
layers = (
{
background = {
shapes = (
{
ref = o.ss20;
}
);
};
layerId = "5C20EF92-B63D-42A8-8878-93C2863E0093";
shapes = (
{
closed = 1;
nodes = (
(1558,-30,o),
(1776,246,o),
(1776,686,cs),
(1776,842,ls),
(1776,1282,o),
(1558,1558,o),
(1210,1558,cs),
(864,1558,o),
(692,1282,o),
(692,842,cs),
(692,686,ls),
(692,246,o),
(864,-30,o),
(1210,-30,cs)
);
},
{
closed = 1;
nodes = (
(758,-576,l),
(758,260,l),
(768,260,l),
(734,764,l),
(768,1268,l),
(752,1268,l),
(752,1536,l),
(206,1536,l),
(206,-576,l)
);
},
{
closed = 1;
nodes = (
(860,374,o),
(780,460,o),
(780,686,cs),
(780,842,ls),
(780,1068,o),
(860,1154,o),
(994,1154,cs),
(1132,1154,o),
(1212,1066,o),
(1212,842,cs),
(1212,686,ls),
(1212,460,o),
(1132,374,o),
(994,374,cs)
);
}
);
userData = {
RMXScaler = {
width = 110;
};
};
width = 1984;
},
{
background = {
shapes = (
{
ref = o.ss20;
}
);
};
guides = (
{
angle = 90;
pos = (770,2252);
}
);
layerId = "B1F27B51-9973-4381-9301-4FE46FE1CA59";
shapes = (
{
closed = 1;
nodes = (
(1144,-32,o),
(1360,224,o),
(1360,620,cs),
(1360,908,ls),
(1360,1304,o),
(1144,1560,o),
(800,1560,cs),
(456,1560,o),
(256,1304,o),
(256,908,cs),
(256,620,ls),
(256,224,o),
(456,-32,o),
(800,-32,cs)
);
},
{
closed = 1;
nodes = (
(304,-576,l),
(304,296,l),
(328,296,l),
(274,764,l),
(328,1232,l),
(304,1232,l),
(304,1536,l),
(240,1536,l),
(240,-576,l)
);
},
{
closed = 1;
nodes = (
(496,32,o),
(304,256,o),
(304,620,cs),
(304,908,ls),
(304,1272,o),
(496,1496,o),
(800,1496,cs),
(1104,1496,o),
(1296,1272,o),
(1296,908,cs),
(1296,620,ls),
(1296,256,o),
(1104,32,o),
(800,32,cs)
);
}
);
width = 1600;
},
{
background = {
shapes = (
{
ref = o.ss20;
}
);
};
layerId = "CD0E3B44-F66A-4791-B84C-A1128DC61275";
shapes = (
{
closed = 1;
nodes = (
(1302,-32,o),
(1546,238,o),
(1546,678,cs),
(1546,846,ls),
(1546,1286,o),
(1302,1556,o),
(948,1556,cs),
(598,1556,o),
(398,1286,o),
(398,846,cs),
(398,678,ls),
(398,236,o),
(598,-32,o),
(948,-32,cs)
);
},
{
closed = 1;
nodes = (
(476,-576,l),
(476,232,l),
(510,232,l),
(444,770,l),
(510,1288,l),
(468,1288,l),
(468,1536,l),
(232,1536,l),
(232,-576,l)
);
},
{
closed = 1;
nodes = (
(624,184,o),
(470,366,o),
(470,678,cs),
(470,846,ls),
(470,1158,o),
(624,1340,o),
(884,1340,cs),
(1148,1340,o),
(1302,1156,o),
(1302,846,cs),
(1302,678,ls),
(1302,366,o),
(1148,184,o),
(884,184,cs)
);
}
);
width = 1780;
}
);
userData = {
RMXScaler = {
source = p;
};
"interface.width-adjustments" = (
-16
);
};
}
{
color = 8;
glyphname = t.ss20;
layers = (
{
background = {
shapes = (
{
closed = 1;
nodes = (
(1373,1,o),
(1508,0,o),
(1656,-1,c),
(1656,396,l),
(1525,397,o),
(1404,397,o),
(1280,397,cs),
(1196,397,o),
(1145,442,o),
(1145,516,cs),
(1145,1159,l),
(1130,1562,l),
(1130,2065,l),
(599,2065,l),
(599,526,ls),
(599,127,o),
(753,1,o),
(1231,1,cs)
);
},
{
closed = 1;
nodes = (
(1687,1159,l),
(1687,1562,l),
(184,1562,l),
(184,1159,l)
);
}
);
};
guides = (
{
angle = 90;
pos = (1840,2408);
}
);
layerId = "5C20EF92-B63D-42A8-8878-93C2863E0093";
shapes = (
{
closed = 1;
nodes = (
(1648,-22,l),
(1648,402,l),
(1304,402,ls),
(1210,402,o),
(1162,444,o),
(1162,528,cs),
(1162,1904,l),
(610,1904,l),
(608,528,ls),
(608,160,o),
(818,-22,o),
(1240,-22,cs)
);
},
{
closed = 1;
nodes = (
(1676,1136,l),
(1676,1536,l),
(184,1536,l),
(184,1136,l)
);
}
);
userData = {
RMXScaler = {
width = 150;
};
};
width = 1984;
},
{
background = {
shapes = (
{
attr = {
lineCapEnd = "4";
lineCapStart = "4";
strokeHeight = 64;
strokeWidth = 64;
};
closed = 0;
nodes = (
(1344,4,l),
(1278,4,o),
(1176,4,o),
(1144,4,cs),
(850,4,o),
(666,162,o),
(666,416,cs),
(666,1904,l)
);
}
);
};
guides = (
{
angle = 90;
pos = (1406,1608);
}
);
layerId = "B1F27B51-9973-4381-9301-4FE46FE1CA59";
shapes = (
{
closed = 1;
nodes = (
(1320,-28,l),
(1320,36,l),
(1120,36,ls),
(842,36,o),
(674,182,o),
(674,416,cs),
(674,1904,l),
(610,1904,l),
(610,416,ls),
(610,144,o),
(810,-28,o),
(1120,-28,cs)
);
},
{
closed = 1;
nodes = (
(1324,1472,l),
(1324,1536,l),
(202,1536,l),
(202,1472,l)
);
}
);
userData = {
RMXScaler = {
width = 150;
};
};
width = 1600;
},
{
background = {
shapes = (
{
attr = {
lineCapEnd = "4";
lineCapStart = "4";
strokeHeight = 232;
strokeWidth = 244;
};
closed = 0;
nodes = (
(1484,102,l),
(1378,100,o),
(1182,96,o),
(1120,96,cs),
(888,96,o),
(742,230,o),
(742,442,cs),
(742,1904,l)
);
}
);
};
layerId = "CD0E3B44-F66A-4791-B84C-A1128DC61275";
shapes = (
{
closed = 1;
nodes = (
(1460,-20,l),
(1460,212,l),
(1096,212,ls),
(910,212,o),
(840,296,o),
(840,442,cs),
(840,1904,l),
(596,1904,l),
(596,442,ls),
(596,134,o),
(762,-20,o),
(1096,-20,cs)
);
},
{
closed = 1;
nodes = (
(1460,1332,l),
(1460,1536,l),
(192,1536,l),
(192,1332,l)
);
}
);
userData = {
RMXScaler = {
width = 150;
};
};
vertWidth = 0;
width = 1780;
}
);
userData = {
RMXScaler = {
source = t;
};
com.typemytype.robofont.guideline.magnetic.y5AZhPlfwM = 5;
"interface.width-adjustments" = (
-16
);
};
}
{
color = 8;
glyphname = w.ss20;
layers = (
{
layerId = "5C20EF92-B63D-42A8-8878-93C2863E0093";
shapes = (
{
closed = 1;
nodes = (
(864,0,l),
(980,824,l),
(1004,824,l),
(1120,0,l),
(1648,0,l),
(1920,1536,l),
(1380,1536,l),
(1348,608,l),
(1324,608,l),
(1244,1536,l),
(740,1536,l),
(660,600,l),
(636,600,l),
(604,1536,l),
(64,1536,l),
(336,0,l)
);
}
);
userData = {
RMXScaler = {
width = 75;
};
};
width = 1984;
},
{
guides = (
{
angle = 90;
pos = (554,548);
},
{
angle = 90;
pos = (1474,568);
}
);
layerId = "B1F27B51-9973-4381-9301-4FE46FE1CA59";
shapes = (
{
closed = 1;
nodes = (
(496,0,l),
(796,1416,l),
(804,1416,l),
(1104,0,l),
(1204,0,l),
(1536,1536,l),
(1470,1536,l),
(1158,88,l),
(1150,88,l),
(844,1536,l),
(756,1536,l),
(450,88,l),
(442,88,l),
(130,1536,l),
(64,1536,l),
(396,0,l)
);
}
);
userData = {
RMXScaler = {
width = 72.5;
};
};
width = 1600;
},
{
layerId = "CD0E3B44-F66A-4791-B84C-A1128DC61275";
shapes = (
{
closed = 1;
nodes = (
(630,0,l),
(882,1172,l),
(898,1172,l),
(1150,0,l),
(1394,0,l),
(1724,1536,l),
(1476,1536,l),
(1270,370,l),
(1254,370,l),
(1014,1536,l),
(766,1536,l),
(526,366,l),
(510,366,l),
(304,1536,l),
(56,1536,l),
(386,0,l)
);
}
);
userData = {
RMXScaler = {
width = 77.5;
};
};
vertWidth = 0;
width = 1780;
}
);
userData = {
RMXScaler = {
source = w;
};
com.typemytype.robofont.guideline.magnetic.p3iasCA57f = 5;
"interface.width-adjustments" = (
-16
);
};
}
